<mxfile host="app.diagrams.net" modified="2022-11-16T19:57:28.384Z" agent="5.0 (Macintosh; Intel Mac OS X 10_15_7) AppleWebKit/605.1.15 (KHTML, like Gecko) Version/16.1 Safari/605.1.15" etag="ju1UQj5IOAfMz_5_Wf4-" version="20.5.3" type="github">
  <diagram id="af2JSN3rD-9Wbg5hoGh9" name="Seite-1">
    <mxGraphModel dx="1411" dy="825" grid="1" gridSize="10" guides="1" tooltips="1" connect="1" arrows="1" fold="1" page="1" pageScale="1" pageWidth="827" pageHeight="1169" math="0" shadow="0">
      <root>
        <mxCell id="0" />
        <mxCell id="1" parent="0" />
        <mxCell id="0nW9vHeMUiIk-B38lYcf-1" value="A cryptocurrency &amp;nbsp;is the central &amp;nbsp;asset &lt;br&gt;of the Blockchain technology. &lt;br&gt;Bitcoin born in 2008 and Ethereum was&lt;br&gt;created in 2014. HÃ¤rdle (2020)" style="rounded=1;whiteSpace=wrap;html=1;fillColor=#B9E0A5;gradientColor=#FFFFCC;glass=1;sketch=0;shadow=0;gradientDirection=west;strokeWidth=4;align=center;fontSize=17;" parent="1" vertex="1">
          <mxGeometry x="100" y="120" width="500" height="170" as="geometry" />
        </mxCell>
        <mxCell id="0nW9vHeMUiIk-B38lYcf-2" value="" style="shape=image;verticalLabelPosition=bottom;labelBackgroundColor=default;verticalAlign=top;aspect=fixed;imageAspect=0;image=data:image/png,iVBORw0KGgoAAAANSUhEUgAAAOEAAADhCAMAAAAJbSJIAAAAhFBMVEX3kxr////3jQD3jwD3jAD2iQD3khX3kQ73kAr+7d795M7+7+H//vz7zaT//fn8277+9u381bP+8uf3lyX6v4j5rmP70av6wo/4oED5rF/5tnb5s2/838X5sGn6vIP82Lj4o0r4nz34mzP7x5f4qFb959T7yZ33mSz5tXT6un34plL2gwCKa8UeAAAO2klEQVR4nNVdZ3fiOhC11WxI6BA6oQVC9v//v2ebZhuNLGtGwLtf9uyeDehGmqJpCkLvaDeavdZwttxPjoMgxWA72c9P41av2Wj7//rA54d/dHbzTSQEY5zHkVLBFSqKYs4ZE0JNZodF3+cifDHsf6/WCTUe32lpoVScEGV/407X00p8MPz4WqqEXGTmVkDEmRjMez42k5rh52I1kKxq5/TbGTM5WC2IF0TLsP09YoK7sLux5IItO6T6h5BhZyRYjGB3RczEqEO3LCqGjRMTFPQuJAU7NYhWRsOwt5GcjN4ZXG6+SNZGwLA7ZAwjexAUY0MCE4Jm+DEX1Nt3BxdL9GFFMvyZSjrp0yGW+58XMmz45pcikn8ojgiG/aWs47ZgOI4+XsCwvSK0DlWI5cnZC3Bl+MX96RcdOGs9lWFjI3zYByPYtvk8hqsnCWARSs5cjqoDw0X03AN6B+cO/mp9hr/y6Qf0BiWWn74ZNl+2gWfwuK401mQ4fuEGnqHk0CPD7oS9mF8Ktqnlj9dhuKgVevGHiNUJddRguHv5Cb1Bjn0wHIlX88pBTMkZdrev1aFl8KOtMFoybMTvIYJ3RNzybmzHsPl8N7QSStjpGyuGPflqOlrIHhXD1nsSTCja3KgsGO7elWBCcUfBcPxOVqIMUW0YKxmO33cHU1Tb/iqGu3fewRSi6qBWMHxbJXNHlboxM3xTM1FEhdEwMlz8HwgmFI2XYhPDBrEMRvUy3/YQJgfOwLCLyuY+Ilr/jCdSeGCpYoMbbmB4JF4KT7VeezGeCHKW0daF4ZT6uiSu4pKxpD0ffFSfIb0rIwufv6WlKA51GdKr0Wid//z2/fNpqIIKFWDYpc9b84LzsbgdkWhNIpeKA9oGYLihV3ii8EseX6VcbcN2c7dmaJbxWk9Fz3DoIS7KCmmVyfWM8FX295SlxFUbMb0TrmXY9ODLlMTwdkjZPdny2dyh9I/UZsN1DD8jD1EZSAxFQXxGmKOqtNul+8elj8AhJIbHwlfjpIPP7Bj68bdFIS1WFsMLfpBGWGcyHhl+ErujZ0DWkBVyni2khlPKhuEMcUYVWFlqJ4ZTrJFiq7CMB4Y/iDOqtp0ZUD8LW8M88ApAPlykHhhi9HUmVP3eLBAPLEvWMMr/xP23i/eFo00Vwy+MJNyEqt/7DQp7aWENQ7wYphDlmEaJYRv1HQWhSlgOBLtsFiSGklYMg9Q/LdUylBiuMJKgHu6h/a8py04sJIaDwn8n8RVZKc9fZNhHmUL+qMgSNL7mA/HvGdbwgqJ6LjFcoorxGFjP0y0kwnxZwwviOcywgfNmpGVa1ps1vK6jUKtZYLhHfUXJxYSxkhe3qfQTVO5wXEjy5xlijH0AiaEG/d5pK9PYafEn6MKzBbOfZ4g8JbAYapDG29g/H2KYIM5H3nIMP5B3ClG3daC98CKGCWSuRSzHcI6ran60hjVBGDmJf3UMu0gxUH9NVEcWaZYkd57uDMdYVaaE3K7cGyUPlEVl/B6VujOkOCSKM7E9ubUQdltbwuYp/siwRyUGiguxctvJxopTRaLZ7YpxYzihjAFz5lZXH35+DQTJQqJJmSHSYStDPd61bbGgyUvdFnBlOCSOIEZAjN2K45aAI79eoq4MyUOktm64FhQdOVddc2G4IM8WWlYOAmgv0Qu6LuDCEOnPaFDLS9Wgw7C5qGWe4Sd9rgmoj/i0HiqArkq+hPeCyy+MhlYOXL/un3+D+Zelnt3jVnU5RWeG9If0ekbKaDEVMyH2BxuWUxTFyxLODOmTTQxoNb9ckSIm1G+1LvrDxY3uDJv0BYgC6Gu974qKhZhVuT4DjGE8hzAzhuhrxQN0SaAUpYBhLLbmsQIfmN/9OUiSMSSubQlMYlj6j4opY2nhASGK50BXyrBLnxKtEMPCOsTG1KmNOadZMCNl+P00a6hXaZE0HFXMrS67QqUMZ/Rt55A1BMTK1FOISEln4ZoAeRCAj7YVwysM1dqIZFFWnBHgQ1Aa1BDDC+A6X4wpE/2MoQeXDRJD+JtKebYc2giGqeMWeLGGkX6xpvSZAO8iCFuWXoMDbD5Gh9piGJQi8QUgYuHRX8aQ/pDWF8Pg6kVqcEKoepEy9GDva1nD2w9BEXNMCClRNUG4eNrd0By3BxM7mNqCRNUEhEmtK1zEsFwGnsMv4pSyQ8IQc8yBj3URQziDjNGEiVcT0Aa7M9S3hgn4CWJ4RLhcapMwJKqVzyHWr7RCDKEbfxulCaMwwLgMekCWzSiG8CHFVdmIdoC6RWvBDnq9b6xwlmDQBqcJRSOgj9FAYmhKKglQCpEuF2sG9NdfwBq2d2DriJK6Au3Lj+F2gPUCcnMIO5iXxjVWagVQjBtCNcjMLWsFO+qbRcVgtXbzMAqy8dBxAs6E2LZMs582OFXPxwG5wTc2dF5p/nRa49N8+TtsLcxZOKyaiE/BnNrgA2LoCKw/Es0DwkqkDAYxdMAXVtNH+2BN7NI4zzfUoY82ZWodICX5ATZiaItPfBRQbYMjBa0cAKfUieCWQAsegwH+Q/IgFMPukULND6gZ0onhN03pEDmoxLDxR+QvE+8gGDGrWZfZ2ZNNSKU+pRF0N5T7nW35aWMvCA/ogFiXQmK4jCMuxGZl9ezBz5rwRncMaPO/5kip4kxuxxZliz1O5S2rDbFPUx2iUVzweadqkmx3TXSpS3wa0qwFKIbF9cZMzKt2ckVzUqMp7d0CEsPRw6GLxcB4LUzrvilWlNwtSO+HkBjqvkMxtjNybFHsYnI/JM0eAtYQipQawxfJQSWQRb4LWoQMITEEW2+VWJuu+ATheNYKyGr0gzpieENsqnknqDBg30GTkKFL3lCZxq3t0IsTzYCyGccpYRFIuJoYX9krPijzFhEwvriqA17AdcPoFgLRDkI6e+gghhnu3R91t78SKggDbMg1B0gMK8fdGOr6kbm/5JcXoJLIRdS0hnfE8HRuZH12fEoYYio4C3AVwyArCgGAXF0iOAGm6Csq5JKg9L1Fkz9UM42uDGWLhKF71DUe/WQZs7OoRFBlmsUaBfiiEzJvIbtpTZTzZ2SV4u3FeCMF40IBOt9GHcIMkZMkWFb1tXa0F/fW5vaiNf6G1mgzDwY+pTiG0T5j6GpVmdVIdKtZG7CmwbWcpe3A7vWlUIllGRbD3yAtHGJTwJf6UkdVwy3moYd2HROG04BLUae1clkltJPfIO3CnxZiaDoNKIufFR6nDJ28mtIUGBAWYihBLYUr+Qri2YWh01m3TVBIUfU4MPuFfxp3B2bfF4Yus5OsO5m7ndPgcbhZDsJ0GHBV9lkvctb35HAU4MJzDfq9dFCdrlpIMWFs7UI1u5wNdsawfhUu1JsGo9sZr+P0LfKb9UhbLYOdWV+hNOm5Yd2x/5CBo5fNNBet1XTLZQo+mbeqZBnnleb6D+uX65fHvtXEZ9vO1OBuh+fKnjPD2lPMBgfHwRe1gJsAeLFnrr3cXMi1dc7TFcjS0nwvt9MvK+KCJSxx59UI3Dxj9plj6HzgI597iZrDeXO6COZiXPaSnCBy3G9pLga2Iz/N0v8dkC9ol3BCrUmVZptQzKeJmGBT1ESTApBj0x/m0xDNGDJdE+qhjRyb/jBjyDlaU0TtuXsgJrhQ8P1mQDvrCz137wbsCymaWV8k0z9KM2X/TVuOz74jB7do57WRtAMXBwsdWKJ8gnnPeujOFd0Ndi3amXsUTevF8VdZqU5yR5K83k3kGztACZibSDBaAXroAMpoaNHY43/V+SAS4fxSeLSztJfG5pSi7jL/hfkZtFW52kqUxfDyz6WAwGj33dC7680xzUzBQj4yzxBt9YHRzsXAY1+mrUDH/erw3Wx0u+0U3caiN0xf0yF6GQmaI4zdROihg6IYng2vijhLiKYNUJc/6V4qi8BZ0FhJhMSwmFnyMCumhOJUyuJMdlxcBBDDUicU/ayYEkrN8kWGOJsIPHRQ/Ebc6H4blMpzSm8jYJ6yKlnD+xsWGjH0iPLg9BJDzL262FH/MjFkpZBK+Y2Snvs5ZYW74S1OVnpnir79v4iHLMHDOzPub8pB1rAohp7fF368vz0wdDb70EMHzxXDx7fXHt97cq09jt/BGmqma2heJVNukqIGy9xg0hZgDf2KoYofHV4NQ9cgV5ot41eWoFNKxkYH3ewJ3dt5mHfJEpYqZQncDf2KIdelk/VPBqKOUraXt789UQz1aVstQ+RzLIVvLX6BV6dUP7dP/w4pvkb+CrXO76FXa1jnHdIwXJOdJiWi0U3H+hRDqFoceg+Y8JnHTC7PLD2KYd33gMmfk81Y9lAVTmaAQ4rAd7kP9CIT0z8UfQM8ABV+W93Li7K+4PK2upeXq30hMmSEDAzbVSV3bwMVGwoJDAxpX2DyCWOdpImhl/e5PQCeQVzJMOz9HyiaGhgrGYat96doGnduwTDcvbssyqrcZBXDcPzeuygrOwYqGYbjd97FaoIWDMPd++5i5RG1Y/i+6qZKyVgzfFejYVeAZcUwbJI89kYLJezKIe0Yhg26DC0R4siy/MGSIf4FLWKwjW3Vri3DMJy+k9UQwFB0FMPEaryLMCobK+HAMFzgq7FIEPM6Jdd1GIbdje8UtQ3YulbhfC2GYTh8+UlVFo4ahmHYjF6rU3lQt1y+LsPwc/nCbTQN/iZjmCic+FXbyAKHrg4HhuHn6SXbGMlV9dpoGIbhz/bp5l+JjdtoVDeGaU/Sc49qxWg3DwzD9kp6LzK8IRZj5+YxZ4Zh2B+RDYqt4Cd/EY0qCIZZ0bl/jrEcOTZtEDBMOE49n1UsPzTDMPyYC386h4kZkh8Bw8QfHzMvl46I8R1BoxgBwwS9tSTeSMXl2tU+FEHDMBHIIRd0EhkLPqR6gYCKYYLFnDEKkjFjc7pWVEqGiRfQmSO7QhQXbGk19NsapAxTNIdHaRrWYmAXMzlYkfeEkzNM0O39Dmr2wEScieD3i6zHNgcfDFN0O+M/JhLBrKrHVdmLSOthp3YfpiV8MczQ7xxmE5U1NfE4yjVnKxXFPGt8ijbzXQdt1U3wyvCMdqPZS1932k+2x/QlhsFxO9kvZ8NWr9nwPDokxX/hOMokqh/d3AAAAABJRU5ErkJggg==;" parent="1" vertex="1">
          <mxGeometry x="110" y="164.13" width="81.74" height="81.74" as="geometry" />
        </mxCell>
        <mxCell id="0nW9vHeMUiIk-B38lYcf-3" value="" style="rounded=1;whiteSpace=wrap;html=1;fontSize=19;fillColor=#FFFFCC;strokeColor=none;gradientColor=#FFE6CC;gradientDirection=radial;" parent="1" vertex="1">
          <mxGeometry x="950" y="120" width="200" height="370" as="geometry" />
        </mxCell>
        <mxCell id="0nW9vHeMUiIk-B38lYcf-4" value="" style="shape=image;verticalLabelPosition=bottom;labelBackgroundColor=default;verticalAlign=top;aspect=fixed;imageAspect=0;image=data:image/png,iVBORw0KGgoAAAANSUhEUgAABMsAAAfrCAMAAACF9987AAAC/VBMVEUAAAAAAAKMjIybm5uIiIiMjIyMjIwEBAM9PTuMjIw1NTU4ODc9PTuLi4s7OzmMjIxAQD0AAAI8PDp1dXWIiIiRkZF+fn48PDqMjIyMjIyLi4s7Ozo5OTmZmZkAAAWMjIw7OzqMjIyLi4s5OTiMjIw4ODhGRkWMjIyMjIwAAAaMjIyLi4uMjIw8PDqMjIyLi4uMjIyLi4uMjIxWVlM0NDQ0NDQ9PTs8PDqMjIyMjIw1NTWLi4uLi4s5OTg4ODY5OTk0NDQ9PTqMjIyLi4uNjY2MjIwAAABQUEsAAAAAAACLi4s8PDo5OTmMjIyMjIw7OzmMjIyMjIyMjIyLi4uLi4s8PDo5OTg8PDo+PjwsLCyMjIw8PDo5OTiMjIyOjo6Li4s8PDuMjIyLi4uMjIyMjIyMjIw7OzozMzOMjIwzMzM7Ozo0NDQzMzM9PT2MjIw8PDsZGRkzMzM1NTU7OzmLi4uMjIw2NjaMjIyMjIw9PTg8PDuMjIwyMjI9PTk7Ozk8PDszMzOMjIwAAACNjY0ZGRk7OzlPT08nJycVFRU8PDo0NDMpKSk0NDQ7Ozk8PDkzMzMVFRVdXV0ZGRk7OzpVVVVcXFxmZmYzMzMZGRkZGRkdHR00NDQZGRkwMDAzMzNdXV1CQkIYGBhSUlIrKytBQUEZGRkZGRkZGRkAAARGRkYaGhpcXFwVFRVJSUkmJiY0NDRSUlJZWVkcHBxDQ0MbGxsaGhpgYGBISEgzMzNRUVFGRkMbGxszMzNVVVUXFxccHBwuLi5EREIjIyNISEhPT08YGBgAAABFRUVPT09ISEiJiYkAAAAAAAA4ODhRUVFNTU1PT09HR0dGRkZZWVkuLi4rKytiYmJqameMjIw1NTUVFRU4ODg9PTuPj48zMzM9PT0iIiJ0dHR2dnVEREI7OzgcHBw7OzsuLi5BQUErKysnJyeQkJCIiIhUVFSFhYWCgoJAQDt+fn56enpAQD1hYWFaWlpOTk5JSUmKiopwcHBERERqampmZmZGRkZtbW1KTtCjAAAA2HRSTlMAA/sDCfjzBfsV/CT+/uvgFQnxBREODPft2LgrHgYL5RnqfzGFXRHc0A8xHCH0sxmKJS0K9O/h3MNL+L5DNoJQseavdfDUEw4HBmFXY1c4dz2fj2ZcwmuQQyyUinFT+plKR1AqyKSikG/j17mIfzWX3OnevKd5RSfLz7CrVrc+y8BrGPbl05A6/Mc6M9msnZf3N9KnWC4Xx7aNgdXJeGUk7ayCTffrwZgexqFD8NxYz3hO9dF2Yx66p586bJ5iWk66a0brrD8y4risVSMp/GjTx5z3ceCAzMcxvWVyAACL3klEQVR42uzdPWtTURzH8ZOkjSQOKoSgYBV0uVIfQwRv0HoxwcFaxUXQSS1FhyJUUipYOrg6uAgOd3RX3Dr6Ftz+f+RY7JqX4OIThWie7g0I5w/fz4v4cu+Pe851wP/25qMDAOsefv98ygGAbfX7u2feOwCwbamzu/NpvwMAy06f7X3b+Xq74ADArsIT8T9blm45ALDrVuR/tUxfM/8DsKt+3svvljU3HQBYFXfkT8s0Yf4HYNX8Nb/Xsi93mf8B2FS64WWvZZq+cgBgUSPqa5k+Zv4HYNHMiZ70taz1gLdMAPYULpelv2WaHHUAYM25F/7vlulNHswAWFNa8vJPy9J7DgBsuRANtExXjzkAsGRmvScDLWtt8ZYJwJSnZRlsmSYHHQDYUen6YS3TTR7MANhReORlaMtSjmUCsGM+kuEt09VDDgBsmGv3RrWsdcUBgA2NsoxqmSbXHQBYUO/60S3TReZ/ACbEXsa0LOVYJgALKpGMa5ku7HMAELpS249vWfOkA4DQLZdlfMs04VgmgNDNdf2kluk7BwBhi0Umtix96QAgZLUoQ8t0wQFAyNZ9lpY1uZURQMg2DkuWlmnCdxkAwlXqSraW6VUHAKGKi1lblnIsE0CoapGMbBnzPwAr2pK9ZReZ/wGEaeN4jpbpNvM/gCCtSJ6WVRcdAIQnns3VMv3AT5kAhKf2XPK1rMr8DyA87WLOluka8z+A0CwfkLwtq25zXTaAwKwUc7dMm3z9DyAscUfyt0zfMv8DCEnlUnGalrWY/wGEpD0r07RMnzH/AwhH44hMahnzP4Dg3ZmdsmW6xvz/g737V20qDOM4/rYxkcRBhFQ49Q8aRcWWUkIccqwhpEVQpA4VlKLxP1LaxQxmyVDJKjg62UvQG+jgRXR4nuG9Fy/AxSbv85wzfD8X8R1+POc9AMqie11mbZkeMv8DKIf68uLsLev8DABQBps1mb1l+o1f/wIog/Ydmadl+THzP4AS2K3O1TL9PAkAULS35+N8LdM//PoXQNHqg0X5n5Yx/wMos681mbdl+pvrfwDFan+Q+VuWf2L+B1Co9WmCluke1/8AXP07/KdomfaZ/wEUp/5xUZK0rPMyAEBRdrYkTcv0x6UAAMV4fz+mall+UAkAUIjWVFK1TE/eBAAowkYW07VMj3n8B0AR6q+jJGzZvaMAAP6ebUnKlukh1/8A/I2XY9qW5T3mfwDuNqeStmU6+hIAwNd2Fk/VMuZ/ACXU3I2SvGWdXwEAPL2rSfqW6f65AAB+VteiRcvyp2cDALjZGYpFy3T0IACAl7tZtGmZfr8VAMBHcz2KUcs6vMoIwMtGTaxapvuXAwB4WFmLdi1rHDH/A/BQeTwUu5bpiFcZAXgYZ2LZMn3O/A/A3tLNaNuy/EUAAGvbVbFtmfavBQCwVR9E65Y1njD/A7BVeTUU65bpiM8yAdhaycS+ZXpwNQCAnYut6NGyBp9lArDUropHy7TPXQYAO82B+LSsMWH+B2Cl0o1OLdM97jIAWKnfFq+Wae9CAAALV1rRr2WNGwEALIyr4tcy7XOXAcDCmYF4tkwnCwEAUlvoRt+WnTwMAJDaUia+LdMedxkAUqu0xLtlOa8yAkhttebeMu0/CgCQUmUg/i3TSQCAv+zdT0tUYRTH8cM0I3gjLMbCkSQm+qN0iYoGzKSkf4QQRUFQCDYL0TCCkYygFoa7mnDRooXYpk07t617DQXnLJ73UmtxxrkzF55z4ft5Ed/Fj+eem6emxmjZnykBgPyU70Zpmf0VAMjPug7aMuZ/ANGldyK1zOZ4lwEgL4feH4nVMrspAJCPZkmjtazNZ5kA8lGe1HgtS24IAORhvRSxZdbgp0wA8pDWNWbLEuZ/ADmovilFbZnNMP8DGFxzSOO2zLZ5/Q9gUCfeaeyWzfD6H8Cg1ivRW2YtXv8DGEw6ovFblnzh+A+AQVSXSg5aZo0fAgD9a46ph5bZLvM/gP6NTquPll3dEQDo1+0hJy2ztWcCAP1Ja8FLy5Kv9wUA+lFdrKiXllmL+R9Af2ZPBT8ts41zAgDZjY6rOmpZ46EAQHYrY65aZtu8/geQ3eXJ4KtlydYxAYBsJp5X1FfL7CXHfwBk1RwJ3lpmc/cEALIYvhXUXcsaCwIAWXysq7+W2S7zP4As0ungsWXJMvM/gN6Vz1TUY8ts7bcAQK9mzwefLbO5owIAvRleUnXastZTAYDezNfdtsy+cfwHQG/S68Fvy5JXzP8AelE+val+W2bttwIAB3tUC55bZr+Y/wEcbHgxqOuWtc4KABzkQV19t8w2DgsAdJeOB+8tS3aY/wF0V16pqPeWWfuTAEA3r2vBf8tsi+M/ALoZfRy0AC1rfRAA6OxaXYvQMls9KQDQyYWLoRgtSxaY/wF0MvGkosVombU/CwDs70otFKVltjwlALCf45eCalFa1nohALCf2bqqFqVltvpTAKDTr5cK07Lke1UAYK+J+U39rzAtszZXGYF/7N0/a1NhFMfxJ/0LF4pDVRqkrQmtVilKMBf8Twl9A4qDSxW1UEuK0KCTLu7dO5RO7nbt4OTY2eGcIe9FY4y5ae5Nup7nfD8v4kvy48kJhq13h387LdOdpQAAg66udFNmqGXpywAAgz5U5C9DLdMmP8sEMOhK78W/pZYlq7MBAPomX7ySLkst0xZXGQFk3S3LP6ZapvwpE4CMxf7wb6tl6ZMAAD23F6THVsu0eS8AQNd85sW/sZYlq6UAAB2ls2n5z1jL9Nf1AAAdl8vSZ61luscHMwAdk1XJMNeylKuMADreLUiGuZZpkwezAP5oSJa9liXfAwBsTUuWvZZp60YA4N1UWQYYbJnuBQDeVWWQxZbVucoIeFfblEEWW6bNAMC3hpxjsmXJlwDAs+Hh32TL9ICfZQKe5Qz/NluWMP8Dnq1MyHk2W6bptQDAq1pFhhhtGfM/4FhDhlltWZ35H/DqbEaGWW2ZHjH/Az4trkkOsy17yPwP+FSdlhxmW6b7zP+AR7VlyWO3ZQnzP+DR5znJY7dlmnL8B/BnqyK5DLdMT5YCAF9K25LPcsvqzP+AN9UZyWe5ZbrL8R/Al9pNKWC6ZclGAODJswkpYLplus/rf8CTt8tSxHbL9JD5H/Bj/r4UMt6y+tMAwItPM1LIeMv0iPkf8KK21pZC1lumpwGAC6XXc1LMfMt2mf8BHx5ckhHMt0ybzP+AB4t3ZBT7LUuPA4D4vV+QUey3TE+Y/4H41bbbMkoELdMfpQAgbpPPZbQYWtb6FgDE7U25LSPF0DLduBUAxGzq47iURdGy9JhvmUDUvm7KGFG0TA+5/Q/EbP1RW8aIo2W6MxsAxGq+KmNF0rKDnwFArB5fYPiPpGV6yvyP3+zdQWpTURTG8Rujg0YExRqCGNSoWKqoDQmIoIZSBTvQCuJAyEARHLQIinaiCDpUwaGDB12CbuccJCvIJlxC3hvlO6f/3yL+8D7uvQ9ZdZ/ObaEsLRsdMP8DObW2e7ZYlpb5LvM/kNPG2ZktlqZlfu9RAZDP6Y9WR56WVfsFQD479V5gzNMy/8X8D+TTfTG3OhK1bHyF+R/Ipj3tWS2JWua7xwuAXK7fmFktmVrmT5j/gVz6X62mVC2rvhcAmbytPfynatk/5n8gle6tudWUqmU+us/8D+TRftmzunK1zCfnCoAsbm7OrK5kLfPnzP9AFv1tqy9by6ofBUAOwybDf7aW+Rt+/QvkcPRyk5Sla9l4n/kfyKC1s2UNpGuZT74VAPGtNBv+87XMD3j7H4iv/axZyhK2rOJVRiC+jbVD3zLfO1UAxNYfzK2RjC0bf2H+B4J73LNmMrbMJw8LgMi6jYf/lC1zXmUEQmtNbekkWlZxLROI7NqaLZ1Ey3yPcxlAXO3B0r8wVVo2ulsARLW+9OFfpmU+4VomEFV/+cO/Tsv8cwEQ0ytToNKy6kIBENHKA1Og0jLfKwAiUhj+lVo24lVGIKKhwvCv1DKfcC4DiKe1aRp0WuZ/CoBopidMg1DLfp4sAGJZ1Rj+tVrG/A+EMzAVSi0bM/8DsQwvmgqllvmkAIhEZfhXa1mH0/9AJNNjJkOqZV4x/wNxnBF46ke0Zcz/QCADlfMYgi17d6kAiGF43oSItYz5HwjjkylRa9mI+R+IYbplStRa5n/5KRMQQfe1SZFrWYf5H4hgIHQeQ7Jl/p75H9C3ftW06LWsw/wP6PugdB5Ds2U+Zv4H1E11LmLqtqzzm/kf0LZ6+4iJEWyZ32H+/8/evatGFYVhGP6DUcm2sMkEDCIyimAiYoYpHI3DEBHEE3hAVDyAQWKYIDigCLGIlY1iaRUbGyttLVJ5DRb7R7wXb8B6re8j73MRL2t/7L02oO3VvlaNYsvyA5f/AMoWZG5gFG9Z8zMA6Lop94Qp2rJ8yfwP6Hoq9SGmdMuarRMBQNPcvOCxTLRl2R8GAE0X9YZ/3ZblD+Z/QFPvTatItWXNTgBQ9EDxCVO3ZbnO/A8oGhxsJcm2rBlz9z+gp7OpeSzTbVn2twOAmneSw790y/Izl/8Aanpn/7aahFvWrAUALWcet6KEW5brXwOAkoHaDYweLWs+Mv8DSmafqT5harcs+3cDgI7bqsO/estyi/kf0LF6XvdYJt6yhs8yAR1d2eFfvmU5eR0ANCwfaoWJtyx3uPwH0NB5IvyEqd+yc9cCgILrwsO/QctyfD8A1Lc0L30s029Zsz0VAKp7LvpNuU3LcnIvANR2Q3r4t2hZfuLXv0BtnVvaT5gWLWu4lRGobaA9/Hu0LMcHAkBNp06rH8ssWvbnIfM/UNUV+ZRZtCwnFwJAPQvqw79Ly3KNt/+BejrH9Y9lJi1rfgWAWpb3tvo8WpajwwGgjsUVg2OZS8vyC/M/UMfUHYeU2bRswmeZQB1LBsO/Ucty42QAKG/OYfh3alnzPgCU98Jh+HdqWY6OBoDSZjY9jmVGLcvv+wNAWVOPTFLm1LIJn2UCpS1eak0YtSw3jgSAkqa7Lscyq5Yx/wOF9UyGf7OW5YhbGYGSOi7Dv1vL8i1v/wMFDXxSZtay398CQCkzHm/8O7Ysh5cDQBl7fIZ/v5Y1xwJAGas+w79fy3LEexlAGdMrrRO3luXVAPB/u3f4d2zZhPcygBJmnYZ/x5blkPcygAK6rZd/7N29ahRRGMbxg2uza2FkI/gV4neCijGwA+5E4oI2NkoSy2hcVjBLbAyJG9BCtLARUm4h2ngBaVPkMizOezf2VjszZyDPm//vIv6cfTh7Rq9lOa8yAvVbPPYf95VvmfW4lwHUrf0pihFsmX0OAOrVjWoUW7bN1zKBek3PRzWKLbPlAOA/J3r4V21Z53IAUJ/FC1GOZMuY/4E6NeSGf9mWtbj9D9SnL/VHTOmW2c+pAKAezb0oSLRlLeZ/oC7XT0VBoi2zjPkfqMdoNipSbVmr9ywASK+xI3ksk22Zdbj9D9Shq/ZHTPWW2QHzP5Be823UpNuynPkfSG9X8T6GdstsyOM/QGqjuShKuGWtQ+Z/IK3GiuqxTLlllnH7H0irey2qUm6Zja8GAOk0l6Is6ZZ1mP+BlJ6I3seQb5n9YP4H0hnMa31GzlHL8iMe/wFSaWzIDv/yLbMPzP9AKv1Z4WOZestsi/kfSGPhflSm3rLsRQCQwqbgw9iOWmYHzP9ACoM95V+YDlqW7zP/A9W1V79FafIts+HjAKCq/lntY5mDllnvawBQzcJOFOegZdl6AFDN2tMozkHLbMzb/0A1g4fivzB9tCx/z+M/QBXtm+LDv5OW2fBNAFDeozn5Y5mPltkht/+B8porUZ+PlmW/A4CyXmrf+PfUMhtz+x8oa7Sk/wvTTcvy5dMBQBmN3dfRAScts78fA4Aynl/0cCxz0zI74vY/UEZzw0XK/LQsuxUAFPfKw/DvqWX25UwAUNS9Sz6OZY5alv86FwAUM7PpYvh31TIbfg8Airnj4Ma/u5bZ/lQAUMT0qpeUuWpZ9icAKKIv/9SPy5bZ1pUAYHJ3vQz/3lqWr/P2PzC5mTUvw7+3ltn2jQBgUiM3w7+7ltm72wHAZM4/cJQyby3L+Fsm8I+9O1ZtKozDMP5po9IDUiS2WCQKJWrVUAwmgxG0RBAcREURHESMFT0kS4tuHTqL4NhBdPECujo4OHsF33/wXhxKqY1pktX3fX4X8fCdl++cM62HOsO/Xstii68yAtOZXVE6lsm1rPjKt/+BaVSfCA3/gi2LktcygWlcVRr+FVsWb64nAJNU6lopE2xZ60MCMMmV//8vcuotiz73MoBJFrSGf82WFRdOJADjzNzXGv41WxYl9zKA8WbnshrFlsWArzIC41TVhn/VlnV4LRMY59WxLEeyZdHnYAYcrraS9Wi2rNg8kgAc4tfRrEezZVHeTQBGW7iUBYm2LAYczIDRZupZkWrLCuZ/YLSm4PAv3LLY4mAGjNTNkmRbVmwmAP/qKQ7/yi2L8nICMKwiOfxLtywGCcCwuuixTLllnWcJwEGN41mUcMuinwAc1FU9lkm3jPkfGPJc8z6Gesti41wCsK+ymGVJt6xg/gf+tiT7hCnesmgz/wP7GmeyLu2WFT+5/Q/smemezLq0WxYt5n9gT0/2PoZBy+Ij8z+wq7aclam3rMP8D+xakj6Wybcs1s8mACk19H695NWyYpW/ZQIpVd8J38ewaFm0mf+BlHrK9zE8WhY7zP9AZS2LM2hZ6xaXzGDvvfbw79GyKLn9D3dN4RcxjVpWfL+XAGe1R+LDv0nLYp35H95657M8i5bFNt/+h7P5m7+zPI+Wtb4w/8PYHfX7GD4ti8/M//DVXDY4lrm0rPhxKgGeai/0h3+flkV5OwGebsw5HMtsWhb9iwlwNN/NFmxa1n7A/A9Lbx2Gf6eWxQ4f/4Gj5prFE6ZTy+IT8z/8VK5ZDP9eLdv4lgA3LxdNjmVOLYtV5n+4Of3aJWVWLWs/Zf6Hmccmw79Zy2Kb+R9/2Luf1aaCOI7iI70qrYgL24KiC2sKYiXQ0LsRBVH8gxAVKQq6EEUIGBDMoisp6saFgT5AsBs3rly7zGPM4CP4EqYoSnyD+Z3zeYjDzZeZCcsm4SImsWXlqU/MiqRZowz/uJaNd5LEceUm57MM1rLy3flfHMvPQCmjtazdd/4Xxva5DAJrWXl3LEkMl07/zCC0lpXPnv4XQ3Mjo+BaNt5NEsE90vBPbFnZc/4XwcoT1C9MYsvat87/AniBGv6RLStT53/Ft9GFfZYRW1buO/8ruuY96MQ/t2WvriYptouw4R/ash97/vWvYlt9iEsZsmWl/eL8r9Ce04Z/asvK8GuS4lrEDf/YlpVHd5IU1dm7uOGf27KJrzIqrk3e8M9tWRn4KqOiajrElGFb1u44/yuoB5w3/m3ZzPBWkiJa7iI/y7gtK/tHkxTPwjZx+Ee3bOy1TEW0cSozcVtWHnsuQ/GcZA7/7Ja1u87/Cuc1c/hnt6xMvZapaBro8A9vWVn3w0yxLPShwz+9ZaMzSYpkkTr801tWBn6YKRTs8I9v2dbHJMXRww7/+JaVqecyFMehbgaDt6x8S1IU4OHflpXRhyTFsAIe/m1ZKYMkxdDJaPiWteeTFAF6+LdlM8MkRYAe/m3ZzNJ6kurXP5zZbFkZ+Sqj6rfKHv5tmfO/gugcz3C2rJT2U5Lq1gP+ua8tc/5XPPTh35b9tuX8r7r1j2Q8W3ZgcjtJ9WouZNmyA0vO/6pZh34ew5b99cb5X/XqnciyZX9Mk1Sr6+j3MWzZvNbHf1SrPvwipi2bN/FPmVSn5mWWLfvnsvO/6rTmeQxbNmfk4z+qUQ9/EdOW/WfpWtIvdu5mJaowjuP4IyNEtYpyoIICsSKNXmQWNpiIYYSYIISQIJQtIpxN0RskoW1aNNDSRbhq066tCxddxoHoCrqJ9jI6c+YMnP/Bz+civjznx3kequeN4V/LDnjl73+q59HlDC07YMf8T9XUpzK07KBGK0G1GP61rJPv5n+qZdJFTC3r5NRegipZPvYvMGpZZy83E1THmouYWnaILY//UB3DN/9maFlHjZkEVXHf8K9lh/pl/qcqJj84lmnZ4fYTVMNqhpaZ/6m89WsZWnaE2asJ4qt/9IWpZUdq7CaIb9vwr2Vd7Jj/ie/5lGOZlnXjVUbiG8vQsm5e/0gQ27PzjmVa1t2e+Z/YRpalTMt60FxJENmC4V/LerL1JEFc7y84lmlZb2aGEkRVe5uhZb1pv0sQ1bThX8t6tv8gQUwjq1KmZT1rLvrKJKbamuFfy3L4fTFBRDe8wKhlueyeSBBPbVvKtCyX9pcE8SzNa5mW5fPN/E889dv/MrQsl+am+Z9oancN/1qW28bpBLFMzPnC1LLc/qyY/4mltiBlWtaH9tcEkYwb/rWsLy+uJ4ijPmb417K+NJ+a/4ljaNrwr2V92viZIIpbhn8t69ui+Z8oao+lTMv61vYqI1HcMfxrWQGtSwkiGB41/GtZAc1P5n9CWDL8a1khs58TlO+c4V/LCvIqIwEMrUmZlhXUdi2T8k3MZ2hZQa2HCcpVG3Us07LCmvcSlGvc8K9lAzDrWiblGp7L0LIBuJKgTOsZWjYIbdcyKdNJw7+WDUjLfxmUyPCvZYPS8CojeRj+u9KykmycSVCOs4Z/LfvP3t2rRhEFYBg+uljMWiSFhQZBWcHIWohhF5IhhmCqWChGEQxGxR90SRpFRNAi9oGUKUQbe9OmsLD2Ck7jvSjkDpzzk8DzXMTLmY8zMwn9CFDHRkTL0tm5GKCG5lxEyxLaClDDIKJlKY3N/9QwdzaiZUltrgYo7YThX8sOuf3PsbZxMqJlie1MByiruRLRsn/M/xxvhn8ty2F8KUBJcxciWpbBsr9lUtTHiJbl0Jr/KWnDi5halsm+2/+U03yIaFkeffM/5Qzcx9CybCZu/1PKcCqiZbn0l32VkULeOZZpWUZj8z9l/PYippZltWf+p4Rm3rFMy7Jqzf+UMDgV0bKs3vr1L/kNfYFRy3LrH5j/ye6uJ0wty27s2//k9syLmFpWwLb5n7yuzTiWaVkBo6UAOa14EVPLivji9j85DX2BUcvKaH+a/8lo3X0MLSvkzacAuSxM/YloWRm/zP/k0tw0/GtZMaOvAfJ4bfjXsoL2zf/kMXzhCVPLCmp3zf9ksfY4omUFTcz/HDL8Hwla9t+Wzf+k17yUMi0rbPQoQGr3DP9aVtyeX/+S2ty8Y5mWFddu9QIkNTD8a1kFk+8BUlqcdSzTshoOzP+k1DyRMi2rYvQtQDr3Df9aVsn2wwCpPJ9xLNOySvpLqwHS6K0Y/rWsmsn7AGncno1oWTW70wFSaNY9YWpZRa3XMkljwcdktayqzdMBurtu+Neyuvp3zP901/ts+NeyyiY3AnQ1nIpoWWWvLgfo5syaJ0wtq659GqCbRb8r0bIjYPN8gC6uGv617CjoPzD/00XvlpT9Ze9uVpuIAjAMHzEoGRCVVvGH1L8WFKG12kLThRa1IgjuVURokRLajYJE6Ea3KngBohv37dZlL8LFuRyNiU0saTOJm3PgeS7i5czHmRktS0LDa5n8j1nDv5YlYu1agFGduuFYpmWJKLyWyegeG/61LBk7vsrIqKrTjmValo5v5n9Gc/i5lGlZQhpey2Q0133qR8uSsjERYHiVSccyLUvLhwDDu2n417LErD8IMKzx6YiWJWbqaADDfzlalrCGexkMq+rGv5YlaONhgGGMTUa0LEEfAwxj1fCvZUnacS+DYVQM/1qWqK1DAUpbMfxrWaJ+updBeeNu/GtZsp65l0Fphn8tS1dxJUA5s37uq2UJ23Evg3LGDP9alrSpAGXUI1qWMvM/pZw+G9GypG0EMPwPomXpmzsfYJDZ+xEtS9y6+Z9Bane9vaRlySvM/wxSdx9DyzLwyd8yOdj4ckTL0leY/znYpGOZlmVh3vzPQZqXIlqWg2LpZID91DaPRbQsC4tbAfazciSiZZnYPhGgv+rbSNSyTCya/9nPZcP/b1qWi8aTAP00/XqpRctyYf6nv9pLN/5btCwb8+Z/+llxH+MPLcuH+Z8+qguRFi3Lx9ztAHu9cR+jTcsy8tq3/9mruew3cm1alpHix60AvWovDP8dWpaTV48C9KpfcCzr0LKsvLsYoGvmXKRDy7Iy/zVA1z0fxt6lZXn5Yv6na/WqJ8xdWpaX4rP5n78qT72I2aVlmWncCdBWP+5Y1qVluVky/9M2syllPbQsN+Z/Ot6fiXRpWXa2zf+0NBccy3ppWXaKtYkAFb9e+peW5afxPcAv9u5eNYooDOP4G12VDIhIokVU8CuGaDAr7BRGrcQPAitBYgoRFYIsCyJkC1PYrFoIKlimMpegN5DCi7A4l2O92fk4lu/z/n8X8Wfm4cyZu0s8lk2gZQ4x/8NW35CySbTMoXLLEN06w/8htMyjPe7+j+7WHR7LDqFlHhVvmf9j61z+nDCJlrk0em+IbIPhfwot8+ngkyGu2VekbAot86lcNMTV59dL02iZU+NzhqhWGP4r0DKnip9c/hNV5/7LhCm0zKvRF0NM7xj+q9Aytw4eGiKaf07KqtAyt0p+yhTTbU78V6Jlfo3PG+K5scBjWSVa5lfxgvk/ns5Hhv9qtMyx4T1DNNtLCZVomWc/lg2xnHnKG2YNWuZZ+doQywY/961Dy1wb81lmLLMM/7VomWvF1mNDHHPrDP+1aJlvQz7LjGSF4b8eLXNuwLmMODpd3jDr0TLnSm5ljOMJw38DWubd+JohhrMM/01omXfF/glDBEc3Gf6b0DL3/vJZZgyrpxIa0DL/BpzLiGCum9CElvnX+2rQd/14QhNaJmB82qBujuG/BS0TUOzPGLTNbB5JaETLFOxcNGibZ/hvQ8skDAzaGP5b0TIJvW8GZdsM/61omYY9FjNpCwltaJmG4pdBV5/hvx0tEzHks0xdHa76yUDLVDD/6+ryWJaBlqnoXTFoYvjPQstkPDNoYvjPQstkrC0aFPWPJWSgZTpGjwx6GP4z0TIdBfO/oi6PZXlomZCS+V/P7qWELLRMyR+DmpsnE7LQMiU95n81fc5j5KJlUr7zt0wtFx4kZKJlUtaY/7VcZfjPRsu07HD5j5JdbmDMR8vEMP8r+cDwn4+WiSm5/EdHn/MY/4GWqfm9bPjH3t2rRhGFcRg/MgshiIXILq66arF+ICFRmUYSNBAjIlH8SKMoogbWsCIYYrYRURtBFixTxcYLsE2RIrW1wgHxCrwJbyFT5XkPz+8iHs78mTlThtZK1t7ZstLUr5LK0Pd9jCZsWXFWnf/LMOpmNWDLyjPv3f8lqNYd/huxZeV549v/Jfh5KqsJW1agTef/+FqzWY3YsgLVv33KDO+tw39DtqxEYy//ie7F+b9ZjdiyIm1PJEV25GlWQ7asSKvvkiJ77oeY+8+WIQyd/yPrTPuEuf9sGUK95fwf14EFh38AW8bww/k/rtGKxzIAWwbx9WZSTL37WQC2DGLte1JMV855LCOwZRTzN5Ii6qybMgRbRuH8H1P18XoWgS3D2DyeFM9o1mMZgy3jGBxOiqbXz2KwZRy/nP/jmet6LIOwZSDbZ5Niad/7l8Vgy0DqJef/WKrlo1kQtozkw8OkSC45/HPYMpSrzv+RtBayMGwZyngjKY67ix7LOGwZy45v/8fRfuTwD2LLWOozzv9RVE8c/klsGczwYFIMU8d8wiSxZTRbzv8x9F5mkdgymvGXpAguOPyz2DKaPzu+/R9B+6LDP4stw6mvOf/zVc8c/mFsGc/uiSS6GX+9RGPLgB579z9d74Epo7FlQGN/ykR32eEfx5YRDU4mkbUc/nlsGVG94fxPVs15xz+PLUMafkrimnT4B7JlTN8mkqiqW6YMyJYxjf0sk2tqMYvHlkENfC+Dqtf3WEZky6Dq987/UHcc/pFsGdXQzzKZOg7/TLYMy58yMS1nIdkyLOd/pJluFpIt4xp4MANy+KeyZVz15ySa1171Q2XLwHb9LJOmms6CsmVkS0kstw9lQdkysrXTSSSTDv9ctuw/e3esGkUUR2H8j6LCWGix02wjxmgkWCzBQLIqBEULcQV1ERVBETQZVgZSGYjFYikBC4sUksretBYWvoRwQXwCXyIvkXvvOfD9HuLjzmHmjrTNgJJRgixaJo35X8oyw78wWqbtN/dlCBkm6KJl4pj/dUxPJOiiZeL2mP9VDBj+pdEydcz/Khj+tdEydau3Agr6iwnKaJm8GZ9lSuCNf3G0TF7D/K9gejpBGi3T9435v77B1QRttMwA8399i7yPoY6WGdjm7f/a+gsJ4miZg1mgrtscy+TRMgfXmf/rmvIhpj5aZuHwU6CedidBHi2z0DD/17R4KkEeLfPQfQ7U0i8l6KNlHpqNQC27DP8OaJmJ1cuBOiZ8iGmBlrnYPx+oYbDGscwCLXMxZv6vY4Hh3wMts7HH5T819HcTLNAyG83XQHmPeMI0Qct8bP8IlDbhQ0wXtMzInMt/SmuHHMtc0DIj4z+Bsu5wA6MNWubkkPm/rH7nX4IJWuakeRco6QVPmD5omZXuY6CcN+cSbNAyLxvM/+W0uzxhGqFlXsYHgVK2GP6d0DIz+8z/pSyvcSxzQsvMcCtjMSOGfyu0zE33PVDCOsO/F1pm5yeX/5QweMsTphdaZmf8NJDffa76MUPL/MwvBXJbucGxzAwtM/Q+kNsCKXNDywx1rwN53eTXS3ZomaNf/Po3r8ErjmV2aJmj5kEgpwnDvx9aZmn+PJDPhyHHMj+0zNPBmUA2W6TMEC3z1D0L5PJwiZYZomWmvtwL5NE+/p/gh5aZariVMZd1hn9LtMzV7Gwgh2sM/55omau/L5n/czj5hCdMT7TMVsetjDms8Ma/KVrma/NK4Li1I54wj9i7txcYojiA4yOlqA2JUu6XsIrcHlySXN7wIOWFlEhaL5RSvHlzyaMH8S/4Bzx48eIvmDWdwRbrMjvbbrtrFytnVjlFa3dmpz3nt30/f8S3md/vnBmhaJlgXMvM3wE+JisVLRPsxQoP+dq6jccysXofaJlYTxn/52vOaVImVDfu9T9/KkOoK1zLzNcOBv8ydeOf/bD89vXbTzyaCXVmi4f8LNvAeQyJovqPj2EQ6Ja9fv3+MzWT6aWH/Jxk8C9Q1Gh9qAZa0jJqJlaJrzLmZz6Df3EKUaNdDoPAtEx7/7ZKzuQ5zvg/L3NOkDJhCnGzFpaDwLSMmsl1hWuZedm63IckUfyu87tkpmXGe2omzeVVHvKwZAOPZZJE9Z9fq6ZkpmWmZiw1ZQnveshDkU/9CKJXl2/MM5lpGTWTrMRXGfOwdJsPKWK9ugwDbVjLjM8hOZNjo4fJveINU4q42Q5MyYa0zGANIMcVrmVObjsn/mXo6tVlcghjSMuomWxXOZcxqTkM/iVQUb03WF2OahmDM6EW3PMwmZ0M/t2nktWlKdkYLTO4qSlEiXMZk1nJ4N99UeP7x+QQRtqWmWcz1gACMP6fzDkfjtOryzemZFlaltzUZHDmvOuLPGQ3nxP/TlN+3NSHMHTJMrbMoGbOu+whuw0+3KUK9UrNHMIYu2UsNWXax0+Zsts5z4erVLfeq5WrQZCyZawBxCot9sDgf9aoqPGzUw0DY0TLqNkMYPyf1Tm+wOiqqPn9mxn459IyswYow1GM/zOaf6zgw0Vx84c5hJG+ZSw1xTrjgcH/rFB+vWIOYWRoGWsAwXYz/s9i51ofrtEle9cuJyVL2zJqNhMO7fKQ1tzDvGG6RhUavVoYBlrqllGzmbCA8X9657iI6RjV1atLU7LsLWOpKdjjNR7S2b7Zh0uUXl2aT19PpWVJzXg4c8yCqx7S2cB5DJeouNLqm5JN1jKWmpJdY/yfTnG1D1coVa+0zepySi0zNeNV0yULDnH6P42Vt3gsc4XyG+/agbk/PsWWmVdNzs+6Yzfj/zROHPXhBF2ynvn0taWWJQ9nPJs54xnf/h/f9os+XKC6ze8dUzJrLdPecrfJFfsY/49vHecxXKCi5o+vySEMF1rGTU13XGH8P67iJv5XYt8Xvboc3B93pWUsNV2x4AHj//EsucTg3zal9F2lj8nA36WW6ZpxG8AFexj/j+ccFzFtMSXr/T6E4VrLdM24DeCAR4z/x7F1vw+blN/4Xht8xN/FlnG3yQW7D3oY7QYfxrZJFZo/OoOP+DvbMl0zjmhYdp9f/45W3Mzg354v3UprsLp0u2Uc0bBt33PG/6PMPc95DGtU9K7VT14u3W8Zd5ssu8b4f5QLq3kss0OpuPd7dSmjZawB7Cox/v+/rfx6yQ6l6j/bb36XTErLdM141bRmzxMP/3OEwb8NSunV5Z+SyWmZ9p5nM0uerfcwXPEmb5jTp1SyujQlE9Uy1gC27HvI+H+4Jafu+JgyVai0OuVyYAhrGTc1Lbl228MwexfyWDZlKuq1+3+VTFzLksEZNZu+Q4z/h9l+i5RN1xe9uvz2z8ulwJax1LRhz1kPv9i7k9YogjCM46VxISONghpRGBfcFzSKgozi0QWMoObijuQwehHmoF5zExfwmJNevPgRPHjwQ3iomaaMEzAEZ2OG2TJZsBMJMXGSdE9Xdeqten4f4k/1+1Z3t3cbX2CMksiVJgrtLmGQbBnebVoFQ7j9396Z8ziWRUfkypP19m9dUm0ZPj8btUQSv/5tZ+sB3PiPjBCVqlcyty26LcMaIGKpTwz+dxGDf/XmV5cNN+0ugXLLZtcAbhoi8uUzg8VO3UTKopHLZ2tTy5WMdstm1wBpiMa5jwwW68fgPxK54nShtfwlDOotQ80iNHSHwUIDF3Asi0Cu6K0uVyoZ/ZZ5Nfv1Ow0RSFzC7f+F4s8fclBMCG91ObxyyUxoGZaaUXn6gsG/bmDwr5rg5Wpj2E/IDGnZzKMmaqbe170M5nU/QsrUErxSa4z6K5kxLcO7TUvCT5lUeYDBv1LCyRZavleXBrUMNYvA4CYGc05g8K+SaI4XxgKUzKiWYampXOwDxv9z4k8w+FdHFCfqwVaXhrXM8xNLTZVSrxj8dQyDf2VEqeqVzA3EvJZlMriiodL7LQxmbLuLlKkhRLnawcDfxJbhioZKO/Ba5l+P8TFZJYSo1KY0KJkmLUPNFBrEVxlnHMfgXwXBs97AX4eSadMyLDWVid3H+J+xrbcx+JdP5GdWl7rQpmX4YKMqKfyUibHTmzlIL9lEXZ+S6dUy/IVOjfeHmO2238ITpmSiNNkYdnWiV8vwwUYVEngt8wYG/3KJcq016upFt5Z5cDaTbcj21zK7d3GQSFRqY7qVTMuW4WwmW+zjVWazrn4M/uURzkhBw5Lp2TIP3m2SKmX3a5nHMfiXubqs6zUm071l3uEMNZMouZvZa10vBv/yVpeaDfwptAz3Z2VKvGH2eoYnTGmry5arL41bhppJ9PoKs1UPBv+y3h/XckxGo2UefH5Wjtj1jcxOXf1rOYRX1nF1SaplmQzebZIiZeu9jO49HMJyKgXNQ0aiZaiZHEk772XEezmE1MzW9S8ZjZZhqSlD7C2z0Rk8YYaUn55ySaDRMtRMgkEbv5cRx+A/nLzWq0uSLcPnZ8M7uIZZp49DCKWqtrfJKLcMVzTCSl1mttmGG/8hlGsUxmQkW+ZBzcJIWncww+C/Q0RWl5RbhgtnGP8H8HI9h044zWzDpYZcy3BFI4Qhuy7MdmHw32HJxomsLqm3DEvNzh1kNulzOATmFCdaevyMxIaWYQ2A8b8PPYc5BOWUqqv+0167WobPz3YoyezRi2NZQI5Trg0TLRnllmUyuHAWXMKe8f/ABg5BOM1KQZNfXVrXMlzR6MCgLeP/rl04lgUr2Ug9Tbhk1FuGpWZgMVvG/324jxFAszje+OHSRr1l+DVAUN+PMhv07OTgl7e6HKNeMhNa5i01cTYLIGbH7f9eHMv8apYmqa4ujWsZ/nceyLn9zHwD+zj44eTL1VH6ZzJzWoZ/agYQ+3aNmS5+Ep8t81eySo32wN/Als2uAXA48+Ws+eP/PtzH8KFZHCn8MKVkRrUs8wuPmv68M33833OEw8olyzYMKplZLcPgzKfEPcPH/wcw+F9JvjRtVsmMaxlq9oe982mJKgrD+AEHYoqhwJQyKHCRlZu0GRCskGxVYakRJEKpBUptHKI2EbNrOcsWURs3rXLrwk/gXjjDcNAZ0Iz5xwx3xmZGpXMnpBnvnX9g0Hnf5/chfpz7PO/73pZYpB3/z+ECY1OT7e38oGUygi6DzVrg5Ajl2/+eNwj+G0KnuqTusspuE3TWkADl+H8N8xgN8KV1dUnQZFRdhlKzGcuXBVW6hiSoR6W6JGkyui6DzRrjv002/u/FPEY9kulYgVjgz8JlOjiDzeoTpBr/z51XEriRzJT3yQX+TFyGGqARKxcFRTzjCP5dIFpdMnKZ5idqAHcW3wuKrF3Cs8yFdNbaoPt1ycRlutTEp6YrIYq3/73DEhzFri6jRAN/Xi7TNsOnpgv+dYLx/+hdCWpQvzLxFM0hDI4u06UmvjSdfKYX/w9ewRfmUZMVC1SHMHi6TNsMbzMHq9Tif88zBP812FuXtAN/ji5Dqelk4b6gxexpPMuqSOfK+9QDf54uw8FGB6/OCEp470BlhyhtMov4EAZnl2lgs2oCD0nF//MI/v+aLG5tszIZP5dhRKOGZUrx/9wLPMsqKJmJpaLMTMbRZdjUrCZMJ/7vvo7g30b5sjGy++NwmbPUxKfmH4JLggozfXiWSamSWTZDGHAZaoBqRqjE/96XUJk2WY72/jhc5sYW3mY2gWki8f8kgn+VzlHfH4fL6tkMwVkk8umCoMC7IebPMqUy8fwGX5Pxdpm2GUrNSOT1DWE+3b2SNXZ1mY8yGoyFy1BqOgk+F+Zzk/UFRl1dFnnsj8NlTR5nzG22Yn787x1PSLbYgT/T6hIuQ6lZQ+CB8fH/43OSK3bgT+2vvXAZbMY1/h8Y5vosU+m4VeIc+MNlqAFqWDd7+t8zKlmilA78GQ9hwGX12OJ7fjb4QZjMGMvgX8lsMb+Nr0u4DAcbq4iumnz7/+wUwy9MbbKDFPMhDLgMNnMS+G5w/D/LL/ivVJfshzDgMuyduxA6JUylv4fbs0wl49YuhjDgMpSarnwxNf73zDMLy2yTlfBxCZehBqhD8JYwk0FWp36UyhTzOzAZXNY6W+yCs/BVYSJdU4xUpk12kGK9Pw6XwWbNCSyZGP93zPA59aNkrpzCEAZchlKzGaFvwjy8PVyeZdpke4UoAn+4DP/UbM60R5hG5ySTG//Kp6vLCJ5kcBlKzVYIPhWmMdAnOaCSRQv743DZMQRnXGxm3E+ZPBMMvjBVIo3qEi47vhogwgH/W8Pi/0f0g3+lsuUUTAaXoQZoj5BZa5ndw9SfZdpkewVUl3DZ8bLJ4fzskxPCHDruEQ/+lUJ1CZf9Ezbp1wALJq1l9p+WlEn4YtZuFE8yuOwQ1ABtEe4UptBBOvhPJGP5fQxhwGU1oAZog4A5VxnHCAf/ifRBqgSTwWU1wGbtETJlLqOzRxJFJTK6uoTJ4DIHsFlbfDVkLoNq8F+pLjdgMrisETjY2AoLZqxlemkG/0rmrMI2RAaXNQa7TS0RFiYwIQmifPE8qku4rBmwWYv4P4r/n2sEg3+7uizBZHDZb/buZrWJKAzj+JGgQmVAsBFURBS/iCAqFTSKiqKgiGApgoIbFbUogkVdiVS3Ci67KHXjBbjtwitw7eKU4TRtYdrSzgcT8jFp0mBVUKi1TTczz3t4fhfxZ+Y5c5IO8RONtQ0J+GDWvuF/3m8HLBlblhnPs/AYoOuTQmfd8G/CZo1Hl2xZpjwL7zb1v1PYui0b/k1c4dElWwbAs65m6PO/VcO/MXGlzqNLtgyDN2FXzXqw/5TpmUXDv9Hl6gJLxpbhsOzZbFAhO6NtYXQjYMnYMjBWPZsVkef/axu1HUzSrs3y6JItw2PT3ab+rQpV3pLf+Ddha6lkxJZhsuYTjS7c+b/Xiu8xTFSpl/hIxpYBs2U4O4k6/xf2avlMXOFMxpbBs6RmqPO/BV/8mzIHf9dlyySw4m5TD+b837dJy2b0ZMCZbAlbJsNSzcQ/nH1AnP/zl7Voxm9z8P+NLRND/L/QQc7/x0R/j2HCZr3k0i9smSDe3Jhoz/Hm/4Lki5gmarFkf7Flogg/Bnii0FzUYpm4Ojvt0h9smTSSa3YSbf7vk/s9Bku2HFsmj+BDzeErCsn2B1ok40wFJZZsGbZMIk9qzYqPFJJjIr/HMH6jxpnsX2yZTFJrNoA0/xdEXsT023WXVsCWSSX0puYFheOFlidsLfDlcmVsmWASa/b8ukLRt0dLE1U4+P8XWyaZxLtNQwcVhvwpo0Vx4oAz2SrYMuHE/WBjz1OFYZ+s4d8pB3wkWxVbJp60mg1jzP+Fw5Iey5LJmkurY8ssIOxNc1QhuKnlSJqLLq2FLbOCqE80+g+o7H0TcxHT8Vv8IYxOsGWWkHRTczD7H//JHxXyhulEVZasM2yZPcTUrHhOZe2SkOE/rnLw7xRbZhMpxwBf3qtsFR4IeCxzknLgUsfYMrsIeTb7ukFlKder4TnJZJ0/4b8ebJltRDyb9b9WWboHfxHT8Rss2TqxZfaRcFPzQpbzf/4F+BumEzZnWbLMsWUA8GtWHNmgspJ7iz38O1GFJUPAlkGAr9lQdvP/CeSLmE4SV0rjLgFgy0Cgf3D2aLPKxrb9Gpbjl4MxPpOBYMtwzCHfBvj+WWXj9CHUxzLHn2LJgLBlSCaAXzVHs5n/u2/Oa0hJ2KiPs2RA2DIsuP8QXLyVxfyfu4Y5/Cdhc5Elw8KWofFQazZ4W6Xv/hnEN0w/as3OuISFLcODegxw7qpK27aXgCnz46rLo0s8bBkizJoNvFJpO7sDrWVOGFc5+ENiyzB5EzN4OXt4RaWr+w7Y8J+EUwFnMlBsGSy8mnUdSHf+z93FGv79sFFjyWCxZcA8tJoN7lJpOr4T6Q3Tj9r1GZYMF1sGDexQ0x1Jc/7f/RgoZX7UKvGZDBpbhg6qZgNvVHpu4Az/YVyZ5tElOLYMH9Ldpo/pzf/5XpDh3wnL/AhDALZMgjmY4azrfFrzf+40xPBvfh5djrFkArBlMsAcaj7ZotJxBGH4N37Eo8sf7N3Py0xRHMfx48eQqycLEvIrEVJ+RUmUFEmISJGsFCJlipSNnZKytBBrO1sLC1n6C46mL2Pq+DHundu9zYwZc01+LIV67v2ec+ac83n9Ee+e5/M993lcgZa5YlJqds7M/L/w5ASkLE7x1aU70DJ3TMZRs75XmLDd/vAfZ6NPeIThDrTMJT9rZj9nDzYK/RZvtT38d/LuO5TMJWiZY+yfAaJX+uf/WXtq0iKSnbz3Ab9dugUtc471mr18KnSbZ3P4p6n0fa+Bv+njGrTMQW3Lw9npuUKvWYdJ2kKDX6dLPMJwD1rmpKbVmtXPCL22LZW2xNm4j5nMSWiZo5ptizW7uFLotMLa8B/nxTeUzFFombOUvW+bopta5//jc6QN1Mm7eIThLrTMZdZqduWg0GeRjeGfZNrCIwynoWVus3XUfCL0OUXSNJLZ++QNSuY0tMx1dr5tqs8XumwyPvzTIBsmOF26Di1zn5Wj5oO5QpO1JI2iOB/hEYYH0DIfND8bH86iu0KPa2aHf4rzAn/62gtomR/UZ9O/al7ZKHSYvUwaRGmri0cYnkDLfKFMnwGOCB1OSWOI0lbvA0rmC7TMI2a/baovF/y2rJeGkMyGvQa+H/cHWuYVo18DPBD8tkozaCob409f+wUt80zT3PvZ3b/nfxeHfxrgdOkftMw7ythR88ohwWuWkeGf4lbxFSXzDlrmof+dASZ6/jcw/BN1Wvjq0ktomZeUma8B6qsFp3lLpWZE6bCHkvkJLfOUMvI1wEWnhn+S6TjBIwxfoWX+MlCzHfc4h/8lUieS2SjBIwx/oWU++2vNJnX+n7FZakRTeZE0MPh7DC3zm+4nGtETvuG/JrWhQauL06Xn0DLfKb01u7+aa/g/IHWhzvsu/v+499Ay/6nm5z8CNImv/7dOST2og9NlENCyEOis2fW7gsOxVVIHonScvMPPZCFAy8Kg74lG9HKuYLB5puRHlBcJ/v94INCyUChdZ4AdTziG/zmSHcm86OP78WCgZQHRdAZ4tFxUteWW/In/dPkGP5KFAy0LimpqqFl0sfrwX5O8vsTD3neULChoWWB0nAEu36s6/C+QnOjLr9MlShYYtCw87GeAaN8MUcntmawly0YJShYetCxE3DXbeaTa8L9EsiHKij5OlyFCy8KkeGv28GmV4X8X5+my228gZEFCy0Kl2h8bb7jsvirKW1PjO132vqJkoULLwsV51Lx/r/zwf4DpdDl4j9NlyNCykKk211Ezej5XlHTiPEvJOqPkG0oWMrQsbGxPNHY+EeUcXUWyMkoLnC5Dh5aFTjGdAe4sLzf8L+P4frzov0PIQoeWgVLtt9bm/xs1htMlSgZoGfymmtVr9uhumeF/Q+WS4XQJaBlwHjWjFyXm/7OVhn+aGibfUTJAy4C1ZtfXiel6XWX4p3iMwR/QMuA/al5ZPt3hf3+Vko36KBmgZfB3qkrNdj8W03OpJkuitPv1E0IGaBn8k2q/Ke3Z9Ob/axeo7Pfj3a8fUDJAy+C/yj/RiC7+YO9eXqKK4gCO/0RbaAxTGS0sIooWFYG1iN4PgsqeVBAVYVCLIFo0EK1aGNiiXCiiZGIFRqARgQnSIqyFi6hVm5i4XE1hdAxnZAaf+SCujxlnvHfmjOX1Xvh+/ogv5/zOOffmi7qswuKFlawrNEHJQMuwiFc0fKdE3R6vvpBLGJ2hIEeXoGVY3EPNw+vUB//39MxLNjI6FNQAWoZF/sTZ3mui6uKyjEsWHqdkoGWwpWZPN4manbv1TEs2MNyhAbQMdtQs706+qMjeWJxZySKDf7o1gJbBpkNN3yFRsd+bUcmioSAlAy2DnX8I/rBBZfB/Xs/g6LIrxJgMtAz/LqO3TXtPS3pnlqm/VRodYkwGWgb73zY9Xivp3NynK7+6ZOAPWoYlOQbIO1gkqWUdLVZ9dcnAH7QM/5vqMYDvsqR2Vm3w3z/IwB+0DDH21+zjCkkl97rKDjMy2EHJQMuQwOa3TXkPJJUbHn86nq4QIQMtw2IKKNSsZLlY25F28O/pHKJkoGUwYfeh5rkTYiX/YZqU9Y1NUDLQMpiwv2a+A2Jlqzd1yca5FwtaBiu216x8hZhbfVX3WwsPcJsMtAwq7Hqp+UrM7ff4LUUY+IOWYQmk+vxsyToxs61A91uIUjLQMiyRFFc0LhXJfPknzVPm8YwOawAtg13Ur2j4rsh8O7ymJeubnNAAWgYbqdesfIskW3NBNxv4j/GrS9AyOIDFu/P7kuysyZqsf6CDkoGWwSF+m43/N0ii3IJ5Y7LIICUDLYOTmFzReFEkc2Wf0RNLNhIN8atL0DI4zbwrGr7lMtc2b+LAv2voJyUDLYMDJdfs1nqJyynU/TEj4dHhdg2gZXCmpAtnTyRuqz/GEx4LUjLQMjhZwkvNz8dk1pqC2Jqsf5xLGKBlcLxAb3xxdjpLpmXNDv77IgPdrMlAy+AKsUNNX4NMy/VOD/yjoXbWZNA0WgZ3CPzqmc7ZrSIxZBfqxsA/GuqhZDDQMrhFYOY1QJkYdhZPHV1SMsygZXCRgLE2K1kvIjkFfeHJCXaXiKFlcBVjbbZZRL72jwcpGeagZXCbXmP8/6ODkiEBLYPrvH8u0vLlCB+NxVy0DG5z95kYqppXUTPE0TK4y+uaBplRf5t/LCGGlsFNKirfSVxLGxtNzKJlcBFje5mgqXk7NcMUWgbXKK35Jsmy6x+x0YSBlsElKuo+iZmXbbtYmkHTaBnc4W7tSrHQ1MiJJjRaBjcorbki1nLqm9logpbB8d7WtUpq1W27qBloGZytsva4pFXVyIkmaBkcrPRNmahYzUYTtAyOVVHXKqqqv3OiCVr2l737W20ajOMw/hs7ENmJoHikngiDHe8eWr0CBU+8hF1DKe2BIEupIS2D2WK3djLp5trBRiNs61QcwvBIc/zC7kAQBAmoKVpZ0vx7Y57PRTzky/smgZZqzZIEUN9/Qc1Ay6Cb8lZVgjEZmqBl0MzqxkCCM87f8mgGWgZ9rDSviSfY0HQAWgYtdLaOZFZXGZqgZdDCqjWQMIzz5wxN0DKkrebOy3BG7785AC1DijqbYwnvRrvH0AQtQ2qUdSjRMB4wNEHLkIop8zLc0LxwAFqGxLnzMkpmu0fNQMuQMNUaSNSMyjFDE7QMCVLuvIxBnaEJWobk7DaqEg+zz9AELUMy3HkZH+MRJ5qgZYifWtsrSKzqT7k6C1qGmHUap/IXhiaCoWVImWrZczIdJ5rwj5YhTe68LEky5nd4RxO0DPFw52Vyhp96F58dgJYhWqr15p4kyqhwoglahmiptcOuJO32DldnQcsQJfdybBqGH19TM9AyRMOdl0viG0MTl6JlSENt0JX0FB+e8GgGWobQdhtPJF3DEb83AS1DSNbRkqTOqPDnOdAyhJqXZ6KD4st3DE3QMmR2XnrW6wxN0DLMxBprMC89z9oMTdAyBLZiL4hebh6c8FYTaBkCURrNS8+wvs3QBC2Df1ZVq3k5OTS/OwAtgy9l+5boiqEJWgZ/VPOu6Mx8vM1bTaBluMyGrvOSoQlaBt/Kdlf0t3zA1VnQMvyb2tPjmj9DE7QMs1PW+I5kxkKfoQlahik6dkmyZNngY0CgZfiTap7NScaYdYYmaBkmqVaW5uVvc+v9rw5Ay/BT+VVBsomhCVqGX1TzwxXJrEWGJmgZvmTt9HKK+SFXZ0HLULazOi8nhyZXZ/OOluWdapQyPC89i3wMKOdoWc5Zp9mel57rJl+dzTValmvlgfZvkQcamvsMzfyiZXm2Wbgv/5Xi6JgTzR/s3c1qE2EUh/ET2oUiiLVBNy4EQejCVUDXroqX4C24yjXI0M4yDk2oEkijJjFpFkmaWoIQQUuL+JGguJBZuPUytBtji9E2yQTOOc/vIh7mP+98eEXL/KresDIvRxZu8h9Nr2iZVxVT83JkMT/kDMAlWuZUbcXE6eXfZBiaLtEyl6L7S2JXKrPGGYA/tMyhSt9yyY4s5wcMTW9omT+1JXWf9jm75Y2tGK7QMm+iD2ZvlB2TusfQ9IWW+dLZNfZE2T+kSgPOAByhZa6UPczLkdTG5xhe0DJHoveuSnYk02NoekHL3Oj0fdwoO6E0ZGj6QMucCBv2Xlg6nQWGpg+0zIUwq+UPvkm4wommB7TMgbDTd3ej7Lj84GMM42iZfWFN/zewpx+ab6mZcbTMujA6EIik+RiQcbTMtrCz63xejuSH52LYRctM6zQeCn77xNA0jJYZliuuC/5U6D2nZlbRMrPCyivBSY+GV2OYRMusYl6O8eWQ22Ym0TKbctEzwdihyWtNBtEyi8KgKxhvu34rhjW0zKBm47qAoekMLTMnV3wt+P/QvMjQtIWWGRMGTwQMTYdomS3N8jXBKT19wNA0hJZZkityenkWhf27DE0zaJkdYZZ5ydD0i5aZUSnzcOwEWgxNI2iZEZxeTur8/hZD0wJaZkKYfSyYVLt+mZrpR8ssCMqXBFNo7TA01aNl+nF6Ob107/b3GKrRMvU4vZyJbYamcrRMuYDTy9kNTS7NNKNlqjWrbwSzUujdoWZ60TLNIublrIcmb5yrRcv0CsovBLO1wNBUi5Zp1azycGwSXv4amt9i6EPLlIq+LgoS0d5jaGpEy1QKGhcESVlkaGpEyxRiXiatxImmPrRMn6i7IkhYe49HZ5WhZdoEtQNB8tKtnR8xFKFlujQ3mZfzkl87ZGgqQstUYV7OVfsdfwXWg5YpEtTWBfO02qozNLWgZWrkNvuCuRkNTS7NdKBlWhS7q4Kf7N3ZS1RhGMfxZxwnjcpKy5nU9sZW24QsKsvKFo0ytSxt3wjBFIpKQ6MaaaNomZGMwGyjjELDgoqSaF9ovXlh3kMXcSLwRugiCILGmhyd9cx04fu8PZ//YG5+8OU5c04nsL64aCcI0JbhYKmmvOwsfT9epRsAArRlGKi1lJdBodD8D9GWIXCyMRFIp7K++GwnYqMtE56l+gmQztaHLpqioy0TnFonRV5u7QvYnSii0BQabZnQVBmul8lDAbKy1wF6De8pNAVGWyayS9VHAL2KvLsAkN9zyE7ALvYhhaa4aMvEJUVeJiwuLNYBQJ+NSlxGLGBnK3r0hd46KybaMlGpl+/h/+/l/MwyvqcXtFpkUkxrJAhN6/sfdiIi2jJBWc5I8GqfiuIoHn0Y/tiiMKXfsA2A3bw3FJpCoi0Tklp3A9BLKCr9xvlKcIrdrjCFTZUiNOmiKSDaMgGpZ+/NBezCzeWRnPOjrjvshuGMMcW0ZBqg10ChKR7aMvFIkZeHHXnpkBIPLrlhrWPG0ofhv2hWUWgKh7ZMNGrdBR1g58hL3qrFDO30z29mDkrY1Bz8j87aztNbZ8VCWyYWR17uA+x6m8uN/Lfi3tDemF0Ka6WYNuEPTf01Ck2h0JYJ5ZIMeVmxOYr/cagbdKCf0oU5pQ8bA9hV3afQFAhtmUAcedkbsBtUVMmdktaCm5ghCvtDMUzNwP/lddv5R3TRFAVtmTDUy7fw52WEeVsS/yt1AbgbF6cwJ2XgdvyhGX7t/WdaMzHQlonCcmYooFexOY23KR8EnrJ6KqxN+ngJQtNKb50VA22ZIGqfDADsBqVWcpe0CvAiZq/C2iiGyTn9ATsKTTHQlgnh7IMrgJ3OvDSJu3xatgC86bqkmbkog3dnAXbhdx/TDaDz0ZYJ4JIMeTm9NS9dWjb3Au9GpSusvfTs0YDdbetbCs0g0ZZJqPaABHlZUMk7KJ0OPsTkGlh7imHjXj1gZ6s/ZyfBoC2TzsmmBEDPfMjIOzCaI8CXvtnOynSF5iwZQvPOV3qzWRBoyyRz88wKQG/6qTTe0be8keDbhskKc9MvuytgV9VAoRkE2jK5yJCXiamF3E3L0njwQ//S5D5mimHXXkDPVv+BLppa0ZbJpESOvIzm7qJm6Pz32BCFeRg8Fv+js7En6KKpFW2ZPNRGGfKyLI17Sh0A/o0Z28w89ZQhNJe/pQ8CaEJbJo3TTyXIy4IU7qllZgIEsm64wjwZRkgQmjUPv9tJYLRlkihpwv9wLGTuSeJepOyAgMJnhzFvTGMXAXbJtsd00QyMtkwK6r3XgN7Qsiju1eL5EFjXTc3Mq575UoQmXTQDoS2TQe1T/K/2ScxL6c69+XZqEGiRNcJVmW6huQXQq3nzwU78oi3Dz9KE/9U+YHblpZvSu6BJ/5wuzAdTnASPztru0EXTL9oy7NTGV4CeKy89JD2MAG1i1yjsN0kvmonLr9PDZn7QluGm1kmQlyMLJnXnvhxLBq0mTvY9ZvvTJbho3q7/aSe+0JahVtKE/7uXsLA0ifu0NB400+cOZL7NmYr/0dlkCk3faMsQUxuv4P9a3PTyaO5bWqYOtAvPZn6EDZQgNOfRRdMX2jK0VBmul73yJkVyP/KC+4mjXW//9x6aOYCdruojXTS9oi3DqqRpJKCXWWrk/mxLgOCsH64wf+ZIcdGk/2h6Q1uGk9q4T/a8dEhZC0GKGbaf+dVjcP44wG5ew3UKTQ+0ZRhJkZcjC6IiuV/G1AgIVuxYhfln6JcB2OkT6yk03dGWIVRyQ4a8rDTyAGaG8jO3pissgC5xowC7GNsLCs2OaMvQUavnRgB28UeTuvMACg9DCPSzTSyQHqbxfQC75AZ6dLYD2jJsal/jz8tEV176Fr1SB6Hov50FZhiei/7zJrp55y/aSRvaMlwsN/C/pEyXWWjkgZ1aAKGZMIJpsF+G0Kx5TjeANrRlmBysHoD/ehlfZuzOA6vsBqHKGMw06NFFgtAMtz6j0HSiLUPkcrcFgF1yUXQk1yDKDCHTLwljWoT1W4U/NJMpNJ1oy9CwPJgP2OkyUyK5FsZiHYSuzy6mzeq4iYBdRM07Cs1WtGVIHK/ujT8vu5VFcm1K58K/WDeQaWTI7gvYRVgfUWja7bRlOPxi785+YwrDOI4/U+10UNMaNcWUThWtZdLSZFqxjFaprUoY+zKWiojWJFSVIGIbF6TWIBVLtKiSWEKqQWyxJIS4eZn3Ta8kkt5M0n/ASHAjmHPOe2bmOZ7PP9Cr/nK+ed85p/Eq/nsYg6ozUnhkShaBNgVJLEK9cpcDdqZkCs1gkLYMg6ab+JfM5CtK4RFyLdX814pZxBIG1AF2pnvv6dGMtizuBVrw1yU4tqfwiHm1T/eaLBa5pAI7YGe69SxIaMviWqMB3uavIC/DShyg3XozUyB1PqBnOkChSVsWx5oeA36+Iq6AawHIUNqLKTGgDv/Tb9orCk3asjgVuIL/H8zUM5yXCqRsBynyU5kiSUPwhybcevY2SGjL4k7gmAG+RV5e7eKKuJ0gR4WZKZP7pg9g14dCk7Ys7gSabgJ6yR43V8bmAVnmJjCFBoxB/0MAuPeeHs1oy+JKwxn878NIdkxK4cpYjoA0iVOYUkkFffGv2YlnPYKEtixONDTi/4KvaXg4L5WqLwR5ZpuZYrkViYCd/cBlejajLYsLgaZHgF5vzwaumO0ByDQkgSnWq3TMQMDu/PuMIKEti7XA7Sv434E93TGJK2epBrmKmXLCPKS7AULzJT2a0ZbFWEPzYsDONLXaxlXwgmSj+jE1civw389IP3CBbpvRlsVQYJ8B8nKQbz9Xw9oTZJuXwFQxQmiefOWiNaMti5XbZ6YCdr0dx7kqllkg3w6mijDX5hsgNG9QaNKWxURD40HAzuQM56U6h0EH+alMHZG3Gv+rzSg0actiocHfDuiVe+q5Su400MPYvUwlUVqD/37G0fsUmrRlUdZqiLxcx9VybQVddFvC1BJltSPxh+bDG3Q/g7YsilqbXwB2yZmVVq5WykYT6KNvHgtTHZr4P9aU3kahSVsWLQ3+u4DeMM9+rl59OeilxsxUE6xqhBFC00ZrRlsWDU1X0gC73jnrQlw92wTQzcDaFUw9Ya4dhT80P96xBAltmc5am32AnSmz0sY1sCxLBv3YBzAtOqes7g7Ypbe56dGMtkxXAf85QG+Y7xDXZGch6Kkui2kiKDT/Q7RlyjS14D+9LMw53sE1sTpAV93mr2CaiLLJoyk0/zO0Zcry8ilgZ+oZzkttXEOTQV/2uUyjzrzV+YBdXwpN2jJdBI6dBfTSPLu5VkcKQW+j+gumkdhSg/8X59fvW2nNaMtk29dSDtgNmnCkg2u1PxN0ZxpbxrQS5smjAT0KTdqyz5/pcuzveenimll9EAX2ggSmmTBCaNrbijqChLZMFmPkZX2Ia2aZWAjRMLJYMO3E3Br8vzin0KQtk8bfMgywC+dlF5fA64ToGJ/NJBDmwXWA3sc79GhGWyZB62n8r/aBH6eXmpXsgihJnLyXySC2VeAPzfS2DbRmtGVaNRrgcqxzZn0XlyFjWSJES36pYDIIVjUb/4nm0fslFJq0ZVr4jXA59sHxDi7HYSdET02uYFKI7NoxgN4779cgoS1TnZf4Ty/BUWnlkhRNgCjqNqOMSSK2zR8J2J0Kh+anIKEtUy7QaIBX+zhn7u7iktiGmiCauq8UTBLBtsyhE01Doy37M/8VJ2BXvmudhUuzKQ2ia0SeYLKI7MH4Q7Pbx2t0dZa2THFe4v/tJTiqrSEuS2i3A6KtIptJI1ixEULzAN3PoC1TpLF9GmDnHHqoi8tT4oGoSy9YweQRvapW4T/RvP6aQpO2TEFe9gTsei8K56VEGUuHQ/TVjRNMos7sISMAu8R31+hEk7YsIq0XDZCXOdXuEJdpc2zmfWyWYBIJUTwD/9XZ8xSatGWRaG4fBNhlzgrnpUxdbh/ExMDavUwqkVC1aiBgd/05fayJtuwf/GcWA3aJvnBeymWrTIbYGFUqmFydqYPxh6adQpO27K9uX3wM6Dmq3Vy2w5kQK3P6CyaZWDvPAKF56SWFJm3Zn08v8b9vMXOWN8QlC23YBbGzvozJJpKqxuIPzVuvL1No0pYZNS+neY5buHTWBRBD+VUJTLrOVAOcaPZ9cp9Ck7bMmHmZs9TN5bMcSYNYqskTTD5RvMcIoXmDHs1oy4yXl84n3i6ug905EFszstkPkkNzOf4vz936cDlIaMt+8Z/F/77FZN+6DK4H61CIMfvKJKYHkVWAPzTtT+hEk7bspy8tRsjLhUUhrgfXwtjft1tTzH6QH5rdAbuTlRSatGXffWluLwTsnMu8XCfeePg91+oswXQhkrYsB/QoNL+xd6cvUUZRGMDPjDm90TSTMy3TombrtFhUoIVly7TbYkVkZdimRGANtGkRUllkYbSKRWC7oRQZGmRYZJnRvny5MPelL00EfRH6EARBExExlRXBe+895/r7EwQf7+M997xtWRZRfPI+oPf19tIiKStAATH9dzOLmO4FcwG7dk+1v9HUPsvClVcAvX7LUrlVPOmghKE9mWXMNWvx32geP9v8Vuuts5pnWaReDgbs+mSXvOZWce5QZSFlpttkVjFjtz8E9GpefA5pTO8sK659DOhllBrcOqn7QRUBB7NOpGgSuNFs0Llo6pxl4UoSt5cp3ELJ2aCMLtvtzEprAvi3zlZcvaxt0dQ3y8IX6/DXy87ZJS3cQsZRlQaIR/VgVjJjh88B9KqX6Vo0tc2yIIF6acsoTeaWWqfWA9VZDmYp0710PWA3XdeiqWmWhSsJbI4dv2ESt5ZH+sB/tPgcO7OUyQoC+EdnI0VTx+9oapll4XIK9XJeEbeYsbg9qGWYn1nMdJAomns1LJo6ZhmN28ttydxqRb1BNSt9zHLuHAJF85h+RVO/LIvUS9VOG/9TL1O45VxZoJ7+nZjVTObfTKFoNmv2RlO3LAuX35oG2HWeV8itZ+SDgjqkMetFiib+N5re+r2ftUozzbKsuLYXoJex0cOt59w4EFQ0JImJ4M7BPzpbplfR1CrLwlVNMwG7XpF6KYKrH6hpJxPB7OTv21Y0UdEpyy5e2QXYdc4vNLgQd0BR3SYzIUxHT/xFM/7wDW2OZvpkWXGtWnOfCtfLr/LUXek2zM0Ecc9fDdiV1eiydVabLKs6MAOw63cwhQuSqt44xg/LmSCm3R9oB9hV3LmrRdHUJMtOncNfL0fP22NwQVqU2L/YmpilTBTTl4Z/dNZ7eO+nEH1aZNkFEreXizxcmGU2UFkHPxMncf5WwK4s6zn9oqlDllUdiAPseh2dxMUpUnMc44fMWCaOfepmAkXz1ekQcfSz7FSjKotR/9/o/HUGFyd5PCjOFjCZOOaUtFWAXbvjN4gXTepZdu3mI0BvQomHi6TQ/sXWdEkzmUiJuQSKZv1z0usziGdZ1X389XJJ6SQu1DYMS0RW+5hQ9kF94wG7iqcvQ3SRzrJgE/7by4T0VCcXyqXC5zD/bpbJxHKMwT866z1+4x3ZoxnhLLtWR6FeFiVzwTIAha65JhMsKXcYYFdW/4zqsBndLKt6TODtZamLi7YhAXAQNf4fXTS9gN31BqJFk2qWBZvwr/ZJyE81uGjrVB74jzaWiecoIDA625HmjSbNLAvXXQL0MiL1Urg3WwCNdv1NJl7SppGA3fT6Z69D5FDMsnDlY/xvL3ttc3EJ8jHd+w5dwySwu/vGAHZ9Gj6GqCGYZUeaMMwU/FlceqrBJdiIa644M5bJ4FgzFrDz0hudJZdl4ZsE6uUKGfWSYxj4jxa/1mRSJG0fBdhNr39Oq2gSy7IwidvLSL2UouUOth/eiMmSwszuJjA6W0brRpNWlgUb8dfLhPQUg8uR1xmwGZLI/llb0fyZt4LS1llKWXatbpraq2oUHY79LgXh4t2YWSaTxUdgdHZ0NZ0bTTpZRqJedjzqcXJZMjD+JeiQIy/M7G78y4BsAxuoLAMik2XBRizz6q2bnj7J4NIsVn1p2e+NmmoyaXYXkCian0i80SSSZeHawRgPFdEmFHbn8pQg3b1rW96JSeTIxT86S6Roksiy8BkS9TLZyeUxJmD9Y9Ct/3smkT1xLf6iOfoqgRtNCll25BymYfXWPkwSqZcSfcjHW9G3pplMptgxmYCdt+Ie+htN/Fl26GQC1hPFDyuKunOpJuJYWvZ7K31MrthN+G80vTWXkRdN9FlW/qg9YNcxr7uTS+VC9KT8VzEBk8llTyJQNGdcxX2jiTzLgrfx/6MsLtvl5JJl4z7aDptsMsnsBfiLpu36A8xFE3WWHTo5E/fvYIQtq8jgsuXhelL+q3GDpIcZs+eMAOza11zGu3UWc5aV70KfZNA7z5B+KOPr9gN2a5kCfAH0RRNseIsm3iwL3safZHHzPPKTjBuzAb0O8+UfzCIKMvGvNit7YIRQwpplh07gTzJbVqECScZbNuAc+I82169EmLH5+IsmVDeHMMKZZfsu4v9YHPQ5qEKScb6oH1Awy8GU4FuIfxkQnD0fwgdllhU3Anpx2R6uBM8AICF+gRoHM8b8bUXzX7Rl2dd6CejZsvZwNTiX4Z/P+2ZUmiphxnJH4E+z6uYnIVzQZdm+U/jrpa13HleEcwfmgf9ocxKZKr6wd+8/NcZxHMA/cQyTnEjiuF9yv1ux0NyVWy5dVJNLrLWls0XEMJMcTDsVVo1RnJNb5hYbi7HZasyGX752nmd+ymz9YvMPeCrUKacLP/i8P0+v/+F573k/38/384Qc7y6aHTF7ljlyrxG8wDgm9dIQFklyjO+h2Ehdj/9X4Is1QzxAsLLMWUrwohJyNDb6ZJAgM2ewaZlK9U/pLprtMnWWOQWcXva+UcTj9LKR/zm8Df/tWTBRMRKSZoEfHOpdfh0mzXCyzJH7gtD5jeRyetnkZALJMraX4iQ1Bv8igLVmugcDSpY5HpTg/4s8kFO9NAzcQMIEL2X0yUwpvUfKVPzPZvdBiiZIljndbwhdVL89//8WeUv+RVLGMZrFTFKs6KM2D4b/bGYpv+rv4Q8iy5x2/NNLv1Be9dKIsmMyBv69pYUoZlJ34BfNKzUD+e/PAMgyh6sEd3/zLyOzedVLQ0AcSbSbVcs06L0SZ+NPm92vnOdhjn+W3XED/oK2Tb1kcveyhT75JNLsg4obo2gGwRfNYPZFk3uWOe13CZ2fNW6Jxo3/6eEk05Yxip+ImGBCd4F50eSdZY7cUvx6uWr7MY0fUQP/3hJ5DWY00nskHsAvmucrOV8EYJ1ld4rPErrVNn710jAknsQKms/tk5mhoWj2hR+dDS4P41s0GWeZ015F6PxGM6yXBv+suSTXggGKIz1ioYCiWRvAtWjyzTJXCf6609CELI2l8Kck2XiGLbOxaM46gD86W/2QadHkmmV3ik8RusBx+d81luQN/HvrOUzxVD8xGn+H9uC8MJavZjyzzFn4jOAN51kvDf6HSLgprC6ZtyqagwldQQ3Hoskyy3Ir8L/mhGZnfdOYSpezf9GXNCbb/9vS+8+aI6Bo3uRXNBlmmYx6Gc+0Xgra8N+ufYqt+gHRUwmdJS+c26sZuyxzFl4meP3iAjS2/PeQCcxcofiqn7GwL6EreHKVV5pxyzJ7Bf77d+j2WLb10pCzksxgHbtL5l5FM1FA0fx4mlXR5JVlEurl6nHxGmcB2WQOmzhOzP6mD4ieRuhG5KV/9rDBKcscl0TUS66nl036JJFJWFIVa/qwhUGEruDJEjZFk1GW2QWcXlojY/l+828UK2//oi8xHC+Ze4/OTsG/o1kd+9XDA5ssc5Xh3720LMr8rPG2ROL+RV/291e86QOOzyZ0lryHPNKMSZY5LgkYju2XzPj0sskQmfsXffDjOv7fTI/YgX+ieaGWxUUAHllmr8Bf7WONzGJeLw3nyFRm87xk3pLea9MU+D2NVH2TwT/OOWSZhNPLwDPs66UhXOr+RV+ieV4y96IP3YxfNIPzTv73E83/n2UO9yOCZ9sQwHmk7Kfpcvcv+rJR8aerGQvwi2ZBbRdHZ+VlWWHFZEJnXcP99LJJJplOX87j/y2KZsp6AUXzSJeKprQsc5UJqJdPM4doCI7hL4TrugXLFQJ9aBp+0Qwqf/j5k6ezhGWZG39zrFEvwwDqpSHgDJnReAXBKJo7BYzOdqFoisqyworRhM6olwDf/BtlkCkNjtAVBH35phj40dme1U86O2wmKMtcZa8JXdTRfIx6aTiCf6vi7+wdpUDoQ5fhF82LnR2dlZNl7ir8yzS2DeEY9dIQbiOzSmN9ybxV0VyHXzRvv+9U0RSSZXWFJfirTa0T+G6ObaPPWjKt4MMgLdOghyTGELoRnSqaMrLMVfaK0EUl5E/XcOSvJvPaNRQnzJQ+SUDRfGycaHo6ICLL3FX4N5ZsGeEakBz81+B/0HPLCYXDKJpb8H9v0nHRFJBl9lL858o6gel/L30YGAn/x+x/YkkEejETUjQt7zoomvBZ5rqFXy/9EvIHalCSzNwwG0xLhQozo2jux986+/heu0UTPcvcVfiTAbbF6RA3ln77Fmu2K+Vt9NzBfC9ja7pausVC6NotmthZZi/dSuhC1wKs9vEWlkCmZxmrwNSPSVlI6CztnGgiZ9mDimsEL3sPWL00JJu9YTaYOaxegdFXjMUvmleSK30UTeAsK67Cf6Rsi0/ijJT99P2clboRxUzE+mTWdKIZLaBoJl31/AlsltkfvSV0k+OwTi+b5CyibgZL2jYFRw8RUDQHVdf8qWiCZpmIerm9CGk49pfpa6OoW4O+u+FezAz6pLG7CN2Vl5Vf2iwDgsyyuuKqQEJnS0qHq5cNMs24tOzP9k6CDDMVIaFo5n1ofaKJmGX2Z28I3UjIeqlp30+b90p5G4OiMfYytqaP2YhfNC3na1sVTbwsqyvBH46lyCK808tGS9aYe+DfWxDW+H8zfcV4AXc0X3pvnUXLsrri5wJOL+Oh7l62lLSKujU7MB81zPoPix5E6AoyWhZNsCyTUC9Dk2M1UD/Yu9eXJqM4DuBnm3OOzLIt57rPrnQxy+hCVFjYopvdtJuVXYlepNCNigq7LC2SZhYaQQZ2NaOkjIqKWklRmdSbJ3pkrzZ8GfROCDp20cRpc3vcnu9v5/MvCF/3fc7v/M73Q/hXX5W1bjBomPGiuXUjQ9dcNFt+mkFlmacMf3MsyzkDWi+5KTlMaKPvMJi9jO1Zh+1j6PiJ5t+iCZRlnivP8E8vh+LWS1mOycC//Kq0Mclw4/8tGrTTl5Moml9/wckyCvXSnl0oAzuD/zSM8jYi7WVsx7YV/0QzteRtU/NPM5Qs85Thv3vJZh3ArZey/O3EYSa0E7UnWkKWnkLhRJMXTZAs81y5g/8YeQ/kesnFZYmBf1+Mu5F/mPGiOXU5/MtzzOn44YXIsrwnNxi6ERmFMTK0IjHw79tiyPH/f9h24xdN+723jerPMk9ZLf58Jna95L6Jgf+O6PITwcNMsqaMYehq6qrc6s4yT+nzuQxdj9zJMri04UzogHmpBK5BPzUf/o6mzumo8Ko3yzx5T/CnM+Oz9sM8Rt6RmJX4Hyy7zz6w7f++2A7iP29iv/ewUa1Z5ikbiv8Y+axdcTK8XRG/4b9TK2DH//9hXYZfNC/zoqnKLLv2UtRLdRAD/51LWKaX4DXot8zXMXADzzsq1JdlxwkMx8Znn4Cvl5xlLf6Ni+41HvWSeVu2gzsZOvvjh40qy7Jbq/EXYuRQqJfcIbHh/3829iIRZj1HrhnP0NXUubwqyrJrr48ydDTqJTflFBP+w5SEPf7fQj9qOUNn6u9oUkuWHX+APxw7L2MHhXrJ9cnGn+/rfuZ+EhG2ZPyiaXa+casiy66/x78tsyoTfDi2RewZsX/RH6NHSlT0SjEzdDVPXd6wZ1lxLf7p5ZCiNJmKE/gTfqGxHXP7vy/R6fkMnemyozG8WXb1GX69NGRPIVIvubgFTPBLwu6eEhmJ/fCLpn1ovfdL+LKs7B3+cGxOIZV6yVmKxDiGv8ZYJUIGr+nL0NWUuMKVZcW1+DdlBmyjMYfxxxExjuG/TYkSIfr0+QydqcbRFI4sqyZwesmyp4Cv9mkrbi8T/GbaQGD8/x+J0wnc0exf7w51lnmuE6iXeynVS84yE/9vEkp9R0m0UCiavUs+eUOaZZcI1Mse50jVSy5TjGN0zRJSLZPTW/FHZ3WXHU2hy7LqZ/hj/rqMyaTqJRc3lAldokui1TK5aAInmqnn691KZVkE1MtVR8bJxFheMKGLoqYTGsz4refgFPyiOaLEFYosK64dxNDx08tYmZjYA/i3+0Nvgk0ih0LRNPATze7OsuoH+GP+Bnr1kksTz2EGYjnwS+adFM3FDF2qs94dcJZFSr3cW0hnzL+VZRYTAmCiNP7fQmsjcEfT/tTVfVlWfBJ/qnzAtj7k6iUXm4v/TyY8jL0kivTpKxg6HS+a3ZNl1Q8GwW+TMWRTrJc8ynbgz8iEy0aKP8y4Y9Pxi6bJedPtf5aJekmBZQYTAqRbJtGkTSRQNFPrypXOsksn8U/JBhSNo1gvm2UwIWAJ6RJRWusihk5T86hRySyrfoL/oSw+i2a9bJaJvw0znEaTm5htsT55IkNnqLzpVirLPLduwH8oY48zySaZ3EfsXwyKZo5EljZ6mZGhM9S5lMmy4pf4H8qG5Fqo1ktuOP6/mvAaSGb7v8+iuQ7+HU3NhUeNwWfZ7fv4SZaalUY4yeRzomEGayy1S+ZtaJM3M3Sayo/uILPsSm/8//mnMiknmZwm9i8GTbdOIi06Cf+OpuazyxtElhW/ZPB6r6T7oeyXVUwIWtRSiTbrNBNDZ39VEWiW3b7I4MUvpPPEkm9rRcNUgpHOG3Md6LcPv2JVVnkDybKC0hEMneFUoUzcEfy/kipollC8ZN6Gfhh+0WR3y7ucZQV5Jxk6zdGVMnUWsX9RIVHDGiTqrNMGMnTmV5aOsoxwvRxObQd2e7FZomEqxbhFIq9h9gT4+QzmrPrgf5adLcVft2g4Tb5ecgdEw1TOTrrj/620KQn4afa5/IN/WVaQ95qh0wzJlSNAXH8mKGZg/nopAozcFMXQJbyx+JFlBSTq5UL69ZKLGY4/x6wmxtn0P5k1S56AP59RWfXhf1l2thR/Eda8x5FQL5v3L4qGqazNg6WIoE8y4xfNu+WxnWXZWQKnl4YhK0mP+bfaIa6UK0yzKCJaJtdrUQJDZ3/Vx9tRlhVcxa+XGvuLiKiXXEUOExRm3kB+yuyv2ZvxP5s5qyb5zrLb1/Bf8I0/HBn1kouZmcoEpU0YJUWK6CQjfNHU8aLZmmWk6uVP9u6lp4koDOP4QbHUtLbaiPVSNSpWBes1sRDrBRtTLxVvgNVCalAMIdEuQC0SaoyaKAluSIwLF952GqOJ8RO4MG7cnsQz0RWbbkz8Ao60QDsdImLncnif34eYzr/nPe8EqOSlqi3AoPKaHJwK5XCX/BcBHn/2jZU8y9S8lH+1T1Vw4x5Bhi/LwAC1dVT+MuNc4f275A/N11/9Y0XPsjdP5P+RjyXaBB3+Dul/e2xq614agxnjFMf67dKH5up3z5yFZ5maly+Z7I660nN8tU+pEXyl3CiRdYQeZmpodsr/saaPnzxjf55lD+59kP9OH6m8VDUPMzDI6iidylQpvLte/tB8/zX07ceb5/JPKcWGhwQpr+IMDNMwSOnFjHNlebRB+osA1S/CT98y2R1ZNdc3x2q501iLbaSWTbQeZjx3+IT8H2vaLf/b5eI4rbxUDWBpmbHO3uW0qKF5Tf5HgeRiiaGfghjfcQaGWpgi9ZdZITS3Sn+iKbOjq5J+QY0/iYF/o9UT2MuolbvcJX9oSisQ7xX09GFpmfFa5/QHM/Up/HQLQtMSwcTQL0FP8wEGhqveQa4y86G5k4HZas4niZ1e5oWuMjDBJUrj/1NyGYTmDCAvK8A9Iv9tMzl0rSX5MENomix449Z3QVIYXyk3y3pqgxkFyrqeSwzMUbMhSWe1T6lQBwOTbD1EZi+jRm7zl+0MTBCIh8mNlBU4r2DDv3kiK0hWZn50FqFpPDUvKZ5e5t3GwL+ZeujsZSwPzShC01g1+2ieXub5cKXcVLXdVCtTlWs80cDAMK72PVTzUuVPY/+iuVrobP/X3Tp7CqFpkOBFksOxk9rk384km2MEx/+LQ/P6LgaVV7WP4N3LYh5cKTfd/NQCTplyuRWhWXGu9jDplzIRSjIw3c1GTprCT0fk/yqwrQQP0FvtU8o9hA3/VuikOf4/RVm7vp5BpdQMn6Odlxj4t04d7cocD81jCM0KcXX0En8pEyJ0koElFq4kPJiRp8zrjuBEswIWH78lyHOOYv+iVSJeTh5CswKqsmmfgF4M/FsnSr4yOVd441mE5n9xnUReYuDfYtWD5CtzPDT7mxCasxY7Tuy7l9NwphlYaNcKDpwr3jqMzs5OVSLtESCE+zb2L1qrle4lc21oYhnQLKxCXhZ4sOHfaikOfyiO7i6E5j+KbUReFrj3M7BYQ4ZDITR34ETzn2SRl5P6sH/Rek2kL5lrQvMOPm8yY66rA8jLCZ59DKxXx2EyNPubGMzEmjjycoq7nYEN1O7lMCG3CaE5E4lHyMsio0cZ2MG1tRyKQrMHofnXvLyPvCwSxv5Fu7jDoTg0BzsZTO8ITi9LObF/0TZW9xPf/qOheM8gNKeVuNIsoNg5BraxE+P/Go09tQx0uJL3aW+OLfcQ+xftpHMRh2JqaJ5goFUd7xNQKpRlYCNVZ1CZGor3wjUGJbJXcHpZBvsXbWb7ZQ5amShCszQvBWgd3MLAXk7hknkZxXEIJ5oTdre3uQVoNZ9nYDdRVGY5xZtqYaBKjCIv9WxkYDtLt+FhpidzfSkjL5DsFaDj0RIG9lOP8X9djm3UTzR3d/Q5BegYwMC/PbXixUyf9wLp0dmLI8hLfc6LDGxpWSrHQYeyKHOd7B1N17mwAH3JIwzsaedmvJn9Zu9edpOIwgCOf0ApNWqlUOu9CIgareIlKRqoWu+XekEE1Go0DZqmie2CVtsqbTRxoYluTHwYd77FLCDuXJv4AvoCDHMBOufw/z3EMH/m+85p4vLu3vyiOVQq9vxl5E1VOeHfswIzXMvU1LZ8D4bma/KyuUEG/j2s7wCV2dTWw732RXMveWnmSUjgXWNZKtMsNHvp1NnQz3Xy0sQ3Vso9LZDj9H/z0OyZezQfrpKXZjKc8O9x0VlezMz4dy31xI7m/7xkY8lUisL0uvQif5mZupzVPzRDpZVjdZj4W2al3PvuHOLNzFwsPyZaW6uRly182iPwvOhNA+aCuxIjoq1weZy8bGHHLQpTBcOPqcxW+s/oGpq+qY/kZSu/zo0KVHCkQmW2FHuhZWiuVcnLlv7UWClXROAB5zK25j90KSCaCZcnycvWJp/7BGroO8CLWS+G5tQceWnBr7uslKvjzW4eZlbEF4+KNibIS0v+MPCvksBMjIeZFf5tS6KHD1/JS2tWWClXyr6EAUv6K1qE5s8Mu5fWDJQYx1BL+i2DGRbtfJEWxU0UI3VY8vcrA/+qyV2hMi2HZkLp71pXFwbJS6uKSYFiorNBAxYFl2dEWSXy0rrBlNI/Wz1qJM+LmZ3QVPSL5ucicxg2lG8I1DO/zMPMTmheEvWEyUtbqgz8KylQ4FxGO4KHlQvNVIZ7L+3InBcoKfrMgB39au1orpGX9gxMM46hqpNnqExb/LElZXY0yUvbVg8KVHU7ZsCWYCUnKvCRl7bNMfCvsMAJLsy0q1+FU2eTVeYw7Dp2l3EMlQ2zZO4gNGf7xNP2L0TIS9u+8GeZ2nKc/m+f39OhGZriiiUHVh4J1JbgXEYHgt4NzWSNP8ocGJwSKM530YADsYInQzM8fYyXMge2vBQo79QuA04sey80h1JcseTMOucv6uA94//O+PMe29FMVnmSOTPJwL8eFhnMcCh200OhGZ5mDsOhHWWBFtKHDTjTODPvkUWAoXfjdThUHBLo4WncgFPPjnrgaRZK1upwavyHQBePOZfRufjNEdlYvqvTv+twKnJXoI2+igHHGpX5qGygoVuTdTi2pSbQyB2WzF15nN6w0Aw9ulCHC5m9Ap0kqExXYoWNCU1f+BVzGK5EUgK97DbgSuVOn3TdKHnp0gAD/9oZozLdepaOSldd38PXS7fmOH9RPwWWzN2KF7ZL94S+v2KL3K3IQ4F+3jL+71p2fkS65Np5hmNdG2DgX0vDhwy4lj+6T7pgdKJah2vrHphzRgecpTLda8TfD0unhfaze9kOg3sEeuL0/7bI3utwaB68lanDvYGSQFPRZQPuNfz3xzoYmqcn+HrZHqsCbZ3iKLO2aGwrbPJJR9zYfI4bfNtjnPMXdXaJymyPRja3XTognCIv22QH5y/q7biBtmgE759se2iOfl6to00WBP/Yu7uVqKIwjONvDZmDk8XoNDmllVmmDvYFWuRHUiI4ZqVYYFmaKSJpB32QRiMSHhTYiXfVFayDvRCqM08EbyCVMRV11FyLXK7/7yIe9jP72e8caMz/jdHlrVfEpKN5DdEAhkxVCA62+18UzNA6YbJonkhNBTAlmhYcdC8UzBXNq9cNFc2W9PhCAFMi3F/0QLhZwZi58s4q6uX+01UiOPjq7imYo6v3XjTPpSYCGNTE4N8LBaUMM0zSOWWVBbIHFekZ6qVR8bZDAh/EbmsFg+aO76FoHjrNONa0Gf5DzheVDDMM04m+2D/Wy4tT8wGMGubCvzeKJxlmGKaPlFWGZNdupAdJMtOijTRMf8Te0TJNmytqTe62Xl4Y4e2lea9vCPzRX06YGaer+wplF860TfGbv3lf+aTcK6H7DDMyzE5nR0OyQy0fZgKY18SFf8/Eunkws0CXdyZlR3h7aUfuA95h+ib5ijDLwnLRPNM2Qb204s4JgW/6zitYoHM62kOSVUvvNElmR229wDux0ucKNuiiyWuSRT310pZoW4HAP1XVtEw7tE68LOTt5X/wnYbpp4cMM6zIFE3ZzKXemdkAdiyM8Um5p4qHmP9bo5uH+mWDb08Yx9rTlBJ46soAD2bWaJX4EZZ18h7z7aVFkaecxfbXaDNhZo/O6X4oq0oapwPYM/s2T+CvVv4w05ZM0bwmGemn+QEsqukVeCzcrWCRVtU9hcv18hlvL+2KjzD491v/TVqmVfrUYtEsSY3nBrBpdpyjZb7rOUuYWaX15VLqpW3ztXxS7r1YGcMMy+Z+/vodwKr8x9xfRDLBg5ldmiyzbpDBP0TqmP+vQ5Y5Z37iggASes9dxrXIMuc0XRRgUdUnhVVkmWviT1oEWNLO/H8Nssw1XQz+sWLyFGH2F1nmmJpGATIKHx1WyCDL3BJtOCrAiv6PPJitIMvc8pnBP9bqOU+YZZBlTqlNC7BGcQfz/wyyzCXRZwKsk7ypsIwsc0ju9CUB1qs7q7CELHPIMBf+sVFpjsIisswdUQb/2EQ4wTBjCVnmjPgb7i9iM5XHFZQiy5wxxhwDm+ukZS4iy1yRz4V/bOHkwDEFsswR8QbuL2IrySIFsswNkS7uL2Jrt2iZiixzQ369AFsKddAyyTIn5DL4R1bhVwpk2f4Xma4QIJt2DmaTZQ6oYY6B7dxVIMv2u0hKgG2cTCiQZX/Yu5uVqqIwAMMrLDzRocCfzMDKshLLTjaoQWaYg/6xtLSiksQaCOngWIETadAkqIl305Wse2gSeAONG3V+9tp7Cc9zES9nHb7v25lbvh/gf76MRrQsa9+MY9CKZxEty9mQ+4u0ZORpRMsyNm/gn9Y0Lka0LFtNn8OkVdOu/2hZtvrcX6Rl/WO+ZKJluXJ/kTYMuP6vZZn6cCpA6yYsmWtZlgz8056eRa9MLcuR+4u0afBORMuyM+PCP+2aMv6vZdnZMfBP2w6semVqWWZqvwK0bfCVmGlZXpbuBWjf5fGIlmXkhxcmnXniYLaWZeToywAdOfjpd0TLMrF3vjdAZy6d9JeZluVi80KATm2ciGhZFtatlNOFfuP/WpaJ2wG60HgvZlqWgT8zviFHdybcZdSyDDSPBOjO44iWVW3yc4AuDSx4ZWpZxfZe+4Yc3bu2JmZaVq1dR8sowqq7jFpWqevfAxRg5KwfZlpWofqjAIWYMv6vZdWpb1oppyjvTke0rCI75wIUZc4HM7WsIkO+IUeBGltemVpWib1lF/4p0vSwmGlZFZpWyinW10MRLSvdrJVyCja48jaiZSWrfQxQsA3j/1pWtvr2mQBFe+Auo5aVbN1KOSkseGVqWamG5gMkMHUzomXlqe3eDZDC6rGIlpVm51aANMYMZmhZafqWAiRy+IpdJi0rSe1ngGSmhyNaVob6cxf+SWnOXUYtK8XswwAJ9Wx5ZWpZCWrLAZKaGI9oWWr1pvuLpLY4GtGyxG68CJDailemliU2aaWcEjTWIlqWUm27N0B6b1z/17Kk1l34pxxXjf9r2b8M/LMvHbdk/pe9e1uJKgoDOL7EqQymgUQLKjOlA3lA60K7sECn6ICgoOKFxZSkF0FXBql0oAsvCuwReq59Ez1AN4Iv0AvotGdmz95rw+/3EH/22nzrW1rWPdXtADlZdslcy7qlunctQF7qTpla1iU1G/7J00KClnVD1cA/ubrnkrmWdcXa3QB5WnXJXMu6YP5HgHw1ErQsa302/JO7gd0ELcvYfoDcvfHGnJZlbNb+RYowmqBlWbps/yKFqBj/17JM2fBPQcZcMteyDO3Zv0hRvl1I0LKM9Nu/SGF6tn4naFk2HgUozITxfy3LyM71AMXZNP6vZZmYsX+RYk07ZWpZBqq/AhTq/Fsx07LObV8MUKxlb8xpWccODPxTvLoPMy3r0KT9i0RgYEHMtKwz688DFG/sjphpWSfWbPgnCr0vvGSuZR2oGfgnEoONvwla1qY/S06YxOLjrlOmlrXpaN+VcqLR++pxgpa15d3DANGo3PRhpmVt6Vt0wiQm41f8MtOyNhz/9IYccZkb9mWmZS07+n41QFQq9QQta1Xt07kAcZn64JSpZa3aeBogNstPnDK1rCXHO66UE6GhlTMJWtaCmdc9AeIz0PBhpmWteG8tNnEaeyBmWpba8eGNAFHqXR0RMy1La+9LgEgNTidoWTqTL58FiNWE8X8tS2n7doB4bdrLqGWpfPWGHFGrjNrLqGUpzN8yjkHcpmz/17IU1g38E7s54/9a9j9Hawb+id5Q/WyCljU14w05SmBwy4eZljXVt+GVcsrgvu3/WtbUZxv+KYWelZEELTvVrDfkKIlLDYMZWnaq/iX7FymLcZfMtexUh8YxKI/N4QQtO9GBDf+UyNC0vYxadqLaYoB/7N3dSlRhFIfxBXsfzNBujBmH0eigT7J0rAxMkbLIoCbL0ZBALezDIYTqyIrC5iA6qAOvoqvozLtYB3YvKagocwXv+j+/i3hg7Vmz3oTUpxy0rFdpi3UMpOVpn4OW9eiyjoHEZBus/9OyHpVVAxKTjzpo2XGN56xjID0jlx207JhfPFaCFLVmHLTsiMptAxJUm2f9n5Yd0Vzh/iLS1P/AQcsOFJuPDEjTK37LpGWHxs8YkKhsgSmTlu1rXDIgWbUvDlq2p9ThYxlSNjbg8mjZnltcx0Da7jNl0rJdDe4vInHZafmY0bLdCfOOAYm7Jn/KjJbtFF3WMZC+1yddGy3bqXJ/ERHMuzZaVmwbEEB90KXRsk3WMRBDW/vzv3zLKmcNiOGiK1NvWTFtQBD5Wxcm3rLiIxMm4vis/Cdz8ZatXzEgjOyZ8Ccz7ZaVuL+IUPJvLku6ZcUcF/4Ry7Du+r90yxb5SzmCySZlXzJXbhkL/4gnX/rnmoRbVpplwkQ85SHXJNyyzk0D4mn/cEm6LePCP2LKN166ItmW/ZlmSxYxladckWrLimUmTER19ZwLUm1ZlwkTYdVailOmaMuq3w0Iq7wmuJih2bLGHBMmInszqBczzZbd5WgZYnuhdzFDsmX3/hoQWv+C3CczxZY1tzMDYrsxoTZlCras2DplQHSTA65FsGXrFwwILz8vNmXqtaz62AABI6NaU6Zcy0rLnMWGhnafVMzkWrbI0TKoeDfjQtRaVlk1QMTwmtJTJmIta75/aICKD0NCU6ZYy76eMEBHS2gxQ6tl458MEFJf0lnMkGpZdcUAKWMTrkKpZUWHhX+oeSJzl1GpZT9/GyCmdl3lKROhllVmDf/Zu5vUpsIoDuOnvBETCBHFGvysoNViTW06EMGWUkFBwVRbK2IsWrUiBc2gBLWigtChnTh3IS7BFZwVOHFSyAaEKhglSe91+D/PbxEPOeG85yKc+hGPIU7Lqq0TBsSzEmT9P07LWPhHUO0YdxnDtGyOJ+UI6sLbEOv/UVpWbRoQVOOqBxCkZeV3fEMOcS1GeGQepGUs/COywu09Li9Gy2ovDAhs6rXLC9Gy4qczBkR2U/+ReYiWrc0YENuC/JQZoWW1LwYENy7/yDxAy4pb1w2IbnrEtQVo2Sb3FwGztviUqd+yyqwBsOEJ7fV/+ZYVWfgHdpw768rUW1Ze4v4i8MsN6SlTvWWVrwZgR1p1YeItK88bgN/qyo/MxVu2wf1F4I/HwlOmdssuso4BdJt0WdItK48agC4l3fV/6Za1hgxAt4bsI3Pllm2eNAB/e+6ihFtWvWcA/lG44pqEW8b9RaCHV/tckm7L1rm/CPTyzSXJtqxyygD0cPy+5Md/VVu2zf1FoI/xMRek2rJnLPwD/UwrXv8RbRkL/0B/qS04ZYq2jPuLwACly3ox02xZc78B6O+l3vq/ZMuWWPgHBhpalPthptiy2nsDMNDBVbWYCbZs+8FeAzDYk8OuRbBlGx8NwC7SsmvRa9ncjAHY1aFJrSlTr2WjHC0Dsqg/lYqZXMu2+IYckElakbr+r9ayN0cNQCaF9g/XIday77NMmEBW5yeEpkytlnWaPCkHMku3RlyGVsvWeVIO5JCE1v+lWnbgERMmkEfpocxfZlItm2fhH8inMabyy0yoZZ3PxwxALumOymKGUMvWeFIO5Da8IDJlCrXsLhMmkN/UJY0pU6ZlndY1A5BbWta4yyjTsg88KQf+Szot8cNMpWU/2bu7laiiMA7jb0yEwTSWMklFhX1YIJYaaCIYZkRomRJq1IFkJDEgHUiWlUhEJ8HcUFeyzryFwBuoa3D2XtOzfX4X8eDS1/8eeeo5hnScz/8r0rKDNRf+paOa6q1AzCrSsm3/pVw6strHCnwwsxotm/0Wko71+n8lWnYw4y/LpE4s8c//K9GyL35DTurM91MJrgota+2EpI70Lye4CrRsYCskdWicvv5fgZa13V+UOjc/mND4Ldv14F8qwiv2YQa+ZY3VkFSAu9PoVya9ZfXNkFSIjd4ERm/Zvgv/UlFukHcZ4S2bXQhJBTl5MXGxW9bzISQVZulCwkK3rL4yFJKKM8fdZUS3bOJlSCrSw0RFbtnITEgq1Bj2lQluWX07JP3j+T+6ZfVJ9xel4i1Dz/+5Levz4F8qQfN2QsK2rN4OSSV4w3xlYlvWcn9RKsco8vyf2rLGg5BUjukEBG2ZB/9Sed5eTTzQlu3eC0lleQ98ZTJb1vgdkspzJ+EgWzbwPCSVaJg3ZYZs2V5IKtUz3DfmiC2bcH9RKtt6ggG2bORmSCrZedr5P7BlLvxLGSw+Sii8lrUeh6TyXTuTSHAt63N/Ucqixlr/x7XsdUjKYgx1/k9r2cqVkJTHC9L5P6xljeshKZPaO9CXzFkt63F/UcpoGLT+z2pZ+0lIymeKc5iBatmkB/9SVrXRREFqWd/CiZCU0+n7lF+ZkVq25gtTym2RcpjBadmffRf+pewuz0G+Mcdp2exOSMqu+ZXxyuS0bOtcSMpv/BYiZpSWHe6dDUld0D//IwFQWjb5KyR1RXOd8IMZpGUDq/4NU+qWT58BMYO0bHMoJHVJbWMw/fcQLTv8eSkkdU3zL3v3sxJlGAVg/LWpnIFpJHNmShqEmsqYqchgLKTE7A+ZpSOWC4UajCGEbKEtNFy0tEvqSt4raC10A12Dq+858vwu4uE7cL7ztjNeiJbV3o4mScXpTuKnzBAt23DClIo1GKPHLEDL/n3wl3KpYI0f9MWMAC3rzSdJBXuwD/8w47es/O1RklS099fYMeO37Oh6klS41i/2XUZ6y05mfUNOQqj00R9m9JaNb7nwLzHMoNf/6S0berRMolifAseM3bKTg6dJEsTEGvguI7tlC8tJEsbDOe6HGbpl1e8u/EskT7h3GdEtc+FfYjl/42KGIrfMhX+JpnM/Q4Fb1tx04V+iWaWu/4NbtufCv4Qzsng1I3Fb1nPhXwKq7GckbMvGV7y/KBHNTCOnTGzLDn1DTmJaQl7/p7Zs52aShNT4dCHzQFtWc+Ffwup8yTzMlpWHd5MkqgFwymS27MB1DAms1OZNmciW1T4nSWCVuUxDbFlz802SRLY7lWGILTt2HUOiW6RNmcCW1X4nSXD155cyCq9lza0kCa87llFwLasevU6S+N6xpkxcyxa8vyiF0Oqjpkxay8q3kqQQKi8zCKxl1aHPYUpRrJIOZsNaNus6hhRGqQ2aMlkta3p/UQqk8ThjsFr2bCRJimObM2WiWnbsOoYUy1KmILWs6f1FKZjWzwxBatnHJCmYDuUnc1DLDi8nSdEMMgOnZTXvL0oBtdYYzzJxWjafJAU0MZ0JMC3bcOFfimn3XAagtGznVZIU0pWvhCkT0rK/f5KkoOqTuXiQlq04YUpxbb/IhWO0bO92khRWab34KRPRsnsu/Euh1fuFxwzRsuXRJCmy7p18OmeyZUMnTCm6wtf/AS3reeFf/9m7m9SmwigO4y9pUlIIKdbagCIhpVppVIoDTdAqrQZESZtaasVKVESRgCOR2oiKFAd10El346xTV3AmWUU2oDObj5t7MzznPL9FPHDhvP8L9eYWOjIOgy3r3mO0DNCvXBkrZgZbtstoGWBB40DGYK9l3/nCBExIj3X+b65lLPwDVpTXxoiZtZZ1NxgtA6xYL0pi1lrWZrQMMGPiUVOSMtay1V8BgBlTLzuSkK2WdU84xwAsWaoljZmpluWO+Es5YEs9I8mYallrJQAwZW65KYlYalnhUgBgzJvbHUnCUMu6Oxz8A/ZUS5KEoZZtXwgAzJn41JQE7LQs/zgAMOhqovN/My0r3GV/EbDp9bTEs9KyXJsn5YBV9w8klpWW3XoVABg1+7YpcYy0rLARAJjVuCJxbLQse8zBP2DZ1gOJYaNl+98CAMMuPm/KaCZaNvM0ADDtRtz6v4WWZY/SAYBt9aKMZKFlhxz8A/YtZ2QUAy3L86QccKB8PiUj6G9ZYScAcKA6LSOob1nuIwv/gA/zGYmmvmUc/ANenFtLSSTtLSt8CACcaNQkkvKWZdvsLwJ+/JiUKMpb1vodAPixmZIIuls28yIAcGTvs0RQ3bLsuwDAlT8lGU51y/bZXwS8eZKSoTS3jIV/wJ+pigyluGU5Dv4Bh+4UZRi9Lcsdsr8IeDSfkiH0tmz1WQDg0NnrMoTalmU5+AecWlqUQWpb9vVhAODTVkYGaG3ZTfYXAb82ZYDSlmVPAgC3yjXpp7RlHPwDrlUnpY/Olv1kfxHwbUH6qGzZNfYXAedmK9JLZct2AwDn1kvSQ2PLti8HAN69lx4KW5ZfCQDcS3/pyCkKW8b+IoB/9hblFH0tOz4TACCEekr+U9eyFvuLf9m725amwjCA47c7xzUhNLaaZthqBS7myArWRCGMiGi5WM9YURHEENZeDGolIgS+MNCP4Oc6b278AHsz8AukNWfZ3HYe4Fw3/H8f4s85h+tcF4DfrCfa6TCtZTH2LwJoyzaOYmZay2oJBQB/fJhwDhnWsk0G/gF0DKW102ZWy+JfFAB0XJ88jJlZLaueUgBwpDTWjplRLVv7oQDgL9ZTA1uW/6kA4B/nyk3ngEEta+3whgnguJsZ7ewzp2V72/cVABxjLQ07+8xp2foVBQD/Sc4evGUa07LxIm+YALq5UdCOY0rLdl9eUwDQhTWX0qa0rFXnl3IAJ7DTxrRs9M6QAoDusnebZrRst3pRAcBJFs5rE1rW+s4v5QB6sCsRE1q28koBQA8j5ab8lp1+80ABQC+lhpbesr1tbsgB6GPq4T3pLVvnhhyAvpLLWnbL4o8Y+AfQ39d5LbplNcYxAAzAWkppwS17fkEBwADsWcHPZfkiA/8ABpOd1GJb9por5QAGNTethbZs7ZICgAFNpYdltmyFG3IAXEiuaokty3FDDoArnzNaYMu2bikAcMGqTMhr2QYb/gG4ZJfFtWz0BeMYANyaaWhhLfvEOAYA956lZLXsGxv+AXiQWI5IatliUQGAB2cLglo2XmMcA4A3Cyk5LdvkHCYAj6yrUSktW2TDPwDPEvNCWparMo4BwLuPYzJaVudjGQA/KlEJLcuzfxGAL9ZqJPyW5XYUAPgyMh16y2JbfCwD4NfbaNgtu31GAYBf7yLhtiz+XgGAb3Ym1JbFagoAAlCKhtmyDVsBQBDSkfBaFmf/IoCgFEJrWeyxAoCAzFwOq2V1BQCB+cXe3a1EFUUBHF+eGW2GDseY0oOmTQOTxslpEMEJBEM8RWAfauMHRNpkDN6IF0n4gRcxeGG3vUSv0YPsd+gReoOgc/ba+wj/30P8YcNaa78P/LQsmhIAsOfES8sq3F8EYNW9UQ8tC/sCAFb1ht23rDMjAGDXpvOWxd8EACwbf+y4ZeGyAIB1yYjblp09EACwrrQaZG0ZA/8AimN60mHLKr85WgZAx3zdXcvOFwQAVJTeDFy1bOW2AICS8oajlrXWeGEC0NOeMC5aFh7zwgSgaKiXumjZ1S8BAEXlZqDfstquAICq9jOj3bLKES9MANreNrRbtvVQAEBZ+XBPt2XRDwEAddULo9my1vYrAQB9yaxRbFn/pQCAA6VuqteyDivlAByp7qu1rPZIAMCRg1Oj07JwhxcmAHc+NnRads1KOQCHxpp7Gi1beS4A4ND8krHfsniZs9gA3OrVjfWWXfLCBODY9OrAdssW+UMOgHNzF8Zuy2rvbgkAuLY+Yay27Ccr5QB8+J5abNmfK1bKAXjR3gjstSx6LQDgRXJqbLWscjwjAOBHt2GrZdeslAPwZnxzYKdl0ZoAgDcHS1ZaFn/g/iIAnz6PGgst+8rAPwC/miP5W7b4SQDAqydPc7esdSQA4Nn6rMnXsvD8jgCAb4dpvpZ1GPgHUABjJ0GeltW2BQAKIHmRo2Vxf0EAoAi6afaWnd0XACiEu/vD/24ZA/8AboK5LxlbFu8MCQAURa+RqWXh1pQAQHE0gywti3YFAAqkOpmhZRUG/gEUTFL/75aFl9xfBP62dzcrUUZhAMePzkjToqDM7IPoEzQKRDcFfcAQVJClqZNkBJUwRItWLTJrEUG7rsHuqk1no8vZSN5ABFImozPv7jzw+13En/e8POc5lGZ+sGrLmsYxgOLUVyu2rGHDP1CgybFqLWsfSQDleT5YpWVvjGMARaotVWjZqP2LQKEmxvtv2e0EUKjZoX5b1jKOAZTrTu6vZUdvJYBijZzqr2X2LwJFWz7fT8u+3UsAJVvIvVvW9BwmULj649yzZfYvAsW7erJXyxYN/APle9mjZSvnEkDx6pfyfi1r2L8IhDBxfb+WzdxPABE8Gtq7ZZ+cMIEgznzu7NWywxcTQBAHV3P3lm1NH0gAUUyd7d6y9t0EEMbAw64tu/Y0AQRybK7TpWUPvFIOxLI8nne3bPPZ5QQQSu3Vod0ta7lSDoRz/ELn/5aNvnDCBOKZvJF3tmxrxpVyIKCBmyd2tGzzgzfkgJCGX+d/LWu6Ug4EdeVd/tuyJ36WAVHNjuXtlrVdKQfCqs1vf5eteEMOCGxkKf9pWWPaCROI7O37zvrGz0UD/0BsC1/WN1qnE0Bow3O/vn9MAMFN/fjqZxkQ39paAgB6+w1RA8pR1BavDwAAAABJRU5ErkJggg==;sketch=1;" parent="1" vertex="1">
          <mxGeometry x="506.58" y="139.36" width="73.42" height="121.29" as="geometry" />
        </mxCell>
        <mxCell id="0nW9vHeMUiIk-B38lYcf-5" value="" style="shape=image;verticalLabelPosition=bottom;labelBackgroundColor=default;verticalAlign=top;aspect=fixed;imageAspect=0;image=data:image/png,iVBORw0KGgoAAAANSUhEUgAAAMgAAADICAMAAACahl6sAAAABGdBTUEAALGPC/xhBQAAAAFzUkdCAK7OHOkAAAMAUExURUxpcfvHVfrGUPinBPvURvirEfvIVf//T//WAPqaPvmrEfm5NfezMvm3Mv/BOvvETPq0KPmzJPisFfnBRPuyHvuxGviuGvq2LPm7N/uuFfzKVfquHfzFSvmxIPq/QfvDSPqxG/zIVPq8Ovq4L/yvGvuwGvzJU/qtFve1NvqwG/3GUPm+Pfq0JPirFvqwHfzHTPq+PPvBRvq9O/u2I/vDRfuuEvitF/zKVP3ETfmuGfmrEPzJVvvHUPu2Kvq7NvrAQ/qvHPy2IfzKUvq4L/zIUvq5M/3KVPvKU/q+QPqvFPm+QPywFvqsEPq2K/q+QP3KVPvJVPq8OPm6NvzISPrDRvmvGvqvGvrFTPq9PPm6M/q3Lvq5M/iqEPq8Ov////q9PPrCR/q6NPq2LPqxH/rCSPq1Kvq2K/qwHvrBRvq1KfvDSvqwHfq+P/q6Nfq9O/msFPmvG/qyIvvETfvFTvq/QPvFT/q5M////vmuGPq+PfqzJfmtF/qzJPqxIfq/QfrAQ/q3Lfq0Jfq4L/qxIPvGUPq+PvvDSfmtFfq7OP/+/fvES/mvHPvETPq0KPq5MvvHU/usEPmuGvq7N/q8OvmuGfq8Ofq4Mfq3LvrBRP3HUPvDQ/q0J/qwHPzIVfqyIfq1KPq9Pfq6NvqzI/y5LvrCSfvHVPvDS//9+f///vq/QvmvGvqyI/rARPzIVvvFUPqyH/rAQvvGUvutFPu1JfvHUvq7NvvDUP3cmfq3L/q+QPmsE//35v3hqP/89f7uzf/78/zNav7sxfu8QP/VWv+yEv+4Ff+5HP3bl/rARv+1FP/NWP/SWvzSevzKV/7tyfq8N//NSf/RTv/CMfq9Ofq4LPvDTfvGWfqwGv+/Jf/ALP+7KvzQdP6uEf7y2fy7M/q1K/3ls/uwF/+8IP/TVPvJYP3Yi//NVP/57f/OT//EO/vIXfrBR/u/Q/zLZv3env7EQP/KRP/KQP/IPv/AOv+9Mfq/Pv714PzVgf7pvvvBS/y4J/29N/vASP7x1P/++/qyHYs8RYgAAAD7dFJOUwD//AMD/fwCAQL/Eg0lCvz9/P38n9n8/f2E5C8v/P78+4P8/TnGnrQeVTn85RZm2IVWo/f44v7yFkzsTreESpeR/di8y83Dkuf5xfOj7WZnq+yx/uOVdHTj8efazT3////////////////////////////////////////////////////////////////////////////////+/////////////////////////////////v/////////////////////////////////////////////////////////////////////////////////////////////+j5aiDAAAEZZJREFUeNrcnFtIW9keh9chliSNioqXhDQgakgDKp2KgkJFER8G7UALLdMLERMSCXPs5SXxpBZMSrGhGHrqaB6URNOH0ONDOMpoL1rbIUkbkA54OsbrVENF7GmFM0qnrW161s5t77Re9to7Jrv9Xqwxe2V9+f3XbccKQOzgsFjswD+4RcLyYkG95GxWRcX+EBUVWWcl9YLicmERN/AkNovFAcyDE+pWqlAqkJyt2DfvxJifvxEWuTEfemhfxVmJQCpMJV7FIAvsS1G5QFJ6w+PyOOdv7AuxP0L4kRvzTviU/aUSQXkRdhVjXIIWqQUCcYXT5Znf/7nA54R+Pu9xOSvEgoJUhriwMQuetL7U6YJVs7PCFzrz8KLSeikPc2EnNgz4TiZL6ys8Hid5h2gbp8dTUS9NDjWWELhYGAVVpU7PPAUJgsy8x1laVYDFwk2QBq9YPOhy7svYd48WsAGna1BczEuACqaRIij1eO5lZNyLAbAVj6dUkBJnFUxDmFnncmZknI8ZGRlOV12mMI4qnIDG967BWGoEVQZd3wdU4jLssaKCGudjrRFUOQ9VUgIvstfrBlzABXWu9r3QCKq0u+oERYEX2tuq4hSXxr6oPi+w0mLOntYXDLxAjA3x9j0FG/bigr2rLxgHr2rJs9caQRXPUhVvj0KB7095lqssDhoBlTJXVvmehMICySc8zjhpBFScnhPJMTfhsEEBFselOIKFUgDYnBiX1clcT1w1Aiqe3JMxLS84yiWuS3H3gCaXXBJe7ExYQJjlzi5rSQBl2e4sYYxM4KwrrfNktySIbE+dNCbzMJcDBK6lspaEUbbkEgAOl/7eipUJy+rnBALLK5NFd+8FVw+JO/vnBJPtltBcUVigSOzO/mfCyXaLi+iYsMDBLCZ4YCZZB6mbsEAK9PgXI4AmKVRNoEehO/sCQ8h2F1I0CdbVhQvMMaFWXWxQxCiPgEkR+izM5STD+eo6o4BzVzLqyshhsyRM88BMJCy0bT3cX2X6cnsZR64vE23fxQICX+5PzKMp1ydAGfBwv+vOvc5AkZ+u57ql5E3g+aPEwcRAILmOEtLnEy6Xl+UWNTEUkTuLx+WSHOgSH2M9mq6LfBJyA54FTvpECsaKNClEvpNkiosFCqotVxQM5oqlumB3Ew47GQ4QBaOBwyR513WRBU74GO4BTXwndouEBcp9ostXGM5lka98ZxOssKpFVxiPqHqX4mKBqmnR5a8A0XTVTpFgM5bt8lchYttx5mKzxD6R5atA5BNv/+srLFA8Lbr4lSCaLt4uEg6XV1iNKDJgI8nAwECMRaoLeVzOdocQ5EBIH4kUCsuADhI7H9H0NkcTLielZGgADd2vZNGYOxTtg+0tTRcDNrFgqCRlyxN8EsicTreh0Oq4s2InyfjKmwdv1yZedra2D3ov6vWtNrpcTJ/OhJ3eOhBdKwo6R/e4DJGxhcWJd/p2r61H30oT3daRBAJpRRVZ0ZLGaPT7/UZMxriwNmVt79X30DTZMhIKgQQT0aIlooU62Nc3jz94W3Q9sY8kEIgOEYsGWSQkA68yvn3hgCo6GmwRCZdzsGQoXiKB8sJyefracaGDhkr6UMnBzyJJAkfQA6EjAsEGzNOplisddCI5Eh0JByQXvk/XI9JjI4ho/TthNGq3MDZCldH+JWuPniLp7wuTAScqkOJpZI9oEVLl5Dd+9nT4/cpDr01N2QTuuIiRcIF4lpYI7M+jnXiwcH88+Ey/P9oFjpVFc6+SqsisGHCjbi2+1/Ug04GL+GWPWhzbo7B1mDuHXy8vLtjDAx2fw/yyhXdeZQ81dO+JNx6TQNVMOl0Rm9q6LeoOve6iwuv1Wp9MLK5gz9dGhTL+sIWiSfpMFV5b2FCfTetAp7WZIGJR7/Js5fPnyh6Lt7d/7q0xWgV++5dX2UGFtFnCcE8C5ZQ8EEXCNroLTe9GxwLdx5dI2TJlk/JIJHBVn0mzoqPWR4uQvUyldHhfjfqJocCBsuxVUeiDNW0msrpzAO/obJoaHaW+nzhGlOSvVMlt3uFHxFACJnIKnUibPcoL1VYSkM5Q8aAhgqk4bH+Ny/xEkzlqJjPSUCSByoq3iFotV3rffSSaGO1/U8ipiIRqiwNS4ZylpMDzaJHnqNebLfJFgolRdr9fj9yIEs5bqYHaYoECah60RZTyDsUawcQve+uQKymYBO/VwY3vTIJElPLnvcuEycsvm/Ca0UVmgltgDqiZyVFRQW69RhDRt1Fpos07gmeiNY6/0stR28iZqcFKiwOKjt5KmAg0+TSKm2DFhdxMzq2jRVAjCVRSDCQmIiq5yvoUX0/8stcOM3oklVADDpHJHDk11NEi1Box6/tWIqcuo+yjErmFnElskLCxIZJIEfkdxUO8uIyyOcUdVBE4SNgApJ6eTawINMGXE6N2ATmSnNnT2P/4Fba15bRRwqzqJIgMmdsoYrZGFddDiwHteth9IRSRTiJ5mA0Rutv6cJGn6m4DVTSW5ch4x7I14T8i9e7kTEqhyBEkEbMKP8Baes2ERJYsDsp80i+E72JotfYPLbbIT9RmUiJHoMjxyRwzae6obj8msGYPL2Wy+6N0WIuIwGgeLY+EX2Bk2GrYvVc5k8cBYNduIIgY9FOyuDLh6CYhslHLhocqRJGoG2/EmyG00Ebf/wph989ZSInAw5Uw/1b+HdJ0xzcReNiydO/eK6ggBJUb+Qjzi2ko7iImEt3K36gExZNIItZ4i9g0ZEQmi+Hs+02IHAGHvw2Rw6BmMr+bPBp1vEVaNSS6lT9ZA2o3EEX2ZvoNf1AaNohMv+RENmrBGUSRl3FeEG3NpETOgNMbJgQ0hicjOFFblMcj9Hg8inffvhZs7fHIv1WNZPq1cRqc+sOEhIHwMYvFFN40wg3SJz0thj69skc+NbK/+jQUfLhNQ6pXf5wCJkQ0zRH6TbdxkaeG/mY69GvuruCf471suxl8WEO2X0BDA8Ndgkibhh7dnfcjW3nZa3Uz4uXMETE1vwmfrrSyh1ZkkUbqNJuIIs+aG2nykSCi/gXxYiaJLHwjIs30ROhMNLGdtaIGu+om4vXoIv04mmgRejQSpl/tlOFa6GHSIqc20TwaCZtO/HYQFLEa6KH6gC+IY09U4TtF5Hq1eQoc2+SjvG/NncM4v0+NRUQ+vhumx4e5yP5TtjL1e+jRPg2ZXvE3j4Ez6/xfyPOb4WXU71wS7hjY6eL/srEx+5yqi0S3+OtnQO06/yZ5ugxx3f1qZROqThLd4q/XgppVRJGo37gkvihdZF825teSFFmtAYdXGZyIn2wiq4fBoVX+NfJ0Gl7EXYREt/irh8AP34bID6By/VsQWa8EB/I2u8hzzhRvkWcNJLq1mXcA8I6t85FE9mjW2rIlOGuREeGvH+MBbu0qn7GJyMglwl+t5QJw/M+8TtI0mF6ME8HfSPt9OrwhnNdlY5HmV8YnDH279yrvz+MAgEMoIlDlCc7tYXzT+KDrLg3OEU6HY1O38Zfo6+okI3IIinyHJtKFL0PXGonbeNM1yjQ8myB8GLrYRngNMh5Q5DsocuAcGg0R+rr+S0jkl74Gqvzn6hv8KKJ9bbqK/4hkpw5gf5b7x9W8c5Ro+I0o0thwjiJ/f7YWCYRKQ3mrP6Zif5EGjvaEilw1vcBvYBtlc6Z/oIrAsc4GSeDQ//KoVURsSuv/1Z1PSBtZGMCfQ5hEEp1DbkNImB6CJAcbERJIqBCCiodqUbCX2gQ8hCX0YFNCLgmUpuAiClsWUkHwkG0JxJLAukVqbUsOW0xtEob2UgpC2jFUbCIl6h4q+94k2okazUz+jb+bknnML9/33rwM73svQLv2OAF57+DdzpXdq+zqoGu5VoosBmYPOGtqpr84ArxFcmiZkwyYbvy40joR1/3v3IVnm/ddvD1+3DAVl9AN5fSLgngU4oj8IaiJlftfOUsBPVvbj3g3oc8NsatMUSfRe4UQoLkiyYCAFtzQY5q7OHPWzbsRPdtFkMit3GJrRAre2X/LPDYFeHgXc7dKq0w7b+b0AQG47pSJuPheH07SqxMejsdnl5d3IwF97mZxATO06cm3QMTtno2tcZb5T0+8+pj08b8Lfb7neG28YVfvEsDK7f/KJo28rg0nl/e3uEvjPYefHGEBd6HfNZREZEA+mGuuyEr40ezHg7Kyi+mJ/VkhHq7c4FHZRTG3mifiDvv+dMRWn3K6OVvSI8zjV2axuZXXu/nj8z7hiNC+ai6J+qNeR/LL6qvy0iQP9PC7haDPG45FZEAxmFM3WMQHHfzRAu1IPtl/c6pY7HDfIcxDnRvk1IZKQJ+QkJSL3A5XxucuBG4nlx3L/m9fD84q3/vk8PsEBqSPUxoqAap5tY834cAHzi/Ec6bxdMAXCbXt7H8/2DssleiWVbx9/rgc8QlDPa/i1ri2g6G8uhYRz8Sr92uV+fl5b+vlRMUSVz8t0EOtzg9xS1yh0/W8vhaRqouOJ04XHb9bXhEaD58+f72s6Bh193l1mC8ujohn+nwqlYFvfkhG/GGBlHf1YkiuppRRnvgLU7UU5iONtdfJQjAqGGXq6om9EtplXb3zaj8/Iu57gkU8qNf/fOelg5GoXyjq+d6TWyWgETilbJaIB3V4z/t3hWQk6K8BZarv1H4iUllHb1DdeBGPp1jN/mJ15w5dm4ZfHeztkElPb/DSk1JG+OH7p2qR0g4vxVFrb/NTKLkYcUZqQ5nqOWPPHTYkkSAvos94R+TwxZvnrydp2m93BmskcmZASiFplIjn6cutvbXN5/tfQnTSG7Tbg7VzVg85Grjsb/m1Zd95XR0739pm7AWapgtB+2Q9LILBt/bTQxbnWcKztUK1rxncUT9UmJx0OoN14vQzhLN129hDpZMX9mrZ3nbWF+XDsUpbt6EZV0rpvCQoU9crBASNXJKhy2KiTA1JKu8hLwG6Uc22/RKwrRnVVQ4IO1FJKy+DiDLdd54H2pR1bPQSmChHxy7Y8VcCrqU0k6JHk7p2bkBKydUrdo/eCxKrmFyd3WKPiSbV3XnxEQtw5CI0IVGjIXQXBoQ1GU9rHoqXkCY9Xo0HkEmARcwmmrQFSKo68aK9Xd6d1fwmUjTZ7iqPJGBfPGIzIjXRzGCqqhLr6PV8lgiJ0SNEZA3VeyATKk08ESFEmuLjgTq8Nk38LjqItLbKjv7ruSixiM+ESFskfM8QlcoUtiwxIyqIrE0h432QlRSYusVlQmS7TUKORZSALmgyJRqgRxevjs4x6SDFY0JkyQ5hHqyJNUvcFYPGXSJrFezBZpeVIe6KAIKxdgn3QCYmW0YEJkTGZqrFA5koLBlsqrUaU1jGoqjNgz2OVpvBiHsthMAy2pqPo0VPRkAxj1toQjxmKCCr2YOddxmMDNYqD4wxGnjOr877fWLNYM9aApaxqmrtHlwT+UjmAfag6WAPMiPy+nkgEzCOM003wRh8HNTTA03rgQ6mV1NVMJhWOiCVgfoCnygDTDODgjHMgKK+4ThOL7M1E2uSChbLWM2gER7sOKwYmGMwLNZwMIyZQ+GQgcYAvx9df4bBYn83lBjGZPp1DQrHcVBkw2R8AZtrINhCnByWNS4cR3MvYKKM8bmGqWBzcSNlAkAKGg0MeIcWhyqx+lvEoAau7WhoVpXlF1BBlQUc/6uu4PgC1FCBRmcV5zU3q2KMM1gdVXCMiRtZjXbQPKQowSgynoBfY1sdgMFNJEgKJZUUNBekIh/u34iv166C4+vxjf5heQs0jhIM6AbIBHLBhUtAiwQ5oANNTqrybg97pcI8glzgHbUt8QRdgyxGzIpSY60DZRiQm7UkvCEUGByvzoH96Dr8AkitWQ5alFMnw4JcOnVUvzEBZYq3iF+ggC9BiYSxn9KhbbklrQ3GSRdgMlMWcikehzobeIk2ThoV2YAK8fgSaaHMJiAmi2MX9n46VQZqxEbCrIGsr69vHAP/YP+Hk7YRyqDq5F4lMuBtFTNdKleZhymtxWYljUceRtJqs2ipYbNKXvpQfSX+B1GqroyF5yyuAAAAAElFTkSuQmCC;" parent="1" vertex="1">
          <mxGeometry x="1005" y="130.65" width="90" height="90" as="geometry" />
        </mxCell>
        <mxCell id="0nW9vHeMUiIk-B38lYcf-6" value="" style="shape=image;verticalLabelPosition=bottom;labelBackgroundColor=default;verticalAlign=top;aspect=fixed;imageAspect=0;image=data:image/png,iVBORw0KGgoAAAANSUhEUgAAASwAAAD1CAMAAADd5TgUAAAAOVBMVEUqWtsnV9vn7PsuXdwiVNny9f37/P////8cT9kUSNeAneo/ad9vj+ekufBWfOPH1PbX4Pm0xfOQqOwGHgbnAAAQx0lEQVR42uydibajIAyGka0gisv7P+wk4NrqFNq6XMVzz5zT6aJ+Jj8JSyCPdAQfJCFIsBKsBCvBSrASrIQgwUqwEqwEK8FKsBKCBCvBSrASrAQrwUoIEqwEK8FKsBKs/Q4JR4IVyKouGyoTrBBUtCp4VlQ0wXqLSlQ500pr01YiwfrvIerWKs0J4Vrbtj6XdJ0MVt1YrhVxBzArylNJ16lggVgxpTLSHVxpdirpOhEsECvjPLA/GPiiMvl5pOs0sCBccGLFCJnj4rasRYI1CxeaAswoI6+H0sSWNMGaipXRUw+cHlwpUzQ0werDBcOfPfBJuuwZpOt4WChWXK1Y1WBdIF0Qdd0dFogV0/wNK0Iyrpk9Ouo6GBaGC1q9ReVxqaOjLnKsB7bzyOqNL/KDE8YDYUlaWqKCUXnpUhB1yfvBEpDb9Glg+AGGaA/r6yKHeSCKFfngcAmjvBEs8MD1IPTtgX1d9W1gicaqj1E56dLmiDCCHCJW/BtUHS5b7Y6L7C9WLXgg+frArsFKyAvDkhgu6G/NqgtSnXSJy8Jy4zaftYFrvlju2U2/Iyw/bqMz8rtDaVXsGHXtBwvHbX7kgdO+Ls3yZi/p2guWoDhus9pn9Y0vqt0SRrKTWDWzcZsABjG4+E4J4y6wRNUaFZMyc855XAa0S8K4AyzZDzJHoGIsClfmuuk3l67tYdWNjetdcG5V2rgoHz69vXRtDQvECj2Qxd41em40rq2la1tYMvaWIRQwvu9YuuExFeWLmthNh8w2hRUrVjigWpRU9NFGWZA441LYTS/+IizwQBIpVno+VN8P6cfgAifezBe3gyVLFtW7gJ1ULyOpKF06Vrpa8edgiSLWAxfzFuoSyqgfyv8grFwrFuWBy2GlBOmK6argAEv+QVg8wgNbKtbzypgUnP9Rywq8P/CyN9M+BI4FBf7cpWGF9UmJqiBB0sUuDMsP1AR1HU7m5t7SsrxYBQduIVHX37Us9m6iR2TAjSNDb6dyqStaFsdULvK+3ASJ/3feXNENMTH5ZF6taAr4Kr8TLJxqlX846AdR13+nVV5MszhXpGg+vyWIutZxXc2yOP9yZjuOQK644sXiLM6/nzGEUdfKCNC1WkPOmx/cjayYupYbsmVY1U+6Yc2ybF3MDcmvYN1Cs34BS9ZXc8OVIdSfWFa15obqYpolf+KG+gZxVnLDOFg/sayVsDRp1pJlGXWLoPQnllUlzbqxZW3aGrJbRPA/i7PuEcFv2hqq1BqGa5ZOmpVaww16HVKctZLuXLU15Fv0OiTNSr0OO/Y6kBRn3bTXgaQ460S9DipZVqhlsdQa3rXXYfM4K0Xwi5aV4qykWanXIfU6pF6HG7WGSbNSbrhVbpg066Zx1ubzs1Kvw6JmLRavSZq1HGelmX8RcdYtIvjvKxtKXO/E77CSlXPz3bYU0pV7WFkZdLm1O1/Vk5ZdIRFGbjBu2BdI/rA8WLc3yJ1WsmJ5sPwT6XpXQeSaq+/9thTRy35bq/9fjuuiq++VzuKkC8XqXZGoq66+R1+MkS4sScnfVna45ur7rjxY6GZguDcID6jUdqkpR3OnwVX4ITvqYElKHlTU7tK1aDInXW98MXxvEHbxKkcgXf9fjC+bPLxu6cVh+SKS+WpfRFz93Gv1OqzWky7rFQ9UURWsdfEna/7pmBrdrigrffVAG1VuHyRL/8ECiY8qtvy7ei16hDuPogcGU4cHtN02MxvC6jbXibCuDEvhT261Lk1UmVJIGvkfLer6kKKOLJs5ky63O0+kB9pNS3dvXFtZNnE7fDAsAegKJAu/NwiLQWX+dCHqR/zuTYw4X6rayL1BNHrwxgXht68HL2nkRh/ORoyKUju1rVjtBgtr7ORRxcoZ4oouBX+NbRmcLwZtvDp1xrhGob3Ohh9DJvzjXXf6TGmv/Q7326QouI8lChXXXxXEOyssJ13qt7iwM2zHPVp33VhNuK2KfodK849LUp4flpMu9qP9wrBHuqiuu2Wfz/cs/wEuzhXbdiuUM8ByAw/q+21G+QEbSh+xgW101LUULhyxVfkhu/26vck/Ny4/UeKA6z5o0203svUZLiz2XdJDrvqw7dxFZMI4ma3U1jfbzr3bIDJ2N9uljYzuAMvP84jbdk1zEKvDWB0KyyeMwb0xfr6gOPBqD4blpUsHodp9j+3TwXITiQJ8Ub3dyOgWsB4BW7xzN4ohHwnWw28Ro//rgeXxqM4CC7elWB1hdGJ1ios8Cyw/TsgXxao4XKzOBsv1db1IlxMrcZYrPBGsTrr4k1jV57m+U8Fys2aGhNHPcJOPBOttX9e+4zZ/E1a/MMAPMp+L1flgub4u4zYyEme7shPCcglj3ojzXdcpYUEGRM94WeeEddIjwUqwEqwEK8FKsNKRYCVYCVaClWAlWPNUtztW3vjoF2noiq75OaQI7ff6+No+hwXno1VTlm1bNtXzDdKmhTc+6F+RTWFsG9TZUJfuHN2JaWttWJeqqOCS2y9mV8bDksDDGqKU4jwz9mlaS2W0UtpGX5AsmdZa5SG0msydw5+W5hl8kZQBtGiuNdesFHvBkrQs8LbwUO5fMps0DLDgMNFDMhQg45SiUgbYIMdzeFiiwS57eBVwRlrg97LdYIkKUamM4UHgLwNiZLJUt7Iq40GXPj8qV2QmC6nJIBvGgatfY09brRghmgQ4IliWYoqVO7mhaNzAHnPVRvHI/Hq30e0QVqaiYckq48HVPmawcoWwFGtkACyliDI7wRIgLArMCexeISeucNQKl+raaoTFP4D1oFgWCwSlCYdFvZkZuAYepJIUy3LsZVmiJG55KXiMKXJsWYpuoRfQogMseD8elrNZnYUJ/MSygAAqmAkTeG9Ze2iWe4ioD9y2VU0lrq7HMk2eVtfqo2V9AgtHV21Y6NBpVtca4hSJwNBhT8uqrWfFpmVGsV4oSnMvGp9aFt5LFRhwzCwLLqGuwqLSHTVL5G4etmbw+Kenqwucy9FrCFoWGZxym+MJVvjT2M2yZOXK8yryUukFLA6LhrEm3LKiko6XDwfCekltPKw9NMtXeFps2wEjxoXuHSTn4yxB68pJ28sv4Rv41ixTkkLg3/AKX0gMgqumaeqZnwEsNmrW8NHxZ/CV6L44AebckE8sy6eK4U8uFFZX2H8x3MR6RtxY98R6y5J1CYJtbf48GVTU0IYaA3lS0Vbje5AZ4NHNMBIVvoDMAPIF/+HpEpSZZXUf7d4WjXslJJzFuC9Ozt9bluy5NvjQmqb+OazSzQNSiw7fMNs2fh5HhZaliqqxuH4SLI7NWypou+D/Ob6nskmFAWjiML7tQoc65xnjpqY5xHIKMkEFSZVcirOAAMOPdiehJoOsoqirApNXBWdixXAOL/CDZdHcuMM2v4YFJwJYajnpg3aMPiZxFrcFLh13s6zULAaiLcF4NvPxv1ZjkYESk9yeADQaGr+Yd+v1M/iZ8Z6e4iz8Yp/wUZ/HN1aPXyzqJc2ScEcaLy9r6a81i2IrB1e48hDkmBuitDHWZ0Moc2a4TdHCfTHiEmHuJiL3dwLZ8dRcCrxXg6Ugsq7Y3yRIf7Is+CXdmwvAynhmIVbOutNDCNjL7Kw1dGYGyWhMXk1CJQssBq6wfWexaFm+3oJ7bC7hGxpH8DUnfBzEzLhsYGhce1hiAot1P+OLHSnet8NTywID4ZOwnDplRS8H0+oWF2vWma/zjk6z3NfwUmLaxlDLclsCgWQ93sPi3pwKSIesuyKetT0DBITT2muKZcpdo1aPmghiJzo39F/EZAGSKoZfG5m/WpYaLUt5a2Zw+hwsc5qdY6+Daw0lyEGmwMSRlfw5LFkZp0BhsJBBQ6EVr1u4aXjlnU2WmXYPWvi2yLoH7X0ULQtscOaGRJMSggZBIc+CO+s/+qxZSrFBFyEfdz09cHqBp2fOHyydWZYAVt6udFzMFWdZOgCWRjrGW750zx0usPKK5XoLe1cGAVOsdy7ZqJkbolAp3i3vxSwbfrXvDv2vZSEsNTSOOffNkhwsCz8qAGIWzyrSslT5XrPQnQYlkG5jPe4TR4i9cssZHdJKhi1nTl8sS6K/jjy8/wK7LrB40ayJZXm1GLIM94wVaeTAFa4Fe5rQB1Vs2cktLIuM3VvoF3yMmqXosmUMnd1j7wl4zdKjZuFbg6CATfKB6xvNgvfMeHr0Z86baSLdNAzzM2AVmyQGt4bG3UxQazjNDb1NTDN9iWJSNW1uM+dqo2WRuWYpPoSzonQeu2BZz5plnk/vf2hiWaYwaMT8g4GLUMuqLZ5hLXuVcirwL7D42AEqwBVza7Av2jXsSvWw1KQ19PdIBsQIC+sAL1rWNOGj+EyfYfEBlqsaBOEyY5+ME0RE8Hhv2tDljrth/PCNZdHWICaFA0O+13DJsqSHNT57B2tNs5Tz80lrOMkzXi2r3+iP83Yzy5Kty16W24+aMcyKl/qzZpYFEDDKxHBR+9JQrC8bjZrFnjRrYlmtQ7miWdjEDbmhxm19JrD4i2X1yxh5uZFmocLj0MTiiKDI0ViMy7EWLYuPKYaTVm6sLfIWsuRVzdLPlrXSGj6eLMs1vv+zrK5G2b/2rrA5UhCGWgWWXUVl//+PvbyAEK3a9abO3MyFL60V1H0bwstLioLf3KFnZUF0J6UwpTwnf1DWs3Z8lkvRDugSJHxWs5g6HPgs87nPYlyLZQFzsRhLy1o2Xffd2DBaQ3sTWPyIHKG1R0qpO/FZdol24Flt5VnFXMI3nvWpzzJ+7bPMsWX5LIynF41d3t/7c7CyEUODdysxb9HgFz3LHFkWUC1f88YRbQPpPZ9lPrEsOPiaRNyshvyk+AAxSZlNvCu7AzLO0f9QFU6K28aUP8+h/YnPSlFA8XoQMuhj+rcE63ViWdtpWFZDaVk9h38nlpUgt6HhoPUaf7iUNzT8//GefHmc29a27RwHPF1X9ZO8Gu7yrKk3lU5D4jSCZ+0w+Cbav/JZ/sBnya4p+rzoti5lpN8JLVpMOCNNJJxYE+eoy02zUrrLs9I0JLOzFPbML35ptt+LDQsp/dmyHhuflcKdE8taON/MKqW/Rc/KlDLtJvDlWeCGxmbSPttFup1SdmeXZ3GEByhDCG/sKskqlVwNz31W6XoWGyYG704sKzgpRHYX+MO1Khoi4E+fq2h8UtmbL2zUNK+U0gMGDwkCkYZh2ZnYVr+1LCMZvLnC4KNUHfrT2DBflRWig3zVr4CF3d2RcSi7GyLr8OxX9Vmp8k+AxdV2LpOFJ3/TCHf8GEb8zPgE1oFFwkJWtsEBIDOZwWrQdbTiBo1IWBDbFJaF4yzwptxGsVc+h6vON4HF+4x2nJziWUi/9atc17byj4gPtWWWWLzVwvM4Yo4TV+JlFTWyMCjAegp9nCyLoqRnMcJa+Qd5UZTztVyVuJJogHq2LL5q8YRu7rl68fMg8XpNqZ0jOfYeRvXVjWOOCetEHYbXUG9vA47LOwCwXRZNvq7Hqw1teFHMk9RQNw1oyxQJw4tGFXfipjdajjBnOlW6tgHjlq72jVOVN9vIA+ds2PwsU1U0+Xi4ESzUYBNnIB8dUK3crpPfdI6ayAK06Q/1eI6RxjGLt6Afua+T/Wi1RKtXsehq7ULuuD3kkZW3lwOZ4ridrvVCrbsPrASYRXv8kEU8sM3D6oJ/aXuQ3wPr/2wKloKlYClYCpaCpU3BUrAULAVLwVKwtClYCpaCpWApWAqWNgVLwVKwFCwFS8HSpmBdaH8ALPQqgFfuecQAAAAASUVORK5CYII=;" parent="1" vertex="1">
          <mxGeometry x="970" y="275" width="73.47" height="60" as="geometry" />
        </mxCell>
        <mxCell id="0nW9vHeMUiIk-B38lYcf-7" value="" style="shape=image;verticalLabelPosition=bottom;labelBackgroundColor=default;verticalAlign=top;aspect=fixed;imageAspect=0;image=data:image/webp,UklGRkw/AABXRUJQVlA4IEA/AABwUgGdASogAyADPlEok0ajoqIhIlPIoHAKCWVu/GwZ4sRepevlRaxP67/YP1o8lDU/SP6z+sP9Q/aX6DeC+oDq/9S/LP9S/X3tn6x/yH2AfAH4b+Qf2r+xf5X/j/2v/////7s/47/Jfjl8mPt89wD+F/xP+3/2H/Gf9X+9//////Sr6kv7h/yv+B+s3wA/qP9b/2n+J/e75iv6R/lf7l7kv7d/lf8p/jP8z8gH84/p//U/P/vBf3K9gD+kf5r/xezV/nP/X/mP99////b9k37If+b/N/6z////v7E/51/bv+v+f//e+gD0AP95////d7gH/i9h/qd/h/7v/d/cj33/mv7P/dPUPy6+x/Z7ka+jf3vmf/HPt5/K/v3ti/m+8f50agX5F/Rf9n+ZflX9qCAD60f83+9euf8x5kfan2AP1w/7PGb+sewH/QP77/3P8X7tf9V/+v9P52f0b/Uftd8Cf9E/v3pUf/r/q+/L9tP///2fhR/b3//h1HOOcc45xzjnHOOcc45xzjnHOOcc45xzjnHOOcc45xzjnHOOcc45xzjnHOOcc45xzjnHOOcc45xzjnHOOcc45xzjnHOOcc45xzjnHOOcc45xzjnHOOcc45xzjnHOOcc45xzjnHOOcc45xzjnHOOcc45xzjnHOOcc45xzjnHOOcc45xzjnHOOcc45xzjnHOOcc45xzjnHOOcc45xzjnHOOcc45xzjnHOOcWUFTj/78QuGekvhCDURAEuBIN80lYYCthcUIiv8BIBgWsTOmRlsyEY5xzjnHOOcc45xxh3mOLr5r938j7uYdaJf32fWvfWAn5rRI+DLZkIxzjnHOOcc45xziudrltGazI+IJa/LEgMQjRs6Jdg9uYEsSAkBICQEgJASAkBGcYIq+1EmtqjLZkIxzjjGhVts6lAVs51GWzIRjnHOOcc45tRKQn1Qs2fQ7ITgrgSxICQEgJAShWaGs9moW0IxzjnHOOcc45xxYuZBFosEbBv/U2mZ7e9RlsyEY5x0UeauCVa7235YkBICQEgJASAXwdRf6smLBLQqPxbZAvsP7w5xzjnFnDSFiVQYyGZCMc45xzjnHOLkxnnwF20ts3nA1xZ/4G38eA3oEIwrXkEkGNJIb3UyJBmP2MYqyWF4wzbPjtR0JbMhGOcc45xzYr7cZ2eixzZr88zcZQJYYRVZ4Goq6cbHD870SaSH+LUkcQO3aLpVW/9NlnQeVGUcpzgkBGIcxPMme35YkBICQEgJAL4j1+WliMDTDIUlwYvwS8DXO/ZN/efh7S5781zI/2Xx4g7wvN2ZmjzM+AfKyV6VFcjajaDUcPnhfBa0/W2TW1MhFiAXRpiHEgJASAkBIBi5ZJYFlcjKELzjqikZ46tceBBV7u4kD2SPcQ/TqF0gNh1tNqeATiDNPgVwAFP8Y5G3c69rCVFlwBUsykUDZoZHsIxzjnHOOcc2bZj6ipkZaUtOiSb/GkQ8WKgHU1mvctKrkF7Z0PEGAOM2qKZoRjiKNN3rr6GfMcD+cwD23Gl2TeEtfPOVzfDVRlsyEY5xzi1rc+AreWzIPWo9kBz+BBSfSI4Mt9n4+UTi3v2ibVjCmCC9LswSjrgpmVtjproORVsETLKPQeNJ0py+Igdr8eAZA4WOcc45xzjnHGccT70ZbIhYRbPLy4FBEkE1qBvFrP3HqZn1H1W+o8FiXXCXee8ZFB5P14FBH7xKIrzXMjKNVHgzqfhzjnHOOcc4s95T2/LDHDqNuew17rsdQyvMOBk/n0LWzzGXTk+ugHDlB3M9Yc3BKIiz9AECi7YiPtRCMc45xzjnFpegqtMi7FOoMObpwxYM6xhoPitgbTsFhMzpqc2nHbqT15ID/yAqxVYgTIEb0dfIqMc45xzjnHNmtkQWSwvgi67fsnYsxDOAsMc2Xey8xxLxh3xxkEYYbEkRjb0ft5UGzYOcNyUQfHyei+Ja/LEgJASAjJ95hPLTbIhjaJz/pCPY9Aa0QwjOIP93qfbbtU6ERf2xK5tm+mRR5jTSXTTD4GCc2DfuS2a+gAVePSjsJASAkBICQEYaTB6AVg+ZjmN3HKiL5m2MApa/RYQbCSzx0SWeXSOtLyORl9wr7ag33ZSGcLZQoxSNJRDgyDU2pWMtMNxDAmrx2vyxICQEgI/Lx749/yiMoyV5OrUzOcaWMVm8Bn9f8Qv509zhYGhcFxPImY6dX51H0knYXZnUXhnuJqDxlsyEY5xzjnHFnbLd3IwezzZI+gpCG+UXHbWBXqOBUofvqdsPXpG5UFyd6XXgYW2LOpIFfpFX8hAha+a8Or42fB/eHOOcc45xxlyeC5b04DlZOqjZiTYROBGS31VFR7x77AooAEVn+lhI2ocSap2KwBJ5napt/Mb4kq/ErioenQppD+7lA2J/jCbfliQEgJASAkBGIsW8j/aZUeSO93K+G9VB1DvlcO5L1TjX3qQSdbXLhYwREuI1MXFLEYe3MjxbwrX5YkBICQEgI/Mi4rc+NeMcLB/eHOKyXTTmQwd2NDol4Zo6S6AgEgMFK3psaZGWzIRjnHOOcc2MHqhowMv4Y5xzjnFwyB0ZaawMcKS+4mYRjnHOOcc45xzjnFdXuJuJ43P0yMtmQjHOLNWgTSupCGqjLZkIxzjnHOOcc4tAasT0xZqt3GrHOOcc45xxi27W/sLKvS0yMtmQjHOOcc45xzjjMy4PwS5QoqAvVwBArX5YYiVuo+MrmC7aybZkIxzjnHOOcc45xzjnfTbWa5XAtNYj1f1DZkZaa2dHG//o501AJASAkBICQEgJASAkBICQEgMaRT3WhYal4okviXoFEV0x/TsKXsn40fYJ0rbhwJyo9r8sSAkBICQEgJASAkBICQEgJASrFRlsyEY5xzjnHOOcc45xzjnHOOcc45xzjnHOOcc45xzjnHOOcc45xzjnHOOcc45xzjnHOOcc45xzjnHOOcc2LVV6Qcmx5pGFVfqH3ZEUm8DS8DPtDJqxMCEWHfqhdp5pIo0GzOPTr0Qw+AqQ9dxoTXHyLFXjJbQnhr0Y5wOfwXP0Ro5xj3YHVcae8X1DKU9kzM6HNhigQDUgY2KHU2aFIktfliQEgJASAkBGTPPS9ypylFevNiXFOUe5jTP7uU3/l+xgSIFX4H68wiOUXnuJ1D3a5bbKaD69YpC/MhuyhoBlSxegPGKUvT1Q+gywWoD10iHkXosjcHtuR3coEFJopVHuO06IF2wH0e1y63De3KlMjLZkIxzjnHOOccWbCaz4bNBxE5AQvwTP2WPVznm93xnNJk27pgoJNx9dri4PDp6DrKVPcBdaw2QdsC1YGEVPOH9qTZVnKXW98/nogToPVKFyNyLLSvvE5cDzWr5jTR8LWXD/LhwO/WhTefxV0yuaDnoRXOzIqWJASAkBICQEgJARmoxeI1clz+WTlXB62Bair9bNsyEY5xzjnHOOcc45xzjnHOOcc45xzjnHOOcc45xzjnHOOcc45xzjnHOOcc45xzjnHOOcc45xzjnHOOcc45xzjnHOOcc45xzjnHOOcc45xzjnHOOcc45xzjnHOOcc45xzjnHOOcc45xzjnHOOcc45xzjnHOOcc45xzjnHOOcc45xzjnHOOcc45xzjnHOOcc2AAP7+uIAAAAAAAAAAAAAAAAAAAAAAAARkYcF0dJKIYFPHmb7H2/+77HahJ2Ax/07ZE3JeLtv8q9cEaUIUuNsuHsGmaIym80euUs7OdJFBIah7vSj94qtiJR9tRArhy5ark8zpNs5G624cJLAwJ8wX0951N0oQzo4dFLTnfn20+2ZGf+N3G8o6z0/7C08ubnjcPKfbMo+2ZeI7RU24N8RY6fhxRfRkkv3onTQJnN0+rR+DyT6qZDe4aiCv9wQ/R4AVXiSHuI1JO0CBb0XAJ1K/MRbmUxWmXAlpJhnO0eHJMS882B5a9Jy6j4Tzry37sqt3bMzhXoHmslUi3q709JHysZz8epK06BW/N7pvmpvl8/om27Ct1uSz6ER5v6C8LQiIkpvi6Kjq+UAtj6FFL7Bj4Y1+9HlfQGcGfOgOHsUVXiqmgn0Xg/oh8q4fID2yJy3To8OIcJrRdU0bBLbyXRsuQrk5+o2K07WAJMTONSSv+gpgAEXlw2LlMpXJjYoiJndcGWUyWLGkLo26prY/8+zAEB623/ZvG4v+pWqCJWyVvbjYNIEfXHlqqghqBbhiWhmU61LNi+jnU8GgFsr0hY+Qk1VmUtEibcGCrMszQIRC22iLLuVNbt5mojSCsuapNC1TZQxp+OM+vnzgmHVX6Cu9ZIVXnajntj5dew48mAaaTgi3C1ek17TtqqDRTdb0a6O3UoMOE6NoGa0jBCQxnp1AV+Eancv4n6y+iD/vi58mzd41m6E06A+0ktpFGTAG2HSmf7ke6+8AGjb5JLO6LHsw7R7vCtlZ3CGCK5wng+XQu2S/mtq2IjC9JxENUpeCiyHLpZSkWtQkUlBCTz3O01Z78dqWDV13yWPOs2Yo2Gxx5v/I3NPqMgw1HwSQ9HR0b4tT+IAjZmzgpxXLyWaeOsAuJ40dFg3bktUURbH5zf5FNcrSQOruQB9fol6tchOmx0kVqvxkccjWFCM6mS4grIzC1+4OKB1bFxJau0p0AiYI8xk4pyR1vbXrA0lVpTYEJn3e/yuKlknl4ocYafGctoBP52TtJMGpW6FzSVRo1bO1LSY6oODRI65k231fxCBPvGqyY0liaMxY75x+LnTbgaipiAVXy08CwtSImMbRugcci7atF1P+eVnw1By2WrkcanfLJgLnPZ2xafBdQVVQFW48M0rUdlYXNWsjF5rY9BEjcSRGkAHWkMUXCfJa2O7I/j+Ay2QsfnYjiLjTi5drz3/w/GflKEmVO/hjob0UIHDEPH5AtK+ZEVo+ovk9mcjbz85cIM9jIUhLlxGLr5LzsLoVA5PvPyc1sm0oNFRCjO86d3p7jNu/xEDAcrolcj07Gemj0hKTrLEfdAIL/DV7TEBGnjP8lfTLjE0STO9xntHk0Cgra37m+/JC7FhXD1l94Ije3bM0dRelFuDNeUCiA4RyBHhg3kgBM9XkEV4lLgYfAUlgqjEvznakpBKES6XI4IaOb87oLwYrVafp131kByshipkaFUU/CBFY1AF3gF4dNZC8eb++ROqnQAdTksfmxY8tF1fay01E8D2GxEvwvb6X8/OTsssWqdFgLAp0MgP8fQ6p+k3yCUs3aY8Ot1EgVvZcZi3+A0wPzZxk2hJfLohFSpF+5Js+yjAVVmDIkL8LIKPFK+7vzV8LnXzGvvEIyvUzM4EtzxwRlZuxpd5fCMPsE+wzJhkBJNcZyk8wUGx0DOrp4vj5zpgYfnQPsnj60NlEsf0E0YT84OtCGP2mdFcp592PJc6SDQICGenJfUjD9TGaR09XWxZ7/Iht42IpflLp/EY/0h5tM/fc/LhJ+pLW5HB4GMQW6npENOAQ9FEGo69l3QwgXi4kKGhjmKKSKBDoqKrIHVfyAu16KMzOG1VCR08n+701vH/974tqo6z/l9NArB+OBadVqdttJ8K4jtcM9mNiGQEp4lBCyvZK/kl+T81k+EB82xOgA4ufHjJf1VB9wMlszGwI2ZXG6Lfv6Vy6qnJUsZQfdfm2OalEkmytS07S0IX/T0dNV4Is2HFDvhG5eCUVT/EyaD87Z1n/byTomnRaBc/u69WSgOrY7+VUNeITcJe3PAubqqkgAQhynR9C0Xlhsl/ohiNg4n2bGji9LSOH6RAlwHQlocj01QEmRpXIcHp2YVQ3xcC8+VBr8ICK8NVC7VU3tyWcP0n3pxHnaxl3WMQHfVdAnZb+M8hLYC9eOTXGqkqkgOxSO36zSq36hgJ3tp7bfkgS9u38sTCykK17Nvedgz+/VmqDafJspQ0mZ8zClx1QNZcQyHdO8JHAw1q2FLRsMuicA58vj/7sjIV5G+QjMYEAZWtp99THpx8inHqaDHw3424ln0M9TyWPd6Cr8hlk0PtA1+Do76Oc2E/9blBLGWqgWemAEt3XWjyZN2xaBljre9a62oR6vQQd2rBwholQAi3kd96/K7dqQlaJxmMklszjunLbSMl8yAA3VJxDCMiFpnxDG8gJjqOGWPi2clo4qlKNg2IMyIuppJAuzYYsONtuSa5EPdTIQHT1yecedWeyBKH3vg6U2wwbMBwi/m+8/5oGbgqpxQDJ1a3rJkzULs4uiAbDQP1ybeTpxD41I1y+C1WnhSNUkjJ//7ZnuZwdZkSp+duubA3i2EmUiwa/oX7DpzN95fWGbDRjt/2iVeWwpkgWGTg6Tba65nkFYOlar5ue9csR/PqIgmu1qptM4JzvR7JRvRg/G247ES7wyxZ4t7kNxkUcUR6dAXrPT9QJTSuS3zgncO8m1ekDR/DtEwZF+Q96FxnWkgQFiUZiMHSBuq9F2QO4OI/YduTCCKrE4pCCsbme28Q+UUCchDouKBSZOE5Lr5pVeOuer2ACZmlMP15lzpGE6ak4HcipbzB3ARj04/Sku7K3vrEtqutKUcJDg7ysFUUF2rLIOR216h2maO7tqmtHRRmQV/YIzmKH6khKXbxvyZNt4H+PBT5Az7+h0o8+JOOCu7OFc4nImhDpep3WZaQOi9OEUa2CVJt2x5/VlwtncCRM2DDwun8UF1MEsqd7H45lPf2w3psYXjF/g+ZO5ZvpshqoQ9zDBxqCIV8gkzDDxT/HG138G//Ic0/BqGTQn5oX/6ndW3/3vseMHEdFzb8S6gooE07b2gClri6K4AtpQi7xaVj6GUDHUPPGt3SK4MLmuy1D87Rrk5Qq0RflrxunuSKhSJ7uM94vUXDnIORAIptXuL4d4LS+d/FzKPCOJUCcP6rNi3oA9L/VyolyIvC7ACiA9ivG1JW89HJtPD3AOuDZZF+tS9kC5cPCYI7HG5/HSH1D8x+oQ3Qs3t6D9MRdHNwsiSEOWX94a3P5fTXX5zEa6xEMUElf052ObsOJ576aLTTgnrIGalkMVx7Qk0cYFLLyxCh68dDD15yuXmtMUCHsAxQUeYwshe9Uxp1WzvlQ8/8UolMRRgm9F2mIuV5Ga6lvsyBxVFuJ+Pat4EL8N55p2KseEYWEZ0gwsjcM1NXkBu1r9EcuF09EDfSdkBlM2tJT2N059IwWKuhEnOVzXDcRNnJiaTQJHb5oi85sdLJUO4XHDczgKMMuzFFpOAV8kEnr2QPRRXb+GEOuRt9vMITdvc2ntPGkuQMb9k8tgxA1tGTaJNEk4onEurasOyeMPvcFmtECB4NHikRS61Ky9DZMkJ4X9/imaRXsyCUrY3+R2HHhRVNBu5RZVYd36h2L91G83eBWDWTLT0TJJhSIK7Z4A608qnJlfVsFgF4DAr7DUD5Vo1gn61Gn9qUVqzVpcoabSMLyua7B0KqWR+Dh4ha1FCuErAqVNwpEOwTARExVS2jD40H+IeXLmV40ZQFNp009oCisylKlKEzdnJoo2RsKDxObwfRRn/5YbT01zMAdbb9PqjnYpb53Kb/IdP2s9IyG89pvmhyBdl+s24VzUtwr66e0fuoPGmJVU2FOChfPusuommQj0xHhB75cY4deEzYMwApmBPFRji2G5nawBCNHd5KjLCyQEc7ZQRFK3pU8x3sDG0xWJkJkYlR6iit3DvLVIEBMQkMCDov5/ldRVAQlnqDoNRXW6hCWeSlNnh+eL9rFFdffZ8l+9tRzV1ehHvtcquIYCP1IGLALNmnl02MUUy6Pom8mqzj+rSNsb20gXjs19XFYWVOZiCwbpi12kekh0tFTQThJmxNKW+FkRtZUO+kSKpLP6SS+DuDgDrvqMzRl479xXyvBiZFfDDv6UvsZofwufsRgnzF1+naroe/hP0KjTd+7BVBRyqd1e1UQR83dVzAzCigCgg9mIUDjGZqlTFy1C2qvA+091zI3hHkgyaO8w9bVb41X3bFw/UaBbvhwheYOnPWsZy1lxfEuIyymmUkxJ35kc1mjln3k8dL8YjY63CZFB8mcHwBBiicAMiKN5nKj+IceI4OyCGmsw8fCE5elYwU3zHkIoRHrOdFZXrFzpGa/oCIgBsSB/2g1elzaHsOmUOc4oBlWmudfSTB3wVqPjMjkz051kd5rqilPw7jnTvyBnyZp5NdVG8eD0y/Acz3mbUOawkHdYh1MXw3IhAr2P2HqUFXbxlSYPjyhykxfa0mC3FD2h84cScFR98M4ZD9ACOVvZdfxs0vaJLswAkYATpmIQCqlISwMQsIwRGVm0kDxPR3qYef6onP2G0o1pQocaiqHv2V8eOPPLYiS7xcPRPI74zHA0wLVcQCpS0RvR5/Jt3+HuVscTd584KpoIa2Q6A7T3QTUbqY8BldEHXAIxwNao+hKkjwaWA9sORUbLqbqAiu+MJHdR2+Vf3Ogqxyccf8YOEk/mEVjvp7sDvulgF1ePDHpHwNspEhJfi9G6qQwJh/IpaISJKdzXkgAChIC5DrcALB3oukRAgMD2Nh5eU38ZQBI1RKCrrGSFyonaXGqlS4hU51JDAB+CRRG391zjHZadt+4hlexqOSIUiTeRlTQ2/CxGhknMwG8fHAFFYaXs5prFK4MZuqunFMc83cMFUxVouCB7DKRYJNI1Wa/3DFomO4dFlVmx91uDKRY5DXBEES8ABHm+UxgFbCyzq6yCh4owdWd4Y6/eI+IL3GA0ghXTILQuriN9Ur6m1++UVyW/W/7Tl8iVaG+TaLDmYxr5ha2EqWzpOi9yjeXy/u4YPSklIsEf3D1D3BZvw7UFR0CJcziJyMQLSqtQGGM6n9S+k8uPkNkEzwDoILAzg3HoZLYfFaYSS5tYNJrecZuD9WMiX+ApULQACJi8/UGuYKMU6KvgLavBm7QQBauUNRIC8iD4EMh5nYosy+uole6iYTfQrmAbOHzoXsVPkdwDDlmjqIjsIcUPkyZBWUBiPt1YIEGr+4y2J/5dz2aaEGdbQ7WI+dNzhaxbRj6H7UXgslHKmcNxl1K29WvaFr5q5Q3grLQ3fmoRxAcAHMYe7pcjkmHN7/P0chUcEynjgl/RkSeNU0ZT2nll4zhmM1i3q2tOmhEUezXbvte+tKbyM9fsbo6q7o4mu4pHGz0huhMcdVLAAhI/4A/y/Gzci0+zLgQWzQtPcSCMRtKicE4abf2fPv7n/LoYf6Aa3VsHm8j3avIL4Fe94wQ0QLSWCcXy07MRmjn7L9DXt3hAizuPrlPmmFRuJG0X09NY3ft14ItJMJZJTgFxBeg47SskaZ2hIlbM8ypVTSPUVUn/i7PAmIA5ITfTZpwz1J9thh2k8cflcbBxV6YDNkSiUk7EtsEXojCx41SH/jvlusHWxjPtD59e+bm9CnYCzdxOL6bEmttb/rofDzsCJ1Blvb0NtEFRPtGuIJucvA64RkZb5/RiuxWin8GYW7Wr0WV2BV8pGjneGbQHfXkKjv94x5xSNEbDkbdbYtPx53MzKhjV5RNEq3KHZcsKz+n7pr8P/ylcqDuQP7CpqWDDk8/GzK7fGPzzbnccSBEDsP+vfPdM7fKjiS8T0FvSEsYcpPDHZOIb5EwmQhfGnik4YEDoRQDux0bZuNeaqRGZcN+T4FgPdrb0pJG3DR1SemcK55ev8RIKbmkEVjReV18o58wcJP4ZZL+YwWpfxgJFCUL/AYvveiOhrdL2pgZ3A9dz6hmqCv+TSmy0fvLtBbKdLVKZ5laHlIRu+ggtzI59cthrUmTnrAhX9VYWf9RlzHY8U3SlWXarxC+OgDKC8AoqN9CaNTSLh7wJSlVGxXnnJxrn2z8k30+dW4lQFJbJONSOissoPqMuV17L4MaXK1RS9NuZg78NzpxJTDCJaez9Lu0+7Mfz0D9Dla7BpZ/7c6kynhJa2BPioNrRErk9bxlboauX8PwsJ2OuFEioobAGw9s9aQmCGB0y/TOJScM8lMxno+N8lqnfhOtgEvkSQODV1W6AabzeGxHQHRnBkb3cuQp44owv1EBaQ5mwvGr0LWcPd0G8RQUur0hsURf+ISIWymEn8Sg/wCCXJk0m/OE228K0KN+szZZFm/ox/nglXcHc8SmGrDefNUCZIJYVHi2ZJFJafR53a2JXfBNfhhf6P3OaYcFlHVDe3V5oUStID7FtcEewKlyE5XVNvmGr6I9NEpujk75lmWhVkmNefrHSwXs1pTqeF+UtBrC5urzBcYipLwoxJls4/FlMopSuyQONS+UU0J1RSeCAneknnYjph1Grzo/ptV864ZwiV0vOET6IdIwWewPyj0jkjFfhHKNUkieMaxPcAEzx8ChKyetqACfJTXCZXkRzeZOf3OWRUz8wIWVqg/hjcaodRHFK0DvEn7FetLu4Hw5jgfqa2HIPc4mKCFo3+80qq+OoST4QM+NohBXVV/zx6Gm5IyqgmxkS9IRxO7OSjFCv50uxbb6TmH0MHxbQY3SookvtjI3wBxd83Za/NWHO9bHr5lpsNsmoeoMgvN6U+bdB8wZDzNpq1/5osVOuG72MR/8tYRiS3tGgPGh87Ktm6LKqAL8NfXeWLljxCuXscyn7hciJR866c0H1V7yVtBsnhhlPHMeif31jyhUD9rCLwABrItnhtbAl69G1i3f6/0tG4yyfbTJS3wNx8IosFBkWCwfBz4/Sa28UMZL1piqAoDQ9+lX8VCfB1uJLpDrrppo6cGezp/VfT2d81fj+LnFa3e7zqsTUYpdy8tdKH2HTQSenT5apKRudZASdqls4mTgysVucND6tXbxXoLdO60czzExeddtHl7WOaCvTe1iwBhZyvZQdx8B0Tb7ywSyNNhhH3j+aVxcDvfAY/mj3Asxaia/umiR+oktOZJot2E7khvk72akpsqeiL/nxXA6VQ/yQUBPS9MYXrLNjF1MRhyrSRtjnVZpTKL9fmtbqTeEb3Zr6V+lJuuN9DkeZiWy156kEflKSBwhLX63bv+no+Ni3MNhQBmwfL1DGNWkhDYVA/hB6vMFfpbfM85SDmnOmxNnxUqCt4Ox+n+wUtOT2XDhq9AWVbfYgm7buuq1OPF6FwcjRNbDGMf17B3wPtlWqy3Ip/gYkiAdgk1hLSX070BlEpmRXtfB/r/2/vyBtovG8CyQdiclVz2+ZiSF0tlHku5kk3HJmDIxFdwJRRRwmgpI3yoJbY1iAaHf71A+LGilqbvAnjJJHblO0Jyp2Wz7FWCQsvD5NaeN6tpPJN0udsNKXDySiW0OxGoF/kW1u36VUra11Af+/bRRp0IFIlujhqKvfgIU+Rv4Cr4SPJx6HD69VHSfvTm5voloA1LeWamfHkW014aJMUOKCteQpi1R+uP5IZhehmuOJg1uqNIvaH9J6AD+8b0tNPAemVaWCSmcvx48HUohs2PuMrt63wj1NDTRCyBoTi3XvF+8m5B2qK8BGqhviRQ8ARKQYgjADqj4ZjlsGnZc1ndZ7GwS7/bv1xuvt2JtEFFnsAq7yYWNqSZ3L+a/R4dVFm98jzd61d5PP898lwltmUFoW9s/BYB5VLjDsRiyYp1lMxEU4q1Szzw/NtDPh8AyMO0KK3CTiN/1VCsziP1JyYGtZZjvz1MUYYnucbF3FV3E0FDtjfT5lkcOP66KZN9K6bg4tmbM10QGXtWFqz2x3NaJ1in+I+p/6HuU3gDmvn7c10+Vb2e040XqFS4Ta1xh6eDi+h+GqeUuqw1pwDTHPm9wQGaeWnZTIX6HZ+Pb9xPo7r1yZOzwM9sm0BbmL7KS6kgYOESSfR1/XRzpmFNwP+dqugmtrMDHCgTGTQke7T7KuzkqokcsYsVhWx8s/neOlyI/jBt2evYSx9CD/h5MwdqeWcsBzAiOcYJN8YIawOIGMtczCp1L6DsukPAjdrTkvORbGUgrQGv7u2yGZn2f723jV4jLMDXlG5IU0T4+3jHmt6SeEM2qWvTpf8QWooAb4yShQTQdc6Ab9gJfp+cBdWap+Tbmeb9SBcqHMUXrkYvLq/OcjFvBuGYLp92mSFz/PSolyx9c0qtD+OeSIHHsTIHPQ66e7kukXBYFa0WBZnHdkzO9hjn2FHHECRvbFOCYOmh2XkiZ7/YfQ7sYF6Z/4VmH9J00E/jCPCcN7w1iagzwtsEyrRq8/DjU8AHqKEe6rXzfG3owL3Lsi+ZouE6GD+PU2K7qVhAwAe2jdPWH38B9sO/elDjVuC5h91V74n/aDz+pue7yIgo+byKz4djSosjkyOS1vyYIqUX9gXf3Tmn/HCsN92xX4SCUtem9KEhuGbH/CRpOfFUeDkixKIUjU32f4cuVDghogMAAn4LyN0//PYGZGgilRhTkbj5AXttZ0CnV03K59Bg+DtAb+mEF1SXml/nGPilxGW6262F3/mZmrvU8UiySr68NArJRH6Ktsji/vp4v8VPGas9KgDx/7cpMsDGWOSfhaesra5MHLIhr4z8jXVhVbaUpQXj2rHYZ4vu95Lnt+/xj8b5OEoHPglJf1hz5Iwiq6LnO/VzUxgFA3qdACaT7acB8/7nMTeD+oirE6f9H4yWJGM6thAxnzkXVsiNZNhD0K9uLdkqLeypgvlO63oX3BiNI43Gwkq9CO3ZsoYPf/gR89fsAjUaJ5YOyt/mpc0ZMDm4n+blxlZWe3PUobP4swVOKQ0pUbD31PtC9wRZacEuf/n6I/R/z4iDecqG8gTbAzIPL2pyGj14rLHTjrTplAihJ3ADGoLPqd+HcmJqLetANxBJA5NoKDATggPvHyisWlL8s9xjpRhj1Ogfqh2WjSeEJwgtIsFh+i1NpnZpxQ1D1pguwqzEukht2GEc2qjpcuDwtFNfPa0aioav3VzgvLK43AN1gemtha200G3K62/hQs9y06oJSCuyahPJEt4SL78dxQs2l23XPxWrO1GZCyp0HWH4XVqU7PsSTApeUpdo3o4lurSLGvOoo/KSAZci6B8pgZrthjD9alsZcjnQ9fBWcuqzNjXhF0LfXLIrWOgGMWeNchW1m9McpIcMd0aGwIme8Bu1tmjWkq8NMlGw9apgppsUtdazZwwkElcVa6yHudngwlf4+7t+HFN1buUMyKW3rJ9d0djLN2XaLPvkQx/qb/SPpjKJOUt3oi/hfhbaJsMKv23Afm+5klu3bENmPMb4T6E2gzetALrzOB7MG+VXJH4pw8OiGMoeuOQ8GA+OSrxwlClTsKHxAE2/B4RNg+o0YPVqcPRJRm6VPhQacvP9EQ3429L8n8lDBATrLNOqV3346P8wUHRJ888qhID0iey1sUQJCUe6Fdva+GDVpB6Azfc/i7KU2PkzeukzFBiWqlZGY6iy/maJR81wjVURMY6w4xTSbbsoDrsVx5c6rqTsAgBM5LBds/ghXKuN9+c7z4biZ6mjAUqK/c0y9fXcmcFQwaVOy20YxvERsklaiYkW0s5ArtG8LpZW+Eb1hh5o8Mh5tik6LOu9K5FGvM76wm/UTPupjZonme1ffj8w95orkFcLjBDkSoxycR+cNCvzydaW46dELJcQxW7sPv2hgf3+ZFdfHRl1vrmxpxSZOB/PXEDcx2J9NWZfMtZVMtYIRGHi3E5uYDDtygWJPdlZb1wLJGyPGSTkkuPk9akMkvyDjAHWCnDJ+uqXEdWBn99AmKN0P4EA3ToqZAtN5dGEp4f/ca6kQtWSqN2+2hz4XCPkPP7aaXjA2Iht63tcCx5Vdp/p6dQod5wH5kuroPvzqHonUGFi+CWsVsd9Cq3vtSJjN49FToBvv+w7Uvc9IV5S0skHBWiQ8FphLd7wCamYWBy67sX+N3vx8/zLwiFGDzVHfr/qyBFTI9pj5xO4ZAd0KeB5CHNWzfSlV3wVCdgsPbyn3uXDTkww8YkLZvO8WBSczH8efLyuwr7xuhxCpUf5R6ejUnJGTGlCh6pkXJPmnSiXufb4RYijyNFguz+XB/kiR7NwBTyzmG53f5uFUZiWKHDZCR6jZJ1QxAja//B5Aj3iZjRpECoqImuBaJT0AWZkttgH+Pzj0V+/h9bBenTX3tC82zT61yeXu4zHUPg2gkbhz/uBslXnnXA6chuEi7BYMVEVcspqiDDQBSq3mRO3dE9OSQvkOKXXQ8JGLG85Wt4NGvRtaHqYuht3865kJOqPJ+qQe5wlVYwtsnHVln3HiOVTBk/Q64JgcSxR0V1oi1uwT68Yv5tlccWkElWqodKKdoUjffYAECAC8YR74lFvExGw9bTIQe6lkPJ06/s7z/Z+WdJz6dqnCK4w3p6tUTy8FP+ySn4DlGT7keDJ/PXbVv5JpQ2Y/mfBIOgcq+vWxPYYCf2nSsHQPqU/qWCaNLDyt7dtUdjFmFnJk3lTYsnVKgtOkG/5F5ohVTpDzfct6/eDlV1T/oyksx03P+1cK4CrrvVyha2XFhkMRWK1CeAcEcHoOkvCZrtu0WbLabs7HKiL20iQPceGQ5/gqDYTcxsCNmVxxVv2KjoGIrsd0e2jfwKG8Nl6Z5tSdAXsWKkr9O7pCYXpZc3UZSoCvdjF+1zHNa3bDPe3f3R+sloORB4AmGyq8ZC1kOOuelDN1r+Ydb02BGCsXy7i3WGUJg0B727DoKjbB81KKehD2FeZH/tLTQe6hU5eT5lz/Zk37WhVPGfraYKfc04JXPNOhqqehgAP9df/9eCd1PdbiUUdX8Qq7ztWyxtn2CNJMKAcWp9IBL07zba3rjzsg+B6QVs1nASsGl+2V1rOwf9oarG27qbavWmB26GWR7not8o/XfrHVmOzxevL8FeFV35VJwENAl5Nlk++lDBRWajq1wINgLnduVHFjNKCwKf8nEaTzJMGoRYJUt6UQwdicBTFQ1vKTGooQNQQOHjUys1SJwm7v793LI81gCoDVHZKWspH8hsoCFt/5uO+w/QuL+QOogsrdoWxCkBQl5gCJ17WbEsEaG2hnE6CPsHLQp9SCoWWmcmu24xvYglyqn3gYBLCOu86HZVyRPDEU99/e3e7afVSN5MZowoHEyZTImta+3TG0La3hfmWKU6Qfy0LGmyWutR2rDGofeOATUgFqtHGSms7+rjT681kEnfKH3RoWtAqXKrhk70bvIgsowSvWiRL8Ml5Sx4CdDlatklRkxPsPaXSmlzVY/NWzZe7ItSEXDMqlIBdIsjUcdh3ToUn474gz5A9n7YkRwKpPyhRdbFL+yRYH2NYuRxyi9vmn4JAmF/LWPKzPfwDE7uwieIRNuaZyvMhLrXFWWJh+3k9S/64Do4dfLlTSBDuCEj41RL6SlkXLi+f0PCVy99FGtiN11V3GSpdI3aaQA16XoM2eai+xc0V6DICIpUhRFFYxz4GmO9I9Q18JK8fG/C147ZYWorjM6+GvJZG3GI9nII9w2D9i4z8duKgHsArA8mJ+VZZSmHPqga6qFfWGqQeZ8AdMaN0d+N7A0e8huXrfreu+x/pVFE5ZJvF+vCH7qWyzhKpZpM9H8QjIPLaTcW+FZiRvxUHQVgcJS24NfQT4QvgbuBoJNEft17vnkQAItb8aVv+liuh1U6stTekB9KW4e+fA2T6Y4Rj6p3MgpisYqwdL7t6GJo8sKtDeJgAkO3mLCUBOSubeBrFB4WuJa0behyEYWVIV7sHPOMdmIPEB+pnf3NHnCr31xVP6BJGmIEcPpqVRqrY8t+x3C4XgIGfPQHEZIwd0n4KIAckz+RF01/V+Fj/pB5HACj8Hti+Z23MnCMyRf0M2tIDG44M1DFKji9YlGx1XLjyHvECaXxgadV/6TDDc/X6QrXHyv4L0wc2st/P2s1HVO4IK8y6mudz+gYP+bWtw8HCIghqJlBPQYfvfVXyCazlZpjIQ3Vwq5sx0QwumrurfCyemv04o5Y+f4Cd4QxxbjA8x3VAVocELNxVSQvrMDWgyEHAI4rJpB+pIUfwBVWu4C8wo3nMHnE7QH26sfBbXfWVDW/+Y+8FFmZNBo+l9CVq5FisQDvvOriCvralx+KaPtnq4WKV7Ijar3xrZoXhV75AQlUL/CtVhP0Y+2e2TttKzLOucyldvkHv77YBCGU9a9fvCKh1zONFyhv8eb2iejGmURKI377w/CFNQDnCdwhTyhOnXor94caILBVVcr0NK93kfvBdWDAQOo4dQkgDLHDhi2vSdT06TSQvIqg9WaOu9IHb2Nzt1HfYt1Htz2OaQ+Bz07EEPInu/RWYbdgKJaocAgJk3vN+l2fzxOkKiJ4jDbv3A/0K4u/toFjBuLRDtDPON5EWv2oWxFkdFkChSpCbtgZmXqy+6Haxx6JO8BujX2tMxjwA9DD92lsu9n/rAjcOZOnm42nYriK0lfQkKvx2HCzna34TWrTku7mSchslin1ShGL1ciWkY3FH+Yc0pXpVG6zZm5DB+J/S2XYNmo+tII2pLCynMm7XvWNN1edkH8wQ5pd3taW8co4GaJ8MYIgkIZu6Em8HW+XM7VKfKFmsvL6FvtR9L2/st9AS3ycJJQLka4mGcghfbmvGqRfsaGo8hqKrDBPLuVAtQy9gOOFLAAtL8U8wT2HhAitEX8o3B0F/tJp+P8DSyOMg8Ccu5DjOPmfyYOtKclM7qj2zvuqCsyQIvCWQ3wAGCOzljgDzs+FAEyqiXrUt+D+vKc/6rVqdTS4W/6CD46TsP/yPI32jSQGki/veGbT/vAhftEgqxUzm+6qleRp3tCFqYYvFd6SoAFfN1/ao+B//n+DiKQDB6hwj+o446KbGAqmfhD1zKgheFC51E9SrSp2a7V+7hWo6qMKSZzqhEvod8Yv8DakEz7xo6px/0C40JG26mjZJnnsuyxpcpjLp82X6A61CysRNGiSNIGOYJs3iFE3VHSU7fycby5t5BxI6WdtrGOgvl0GfU3ZyDi+X+2OIqXAAAoE+IKgeC/n/kngub06oYe/be/HbYiqUhO+lL8ODm3m2i5uXciUSkchvDsG6vIf86uHmNqUND/FnIfD+evWjGTB1DkBrnzXg16tU5YY0GwNefXzSGqFXjmkyysgwOvRIUSq49gddBuGH5f0pAjIXU839N3h4ohZbJAq7nyegFW97ApIrzoHJ6jQDAs1zCJeVt0IA0+TrdD/TCYuBT6CK18MfY+TZ9PON2Up3+UUeHCzMfumoQ2KtLim1VwcCc/ouAZy8pE13irEVzDfNdh7QuKLWB233eLFdAKQU4Y0BNWA4r+Hqo8YEkDPYqUow90tggMzCHyIvkqzbWTLEB4zTy0+4/8vVXPtEQgKTkcDssCOxuNYAVJUQKaT8joUP/Jhkg6uj1E4j/BbebFDxcGhzLzKCsAl4jOSW2zpwFkNDocoAAAMuYQ9tj/ja4tBWFMa1H13omT4h43Gvw9PnkroTM0eMT5OL5rkP945cU7rHOZHuhb2/v+gcTyBPGL7iRozTRsUYeomY3XcDvh5/KcbPNo1/1vgtTK7ZVSyeX4gKFRLWoqw9FkavBcC6mGJ2NZWYFGQVKFl+W80M22MAaJ+y1pUJQLud6i1UM5C13tSDhVrsnEVu7wfqOOqTU9HMN13fKlWU1KNm2GsPBq6LcJM4xAhF2CV7veKl/LM/hhR40QT2sosx53q6144eEV4jCiOEZ2T0wYcY0BlSs4fOlXwdOBtaq8AAABEu8zsV0JB99VvOqXLTuGbpGwmtQg1kgVjoyaBjs3VGsKVpEUXhIYt87loz8b3VINBs6yM5IZEAue+gcutRDkY3HKt+FPATBje+iwTl6eAzaceD0QqIe4TTUUq7iyJM72P0GOzvvxNEckE2ez8bfXogHjrx72YVENgaL5zw623KHGQGJVUwEcyopnPvZSfY1LeoGhEYTqzItDv1oXtXvOYnhpIG+AwZtAkhbH1eipWrOMseSExgGt0l5d5g4q/+vHSEnhV55xplcj9OYlfI+7ypMcBRo4qOqKT14ROD2kST+ZZ6IP+gAAAAAAAAAAAABYE8+T/rNCaTWGQRv15cd9eckpTB0/nSUvzir+0UjGKg9AXf/n+Sqy8SXKkRexVbplRS17Si9HD62n4Z6262xdShI1pOM+zNQDXdisIYu3wFtgduT0O1dK8rCMWPX+WimSDV7jYK5AM9HBjRR5nN2vGEJpWB28Ouf0alSKibES4NkKkPIiCeZsyRRAL5Rwul9eVXUZ/8XlY+FamegzKquWm+4Y9/rUDa0LfSIV4BoXzuxFdSAWnOtXtwnuCJ3Qgzjcyzk+qFCshzNlRkv4uhKsMgMADVAprpmQw6Fld1n5aH68eDIrxTymcWt8XOtHCxJhVLpRHBUe95e4QuLTsEGL5HomIfoihgmGEitX5BnJTB7f8WwbWacHPWNrGVhNMbn7ZVugc9UgrELK24X1/i8XzOgwI+QwSHBeb2fzvTF5dvQWCIoPr0WQhL8Pk9bB0b/QgVQE+L/untYfmfblqdS07xEZk9uFyw6qeGZuodobXWH4E2wFIaHmr7Fj88bk4wohlKWgh6+FXvmiCGuED8Y/mj7j/Ffl/HWwVmZrg66uObZ4lK8lSLFxtYK0PMii1qlqLij1aQfPyFK67O6FjWtFx3DPBRKL9tsM31UlClQXp9/luACFGovRV2kngpNPfiNwbOGWxzvR9K7YNztn6UctUzIuGpWjl0Epi+JEny1u44nZaFXFklL60KEZljn9zjY2KLz8lEaTr5K+zHC+Nrf3SzFFE9Hd/CcZMliyHoUHJ2r5iPqwoOncFrnsytpCuo+kk8qvRgcaM0kENRn7Y1f8XmRNqBc0PV0SNZOMihpJUSHrKTTdldWDJXZ9CtxwXqFbo+r4HNZgbKs4hKVx/pTqbsK6Pph8BHqak3oO6LE7N5zpoxCuT00Ej2PvvZ/zPZ1Cd2o2b1n+YEP9cRWV3wtTjQTBNregGXlHu0rBIk4RDcYxElaVsptwIcop4O3qk5vCaklLuKUwiWOWNGu+wVzKHUilVAlTkGiUduSRS7l/UJAq//QarkGzfcJo2vJ4DAqXYvY4NKlcGbI6VKky1tJIVWI0NAwoRaXL73QfFj4bCzuwLaTNujaO0pzQWrLhCF7exH4MXkF8cnWiBz1K04FwhSIdUxDUJkn2j5JFOYj4oYfA0RQ4AijrR3PBPSWOZ6NdZM+yFS/dT9IWFnc1I17aL8tTEuhVgjS80CHUvg0O40nV//gsYI5kqp7fQGsJdGL0FTcn8uZWuG+l70dLz9lm1VXkY5NHJXe/wn5v4/KhDnva8KACfLSrU8pqo/gce/KIheMBOyB9AZ//956KBskoRZ39WMzbGM4iS87ZvQRprpP/yEAPQIrBMhJBGec9X9rAn3Ym16OK7Yqy42P7m3jQvndnA63bvHdV3RVSToVi9/JZ9Z850eOMJZuKN10UNZNiV57AuR2RVV73ncq4C6InbPWWbj37A7PyC1iMp95FvI7WMDtxNQ/b1sAx0XCBpdJXFJiKnCFgd8PAfZ2CnAxtVzp/rC6o6J+AbSXW07W47E8LPyyT5Q6RbI5dOOAUrNpe/Ck77cGJ1G8lFza5qDWqcuy0gJfRU+hsRGKeluox9BvTi0hr+P+js+D5tYySSzBuxL3xvybHEI/BLUeUp9HmbBC+Jpok+a6rbYPOFHHZT73tVDwsHJ7H5bYjiftGqO5CSEAS/5GF/ipGjd01AF1oWfVwRVLPzvs78o+4KHa/7hF5q/2ZtbKQGfvLmusnGNk5Ke1/27xs+dxOsviKqSJcyCHFOhzGs1/AFpqFxXG8CcJII2BkTOeN4zEk2Rr++yZI9MgHLHbOOCcgfHCqoorq9+/6khbL9AWrdzmOw11G72jBbwlW3aTwqsVY0op8WqGnrLg/wkzyN7U+kaczIT92WLNE14IBIG6sKDp4QAzlVFvOQ0aBppEkN4FPsYBiYdnTMEOPBMTqdm/gBXllac+7aVln6h+bQlDekar88gwrEQ0MZKbfn2Z3L2i///8QbvvneNSfJ7U9WLOS2nDLM4Em0h0wPmZSF728JwQ9x0sAMvgje9frK//DwG3jjr8tpMpwEv+mo73f9AKpq5maPDalcICDk284fdR9HN4q/wo1+NLSOBOL+42h/+nGMM05DhBScfHkLtFqVs2IUkD1fhUXxFTGegp8iwbsTIoaOztsyVZAZ3aa6s0H6VlExoXcWkRwFl0KMiV1YsWn6z0RARc/afH5HCH0a+nSvtd96O/9aJFKqBKnSb6dNpRyJkxZDEfOUp8/wDmZZFhdDoozSMOjE0jh39FhniF+tNKFnofBYcTk1XIuV9639kQKsdZaFH8WQeO5Fsq80dnNq1kisEsuypAH1KiFZ7HBFPFlIdYZz/IwH6GJRnqTyDVk+i3bczb1P2xeeDpZqOXntqL+2+OV6neM2M3kkDNi1iUxiBbACexEoR1HZvPXVYXRyXGOKy/eUOiur57Re72HSXdxs3D3MsInk4SesUXzERLMS9/i9wzMu9cFt3Hf5p8TUsWB7e8jfWSs0xMkuyGfvzAYbcCa0hw+Zjzdx5uiS7jXNHX9d91eGf4Q6/gT1Hg50luoLb1TO+W32lcJB8mvFW8W8+MNxCgraI+CxvDOXoZQHd8/2l2WLydwQb56FhpTO7ew/JCfEoLGWnYhrM6ZjHw3bXuJnTiqElJSOHI3piZaZtnM1gvRoSxKc7A90jBEQzcpoVN/ZyoCHJree+RUYalzh2mfgRwRqqbDdUrycoRd6n80L0ROcvcmwE3QUJzZRKQEKa/4cKgIJIFg2sJgRfCyOVTp9OEc1XG5rNVmocQMf9V8rtnVDqJQDI1H2ux/nLNOsEMTXJM9VKHQy6FlVjipx38f2ja8GABz8cwAF3pPbBi6ZQZSXjpJcirFuM7aZYiiVdULMTtecUNzBB172Y4KYlnAztwNWYB5n3xdB7F8WLFCyrIQh54Vn015ygIcQyk/dMxxwqaMUg70wroYK1YjVOFVQOlK4d/K3LudoMCYnsbJ7jg1Wbs1ads0ZL9nmeCUJ1pBe3Qc5a+SKgagLiRqwbGCDG3wHAWYsOcecbW4MlObOfJk5H1Ur/5ay1Aj1gWXEgO8XZYNb7Nv3YK3dLrliwv3CCDQxsgW+0kK7ABpWIaNc/IFK8ckf10X9tZ0tAMg8K7HCm7a06p1ZUcHVF9z+VxTlR4Yx0uiv5WiGdXKnOVI+1KzvtH8q5PGLX09xlsY+UIg/jJYYwBDLg8Gp30oxi6NjH5qBSM0cos4XNOYxcw+ZtdqZC3xyLJvOwSllp3g80qKtWwmiuC43hnVba4OakAYyK/Xr0x73szY4a1lTJDxHqtUVI4fncY1981FG7M0Rba4AiqGdNOC60cAyi6StcdlycBVtabKBZZWstWbSd9nKjRKok8+8uFF5+jrGqyaINKJCu2JWL80LiSbK5ikI2KzqOCcFBcLSt4QVz71necSMnSPM0YbE2FkCWI+5yvJTr2tjPL6gPIoa8Su7OWQg6UXt8pa3JADOsE8ZqDlFlbNWlnsjiDYf4OTMjrDiARmn66bkH/eY2k7qYcwXgTRc+wQSHYx+Fk8Koiwnd1zQYz6R5/qGuB0Cql29Kz1duycfmn9Fzgxoxcp9leGb3jeDKuzzKIxiSe8BOpOkE4S5kF/DbLF1T0cotDsdlK6OPSZ6l7gEHmgEo9p4uzFSXC/br+7IHhHvtzMWsjJkv8MhIP8tiZNuS/FLbgx1beSw15Pnj2486M0TeqHiBAcAAAAAAAAAAAAAAAAAAAAAAAAAAAAAAAAAAA;" parent="1" vertex="1">
          <mxGeometry x="1060" y="270" width="70" height="70" as="geometry" />
        </mxCell>
        <mxCell id="0nW9vHeMUiIk-B38lYcf-8" value="" style="shape=image;verticalLabelPosition=bottom;labelBackgroundColor=default;verticalAlign=top;aspect=fixed;imageAspect=0;image=data:image/png,iVBORw0KGgoAAAANSUhEUgAAALQAAAC0BAMAAADP4xsBAAAAHlBMVEVHcEwcvP8cvP8cvP8cvP8cvP8cvP8cvP8cvP8cvP9krvfMAAAACXRSTlMAIDBAgJ+/z9/t4KpAAAAAtUlEQVR42u3asQ3CMBBAUY9AwQzUaenTpGeGSCzADozAtrRJYeniswSY91tLrz6fXUq185yrLpfrKxcajUaj0eg/oqcSa0Gj0eifprc3sFNfuiU0Go3uRvfdMO3ovvMoGo1Go9HooekpeLlb0Gg0Go1Go9ED0rfdvum+OZmrJ0G6aYZFo9FoNBr9BfRlzdX0fSAYGo1GD0T7SYZGo8ehH8FB8Xmczr+SotFoNBqN/gyd3jBVewPOY3w58lOXSgAAAABJRU5ErkJggg==;" parent="1" vertex="1">
          <mxGeometry x="1010" y="380" width="85" height="85" as="geometry" />
        </mxCell>
        <mxCell id="0nW9vHeMUiIk-B38lYcf-9" value="Cryptocurrencies" style="rounded=1;whiteSpace=wrap;html=1;fontSize=19;fontStyle=1;fillColor=#CCFF99;gradientColor=#FFFF99;gradientDirection=radial;strokeWidth=3;strokeColor=#000000;" parent="1" vertex="1">
          <mxGeometry x="100" y="40" width="500" height="40" as="geometry" />
        </mxCell>
        <mxCell id="0nW9vHeMUiIk-B38lYcf-10" value="Fungible Tokens . &amp;nbsp;Harvey and Rule(2020)" style="rounded=1;whiteSpace=wrap;html=1;fontSize=19;fontStyle=1;fillColor=#FFFFCC;gradientColor=#FFCC99;gradientDirection=radial;strokeColor=none;" parent="1" vertex="1">
          <mxGeometry x="950" y="40" width="600" height="40" as="geometry" />
        </mxCell>
        <mxCell id="0nW9vHeMUiIk-B38lYcf-11" value="Stablecoins: &amp;nbsp;Create to be peak to the main assets like the dollar." style="rounded=1;whiteSpace=wrap;html=1;fontSize=19;strokeColor=none;fillColor=#FFE6CC;gradientColor=#FFFFCC;" parent="1" vertex="1">
          <mxGeometry x="1200" y="120" width="360" height="100" as="geometry" />
        </mxCell>
        <mxCell id="0nW9vHeMUiIk-B38lYcf-12" value="Utility: Creates to trade energy &lt;br&gt;or services in the Blockchain." style="rounded=1;whiteSpace=wrap;html=1;fontSize=19;strokeColor=none;fillColor=#FFE6CC;gradientColor=#FFFFCC;gradientDirection=radial;" parent="1" vertex="1">
          <mxGeometry x="1200" y="260.65" width="360" height="100" as="geometry" />
        </mxCell>
        <mxCell id="0nW9vHeMUiIk-B38lYcf-13" value="Market: Emulate the movements&amp;nbsp;&lt;br&gt;of the stocks and other &lt;br&gt;financial instruments&amp;nbsp;" style="rounded=1;whiteSpace=wrap;html=1;fontSize=19;fillColor=#FFE6CC;gradientColor=#FFFFCC;gradientDirection=north;strokeColor=none;" parent="1" vertex="1">
          <mxGeometry x="1210" y="390" width="360" height="100" as="geometry" />
        </mxCell>
        <mxCell id="0nW9vHeMUiIk-B38lYcf-14" value="&lt;ul&gt;&lt;li style=&quot;font-size: 18px;&quot;&gt;Cryptocurrencies are assets created in the Blockchain Technology.&lt;/li&gt;&lt;li style=&quot;font-size: 18px;&quot;&gt;Bitcoin only works as currency.&lt;/li&gt;&lt;li style=&quot;font-size: 18px;&quot;&gt;Ethereum:&lt;/li&gt;&lt;ul style=&quot;font-size: 18px;&quot;&gt;&lt;li style=&quot;&quot;&gt;The second largest Blockchain.&amp;nbsp;&lt;/li&gt;&lt;li style=&quot;&quot;&gt;It was created with an update of the Blockchain.&lt;/li&gt;&lt;li style=&quot;&quot;&gt;It has the ability to develop other kind of assets named Smart Contracts.&lt;/li&gt;&lt;/ul&gt;&lt;li&gt;&lt;font size=&quot;4&quot;&gt;Smart Contracts are usually tokens with they own rules and can be used for transactions inside Etehreum.&lt;/font&gt;&lt;/li&gt;&lt;/ul&gt;" style="rounded=1;whiteSpace=wrap;html=1;fontSize=15;fillColor=#FFFFCC;gradientColor=#FFE6CC;gradientDirection=east;align=left;verticalAlign=top;strokeColor=none;" parent="1" vertex="1">
          <mxGeometry x="640" y="40" width="280" height="450" as="geometry" />
        </mxCell>
      </root>
    </mxGraphModel>
  </diagram>
</mxfile>
